<?xml version="1.0" encoding="iso-8859-1"?>
<!-- Generator: Adobe Illustrator 19.2.1, SVG Export Plug-In . SVG Version: 6.00 Build 0)  -->
<svg version="1.1" id="Layer_1" xmlns="http://www.w3.org/2000/svg" xmlns:xlink="http://www.w3.org/1999/xlink" x="0px" y="0px"
	 viewBox="0 0 200 200" style="enable-background:new 0 0 200 200;" xml:space="preserve">
<style type="text/css">
	.st0{fill:none;stroke:#547F91;stroke-width:1.5;stroke-miterlimit:10;}
	.st1{fill:none;stroke:#547F91;stroke-width:1.5;stroke-miterlimit:10;stroke-dasharray:1.9446,1.9446;}
	.st2{fill:#547F91;}
	.st3{fill:#FFFFFF;}
	.st4{fill:none;stroke:#678C9C;stroke-width:1.5;stroke-miterlimit:10;}
	.st5{fill:#6FCFC9;stroke:#6FCFC9;stroke-width:2;stroke-miterlimit:10;}
	.st6{fill:none;stroke:#358285;stroke-width:1.7038;stroke-linecap:round;stroke-linejoin:round;stroke-miterlimit:10;}
	.st7{fill:none;}
	.st8{fill:none;stroke:#678C9C;stroke-width:2;stroke-miterlimit:10;}
	.st9{fill:#FFFFFF;stroke:#678C9C;stroke-width:2;stroke-miterlimit:10;}
</style>
<g id="nav-stats_x60_17x11">
	<line class="st0" x1="0.75" y1="1.2" x2="0.75" y2="11"/>
	<line class="st0" x1="4.45" y1="3.1" x2="4.45" y2="11"/>
	<line class="st0" x1="8.25" y1="0" x2="8.25" y2="11"/>
	<line class="st0" x1="11.95" y1="2.6" x2="11.95" y2="11"/>
	<line class="st0" x1="15.65" y1="4.4" x2="15.65" y2="11"/>
</g>
<g id="nav-scale_x60_22x15">
	<ellipse transform="matrix(0.9876 -0.1567 0.1567 0.9876 -1.2832 0.9921)" class="st0" cx="5.65" cy="8.634" rx="4.9" ry="4.9"/>
	<g>
		<g>
			<path class="st0" d="M10.155,2.239c0.3-0.2,0.5-0.4,0.8-0.6"/>
			<path class="st1" d="M12.755,0.939c0.1,0,0.3-0.1,0.4-0.1c3.5-0.6,6.9,1.9,7.4,5.4c0.6,3.5-1.8,6.9-5.4,7.4
				c-0.6,0.1-1.1,0.1-1.6,0.1"/>
			<path class="st0" d="M12.655,13.539c-0.3-0.1-0.6-0.2-0.9-0.3"/>
		</g>
	</g>
</g>
<g id="nav-app-component_x60_16x19">
	<polygon class="st0" points="15.15,13.468 7.95,17.568 0.75,13.468 0.75,5.068 7.95,0.868 15.15,5.068 	"/>
	<polygon class="st2" points="4.85,11.568 7.95,6.168 11.05,11.568 	"/>
</g>
<g id="nav-platform-component_x60_19x13">
	<circle class="st0" cx="1.55" cy="6.63" r="0.8"/>
	<circle class="st0" cx="6.45" cy="10.53" r="0.8"/>
	<circle class="st0" cx="6.45" cy="2.73" r="0.8"/>
	<polyline class="st0" points="7.15,10.53 15.75,10.53 17.95,8.43 	"/>
	<polyline class="st0" points="7.15,2.73 15.75,2.73 17.95,0.53 	"/>
	<line class="st0" x1="2.75" y1="6.63" x2="14.75" y2="6.63"/>
</g>
<g id="nav-instance-health_x60_17x17">
	<circle class="st2" cx="8.105" cy="1" r="1"/>
	<circle class="st2" cx="8.105" cy="4.2" r="0.9"/>
	<circle class="st2" cx="8.105" cy="8.2" r="1"/>
	<ellipse transform="matrix(0.704 -0.7102 0.7102 0.704 -0.6427 9.2922)" class="st2" cx="10.826" cy="5.417" rx="0.9" ry="0.9"/>
	<ellipse transform="matrix(1 -0.0091 0.0091 1 -0.0732 0.1096)" class="st2" cx="12.012" cy="8.105" rx="0.9" ry="0.9"/>
	
		<ellipse transform="matrix(0.6975 -0.7166 0.7166 0.6975 -4.4862 11.0201)" class="st2" cx="10.809" cy="10.824" rx="0.9" ry="0.9"/>
	<ellipse transform="matrix(0.9998 -0.0182 0.0182 0.9998 -0.2152 0.1494)" class="st2" cx="8.099" cy="11.896" rx="0.9" ry="0.9"/>
	<ellipse transform="matrix(0.691 -0.7229 0.7229 0.691 -6.1397 7.2276)" class="st2" cx="5.384" cy="10.795" rx="0.9" ry="0.9"/>
	<ellipse transform="matrix(0.9996 -0.0271 0.0271 0.9996 -0.2179 0.1168)" class="st2" cx="4.199" cy="8.096" rx="0.9" ry="0.9"/>
	<ellipse transform="matrix(0.6848 -0.7287 0.7287 0.6848 -2.3111 5.5203)" class="st2" cx="5.226" cy="5.432" rx="0.9" ry="0.9"/>
	<ellipse transform="matrix(0.4398 -0.8981 0.8981 0.4398 4.7184 11.0366)" class="st2" cx="11.206" cy="1.736" rx="1" ry="1"/>
	<ellipse transform="matrix(0.7901 -0.613 0.613 0.7901 0.6087 9.1653)" class="st2" cx="13.687" cy="3.694" rx="1" ry="1"/>
	<ellipse transform="matrix(0.9792 -0.2031 0.2031 0.9792 -1.047 3.2091)" class="st2" cx="15.113" cy="6.706" rx="1" ry="1"/>
	<ellipse transform="matrix(0.2483 -0.9687 0.9687 0.2483 1.7398 22.018)" class="st2" cx="15.057" cy="9.888" rx="1" ry="1"/>
	<ellipse transform="matrix(0.6494 -0.7605 0.7605 0.6494 -4.9259 14.7202)" class="st2" cx="13.5" cy="12.702" rx="1" ry="1"/>
	<ellipse transform="matrix(0.9177 -0.3973 0.3973 0.9177 -4.9017 5.5345)" class="st2" cx="10.906" cy="14.597" rx="1" ry="1"/>
	<ellipse transform="matrix(0.047 -0.9989 0.9989 0.047 -7.8854 22.2255)" class="st2" cx="7.705" cy="15.245" rx="1" ry="1"/>
	<ellipse transform="matrix(0.4818 -0.8763 0.8763 0.4818 -10.1767 11.4479)" class="st2" cx="4.591" cy="14.328" rx="1" ry="1"/>
	<ellipse transform="matrix(0.8181 -0.575 0.575 0.8181 -6.6166 3.4881)" class="st2" cx="2.206" cy="12.204" rx="1" ry="1"/>
	<ellipse transform="matrix(0.9877 -0.1562 0.1562 0.9877 -1.4245 0.2691)" class="st2" cx="1" cy="9.198" rx="1" ry="1"/>
	<ellipse transform="matrix(0.2942 -0.9557 0.9557 0.2942 -4.9407 5.4165)" class="st2" cx="1.197" cy="6.053" rx="1" ry="1"/>
	<ellipse transform="matrix(0.6846 -0.7289 0.7289 0.6846 -1.4075 3.1259)" class="st2" cx="2.908" cy="3.189" rx="1" ry="1"/>
	<ellipse transform="matrix(0.9354 -0.3535 0.3535 0.9354 -0.14 2.0322)" class="st2" cx="5.493" cy="1.399" rx="1" ry="1"/>
</g>
<g id="corner-bg_x60_614x57">
	<polygon class="st3" points="23.4,57 613.5,57 613.5,0 0,0 0,42.5 	"/>
</g>
<g id="nav-split_x60_20x12">
	<path class="st4" d="M5.65,0.75c-2.7,0-4.9,2.2-4.9,4.9s2.2,4.9,4.9,4.9l0,0c2.5,0,4.4-3,5.4-3.1c1.9-0.2,2,1.6,4.2,1.6l0,0
		c1.9,0,3.4-1.5,3.4-3.4s-1.5-3.4-3.4-3.4l0,0c-2.4,0-2.3,1.8-4.2,1.6C10.05,3.85,8.15,0.75,5.65,0.75L5.65,0.75z"/>
</g>
<g id="nav-admin_x60_24x18">
	<ellipse transform="matrix(0.9413 -0.3375 0.3375 0.9413 -4.0912 4.1698)" class="st4" cx="9.947" cy="13.851" rx="3.1" ry="3.1"/>
	<ellipse transform="matrix(0.9412 -0.3377 0.3377 0.9412 -0.5106 4.7662)" class="st4" cx="13.443" cy="3.851" rx="3.1" ry="3.1"/>
	<ellipse transform="matrix(0.9413 -0.3376 0.3376 0.9413 -1.7089 7.4826)" class="st4" cx="20.659" cy="8.655" rx="1.9" ry="1.9"/>
	<line class="st4" x1="10.958" y1="11.058" x2="12.658" y2="6.758"/>
	<line class="st4" x1="19.258" y1="7.458" x2="16.358" y2="5.658"/>
	<ellipse transform="matrix(0.8869 -0.4619 0.4619 0.8869 -4.0204 2.2818)" class="st4" cx="2.65" cy="9.353" rx="1.9" ry="1.9"/>
	<line class="st4" x1="4.258" y1="10.358" x2="7.358" y2="11.858"/>
</g>
<g id="nav-console_x60_19x12">
	<rect x="0.75" y="0.75" class="st4" width="17.2" height="10.5"/>
	<line class="st4" x1="8.05" y1="7.45" x2="12.05" y2="7.45"/>
	<polyline class="st4" points="3.85,3.35 5.85,5.45 3.85,7.45 	"/>
</g>
<g id="hex-glob-storage_x60_50x57">
	<polygon class="st5" points="48.2,42.054 24.6,55.654 1,42.054 1,14.754 24.6,1.154 48.2,14.754 	"/>
	
		<rect x="15.887" y="19.756" transform="matrix(0.7071 -0.7071 0.7071 0.7071 -12.8994 25.6697)" class="st6" width="17.3" height="17.3"/>
	
		<rect x="19.285" y="23.29" transform="matrix(0.7071 -0.7071 0.7071 0.7071 -12.9744 25.6579)" class="st6" width="10.4" height="10.4"/>
	
		<rect x="25.289" y="21.233" transform="matrix(0.707 -0.7072 0.7072 0.707 -10.5474 31.2068)" class="st6" width="14.2" height="14.2"/>
	
		<rect x="9.902" y="21.359" transform="matrix(0.7072 -0.707 0.707 0.7072 -15.1427 20.3529)" class="st6" width="14.2" height="14.2"/>
	
		<rect x="37.575" y="24.53" transform="matrix(0.707 -0.7072 0.7072 0.707 -7.9124 37.5608)" class="st6" width="7.6" height="7.6"/>
	
		<rect x="3.818" y="24.616" transform="matrix(0.7071 -0.7071 0.7071 0.7071 -17.8618 13.7093)" class="st6" width="7.6" height="7.6"/>
</g>
<g id="hex-router_x60_50x57">
	<polygon class="st5" points="48.2,42.054 24.6,55.654 1,42.054 1,14.754 24.6,1.154 48.2,14.754 	"/>
	<polygon class="st6" points="7.2,40.154 12.6,36.854 37.4,36.854 37.4,30.254 12.6,30.254 7.2,33.554 	"/>
	<polygon class="st6" points="42.3,42.954 38.1,40.154 12.1,40.154 12.1,33.554 38.1,33.554 42.3,36.354 	"/>
	<polygon class="st6" points="43.2,16.254 36.5,20.754 11.8,20.754 11.8,27.354 36.5,27.354 43.2,22.754 	"/>
	<polygon class="st6" points="6.2,14.254 11.1,17.454 37,17.454 37,24.054 11.1,24.054 6.2,20.754 	"/>
	<line class="st6" x1="17.1" y1="17.454" x2="17.1" y2="33.554"/>
	<line class="st6" x1="30.9" y1="20.754" x2="30.9" y2="40.154"/>
	<line class="st6" x1="19.8" y1="20.754" x2="19.8" y2="36.854"/>
	<line class="st6" x1="33.6" y1="24.054" x2="33.6" y2="40.154"/>
	<line class="st6" x1="25.5" y1="24.054" x2="25.5" y2="36.854"/>
	<line class="st6" x1="38.2" y1="22.554" x2="45.2" y2="18.254"/>
	<line class="st6" x1="5" y1="38.154" x2="9.2" y2="35.554"/>
	<line class="st6" x1="39.4" y1="38.054" x2="42.7" y2="40.154"/>
	<line class="st6" x1="5.1" y1="16.854" x2="9.5" y2="19.854"/>
</g>
<g id="hex-health-monitor_x60_50x57">
	<polygon class="st5" points="48.2,42.054 24.6,55.654 1,42.054 1,14.754 24.6,1.154 48.2,14.754 	"/>
	<polygon class="st6" points="7.3,19.354 15.4,14.054 32.7,25.554 24.6,30.854 	"/>
	<polygon class="st6" points="7.3,24.654 15.4,19.354 32.7,30.854 24.6,36.254 	"/>
	<polygon class="st6" points="7.3,30.054 15.4,24.654 32.7,36.254 24.6,41.554 	"/>
	<polygon class="st6" points="41.9,19.354 33.9,14.054 16.6,25.554 24.6,30.854 	"/>
	<line class="st6" x1="41.9" y1="35.154" x2="41.9" y2="19.354"/>
	<polygon class="st6" points="41.9,24.654 33.9,19.354 16.6,30.854 24.6,36.254 	"/>
	<polygon class="st6" points="41.9,30.054 33.9,24.654 16.6,36.254 24.6,41.554 	"/>
	<polygon class="st6" points="7.3,35.354 15.4,30.054 32.7,41.554 24.6,46.954 	"/>
	<polygon class="st6" points="41.9,35.354 33.9,30.054 16.6,41.554 24.6,46.954 	"/>
	<line class="st6" x1="34" y1="24.654" x2="34" y2="14.054"/>
	<line class="st6" x1="7.1" y1="35.354" x2="7.1" y2="19.554"/>
	<line class="st6" x1="15.5" y1="24.654" x2="15.5" y2="14.054"/>
</g>
<g id="hex-logger_x60_50x57">
	<polygon class="st5" points="48.2,42.054 24.6,55.654 1,42.054 1,14.754 24.6,1.154 48.2,14.754 	"/>
	<polygon class="st6" points="15.3,37.854 15.4,22.354 26.9,15.954 26.8,31.454 	"/>
	<polygon class="st6" points="11.5,36.254 11.6,20.754 23,14.354 23,29.854 	"/>
	<polygon class="st6" points="7.7,34.654 7.8,19.154 19.2,12.754 19.2,28.254 	"/>
	<polygon class="st6" points="4,33.054 4,17.554 15.5,11.154 15.4,26.654 	"/>
	<polygon class="st6" points="34.3,45.854 34.5,30.254 45.9,23.954 45.8,39.454 	"/>
	<polygon class="st6" points="30.6,44.254 30.7,28.654 42.2,22.354 42,37.854 	"/>
	<polygon class="st6" points="26.8,42.654 26.8,27.054 38.3,20.754 38.2,36.254 	"/>
	<polygon class="st6" points="23,41.054 23,25.454 34.5,19.154 34.4,34.654 	"/>
</g>
<g id="hex-load-balancer_x60_50x57">
	<polygon class="st5" points="48.2,42.056 24.6,55.656 1,42.056 1,14.856 24.6,1.156 48.2,14.856 	"/>
	<path class="st6" d="M42.3,28.256"/>
	<line class="st6" x1="45.5" y1="36.356" x2="24.7" y2="23.256"/>
	<line class="st6" x1="44" y1="40.956" x2="24.7" y2="28.756"/>
	<polyline class="st6" points="24.7,17.756 45.5,30.856 45.5,33.456 45.5,40.256 	"/>
	<line class="st6" x1="45.5" y1="30.856" x2="28.8" y2="20.256"/>
	<polyline class="st6" points="45.5,36.356 28.8,25.756 28.8,14.756 45.4,25.256 	"/>
	<polyline class="st6" points="24.6,40.756 45.4,27.556 45.4,16.556 24.6,29.656 	"/>
	<line class="st6" x1="24.8" y1="35.256" x2="34.3" y2="29.256"/>
	<line class="st6" x1="24.8" y1="29.656" x2="34.3" y2="23.756"/>
	<line class="st6" x1="34.3" y1="34.756" x2="24.8" y2="40.756"/>
	<line class="st6" x1="24.7" y1="23.256" x2="34.2" y2="29.256"/>
	<line class="st6" x1="24.7" y1="28.756" x2="34.2" y2="34.756"/>
	<line class="st6" x1="34.2" y1="23.656" x2="24.7" y2="17.756"/>
	<line class="st6" x1="45.4" y1="22.056" x2="24.6" y2="35.256"/>
	<polygon class="st7" points="48.2,42.056 24.6,55.656 1,42.056 1,14.856 24.6,1.156 48.2,14.856 48.2,21.256 48.2,27.256 
		48.2,33.356 	"/>
	<line class="st6" x1="34.2" y1="29.356" x2="45.4" y2="22.256"/>
	<polyline class="st6" points="45.5,33.256 34.2,40.456 34.2,34.956 45.4,27.856 	"/>
	<path class="st6" d="M45.5,33.456"/>
	<path class="st6" d="M6.8,28.256"/>
	<line class="st6" x1="3.6" y1="36.356" x2="24.4" y2="23.256"/>
	<line class="st6" x1="5.2" y1="40.956" x2="24.4" y2="28.756"/>
	<polyline class="st6" points="24.4,17.756 3.6,30.856 3.6,33.456 3.6,40.256 	"/>
	<line class="st6" x1="3.6" y1="30.856" x2="20.4" y2="20.256"/>
	<polyline class="st6" points="3.6,36.356 20.4,25.756 20.4,14.756 3.7,25.256 	"/>
	<polyline class="st6" points="24.6,40.756 3.7,27.556 3.7,16.556 24.6,29.656 	"/>
	<line class="st6" x1="24.3" y1="35.256" x2="14.9" y2="29.256"/>
	<line class="st6" x1="24.3" y1="29.656" x2="14.9" y2="23.756"/>
	<line class="st6" x1="14.9" y1="34.756" x2="24.3" y2="40.756"/>
	<line class="st6" x1="24.4" y1="23.256" x2="15" y2="29.256"/>
	<line class="st6" x1="24.4" y1="28.756" x2="15" y2="34.756"/>
	<line class="st6" x1="15" y1="23.656" x2="24.4" y2="17.756"/>
	<line class="st6" x1="3.7" y1="22.056" x2="24.6" y2="35.256"/>
	<line class="st6" x1="15" y1="29.356" x2="3.7" y2="22.256"/>
	<polyline class="st6" points="3.6,33.256 15,40.456 15,34.956 3.7,27.856 	"/>
	<path class="st6" d="M3.6,33.456"/>
	<path class="st6" d="M3.6,33.456"/>
</g>
<g id="admin-octopus_x60_90x72">
	<polygon class="st8" points="60.078,43.951 43.298,53.64 26.518,43.951 26.518,24.573 43.298,14.886 60.078,24.575 	"/>
	<polyline class="st8" points="60.078,43.951 70.17,49.779 82.867,49.779 	"/>
	<polyline class="st8" points="31.866,40.919 23.737,45.775 23.737,62.382 	"/>
	<polyline class="st8" points="49.985,49.101 49.985,60.385 61.116,66.812 	"/>
	<circle class="st8" cx="85.451" cy="49.779" r="2.583"/>
	<circle class="st8" cx="23.737" cy="64.965" r="2.583"/>
	<circle class="st9" cx="53.568" cy="34.263" r="2.583"/>
	<circle class="st9" cx="33.975" cy="39.43" r="2.583"/>
	<circle class="st9" cx="49.985" cy="49.779" r="2.583"/>
	<circle class="st8" cx="62.776" cy="68.246" r="2.583"/>
	<circle class="st8" cx="41.256" cy="25.734" r="2.583"/>
	<circle class="st8" cx="15.952" cy="10.285" r="2.583"/>
	<polyline class="st8" points="39.262,24.466 29.062,10.347 18.264,10.347 	"/>
	<polyline class="st8" points="80.252,19.56 70.059,34.263 56.152,34.263 	"/>
	<circle class="st9" cx="80.252" cy="19.56" r="2.583"/>
	<polyline class="st8" points="61.164,3.584 61.116,14.062 52.501,20.2 	"/>
	
		<ellipse transform="matrix(0.8233 -0.5676 0.5676 0.8233 8.7737 35.3503)" class="st9" cx="61.164" cy="3.584" rx="2.583" ry="2.583"/>
	<polyline class="st8" points="3.583,36.679 8.61,31.318 26.603,31.318 	"/>
	<circle class="st9" cx="3.583" cy="36.679" r="2.583"/>
</g>
</svg>
