<?xml version="1.0" encoding="iso-8859-1"?>
<!-- Generator: Adobe Illustrator 20.1.0, SVG Export Plug-In . SVG Version: 6.00 Build 0)  -->
<svg version="1.1" id="Layer_1" xmlns="http://www.w3.org/2000/svg" xmlns:xlink="http://www.w3.org/1999/xlink" x="0px" y="0px"
	 viewBox="0 0 200 200" style="enable-background:new 0 0 200 200;" xml:space="preserve">
<style type="text/css">
	.st0{fill:none;stroke:#547F91;stroke-width:1.5;stroke-miterlimit:10;}
	.st1{fill:none;stroke:#547F91;stroke-width:1.5;stroke-miterlimit:10;stroke-dasharray:1.9446,1.9446;}
	.st2{fill:#547F91;}
	.st3{fill:#FFFFFF;}
	.st4{fill:none;stroke:#678C9C;stroke-width:1.5;stroke-miterlimit:10;}
	.st5{fill:#6FCFC9;stroke:#6FCFC9;stroke-width:2;stroke-miterlimit:10;}
	.st6{fill:none;stroke:#358285;stroke-width:1.7038;stroke-linecap:round;stroke-linejoin:round;stroke-miterlimit:10;}
	.st7{fill:none;}
	.st8{fill:none;stroke:#678C9C;stroke-width:2;stroke-miterlimit:10;}
	.st9{fill:#FFFFFF;stroke:#678C9C;stroke-width:2;stroke-miterlimit:10;}
	.st10{fill:none;stroke:#FFFFFF;stroke-width:2;stroke-linejoin:bevel;stroke-miterlimit:10;}
	.st11{fill:#1EB8FF;}
	.st12{fill:none;stroke:#1EB8FF;stroke-miterlimit:10;}
	.st13{opacity:0.03;fill:url(#SVGID_1_);enable-background:new    ;}
	.st14{opacity:0.03;fill:url(#SVGID_2_);enable-background:new    ;}
	.st15{opacity:0.03;fill:url(#SVGID_3_);enable-background:new    ;}
	.st16{opacity:0.03;fill:url(#SVGID_4_);enable-background:new    ;}
	.st17{opacity:0.39;fill:url(#SVGID_5_);enable-background:new    ;}
	.st18{opacity:0.39;fill:url(#SVGID_6_);enable-background:new    ;}
	.st19{opacity:0.72;fill:url(#SVGID_7_);enable-background:new    ;}
	.st20{opacity:0.72;fill:url(#SVGID_8_);enable-background:new    ;}
	.st21{opacity:0.13;fill:url(#SVGID_9_);enable-background:new    ;}
	.st22{fill:#DFDFDF;}
	.st23{fill:#E6E6E6;}
	.st24{fill:#31A6DC;}
	.st25{fill:#0790D1;}
	.st26{fill:#0572A6;}
	.st27{fill:#EAED9D;}
	.st28{fill:#D1D39F;}
	.st29{fill:#FDFFE2;}
	.st30{fill:#2F4757;}
	.st31{fill:#50728A;}
	.st32{fill:#47657A;}
	.st33{fill:#1E2B33;}
	.st34{fill:#19242B;}
	.st35{fill:#1CACEF;}
	.st36{fill:#1583B5;}
	.st37{fill:#75D6FF;}
	.st38{fill:#3AC4FF;}
	.st39{fill:#119CD4;}
	.st40{fill:#029ADB;}
	.st41{fill:none;stroke:#FFFFFF;stroke-width:2;stroke-linecap:round;stroke-miterlimit:10;}
</style>
<g id="nav-stats_x60_17x11">
	<line class="st0" x1="0.75" y1="1.2" x2="0.75" y2="11"/>
	<line class="st0" x1="4.45" y1="3.1" x2="4.45" y2="11"/>
	<line class="st0" x1="8.25" y1="0" x2="8.25" y2="11"/>
	<line class="st0" x1="11.95" y1="2.6" x2="11.95" y2="11"/>
	<line class="st0" x1="15.65" y1="4.4" x2="15.65" y2="11"/>
</g>
<g id="nav-scale_x60_22x15">
	<ellipse transform="matrix(0.9876 -0.1567 0.1567 0.9876 -1.2829 0.9921)" class="st0" cx="5.65" cy="8.632" rx="4.9" ry="4.9"/>
	<g>
		<g>
			<path class="st0" d="M10.153,2.239c0.3-0.2,0.5-0.4,0.8-0.6"/>
			<path class="st1" d="M12.753,0.939c0.1,0,0.3-0.1,0.4-0.1c3.5-0.6,6.9,1.9,7.4,5.4c0.6,3.5-1.8,6.9-5.4,7.4
				c-0.6,0.1-1.1,0.1-1.6,0.1"/>
			<path class="st0" d="M12.653,13.539c-0.3-0.1-0.6-0.2-0.9-0.3"/>
		</g>
	</g>
</g>
<g id="nav-app-component_x60_16x19">
	<polygon class="st0" points="15.15,13.468 7.95,17.568 0.75,13.468 0.75,5.068 7.95,0.868 15.15,5.068 	"/>
	<polygon class="st2" points="4.85,11.568 7.95,6.168 11.05,11.568 	"/>
</g>
<g id="nav-platform-component_x60_19x13">
	<circle class="st0" cx="1.55" cy="6.63" r="0.8"/>
	<circle class="st0" cx="6.45" cy="10.53" r="0.8"/>
	<circle class="st0" cx="6.45" cy="2.73" r="0.8"/>
	<polyline class="st0" points="7.15,10.53 15.75,10.53 17.95,8.43 	"/>
	<polyline class="st0" points="7.15,2.73 15.75,2.73 17.95,0.53 	"/>
	<line class="st0" x1="2.75" y1="6.63" x2="14.75" y2="6.63"/>
</g>
<g id="nav-instance-health_x60_17x17">
	<circle class="st2" cx="8.103" cy="1" r="1"/>
	<circle class="st2" cx="8.103" cy="4.2" r="0.9"/>
	<circle class="st2" cx="8.103" cy="8.2" r="1"/>
	<ellipse transform="matrix(0.704 -0.7102 0.7102 0.704 -0.641 9.273)" class="st2" cx="10.804" cy="5.406" rx="0.9" ry="0.9"/>
	<ellipse transform="matrix(1 -0.0091 0.0091 1 -0.0733 0.1096)" class="st2" cx="12.01" cy="8.105" rx="0.9" ry="0.9"/>
	
		<ellipse transform="matrix(0.6975 -0.7166 0.7166 0.6975 -4.4785 11.0118)" class="st2" cx="10.803" cy="10.81" rx="0.9" ry="0.9"/>
	<ellipse transform="matrix(0.9998 -0.0182 0.0182 0.9998 -0.2152 0.1494)" class="st2" cx="8.098" cy="11.896" rx="0.9" ry="0.9"/>
	<ellipse transform="matrix(0.691 -0.7229 0.7229 0.691 -6.1433 7.2511)" class="st2" cx="5.409" cy="10.811" rx="0.9" ry="0.9"/>
	<ellipse transform="matrix(0.9996 -0.0271 0.0271 0.9996 -0.2179 0.1168)" class="st2" cx="4.198" cy="8.096" rx="0.9" ry="0.9"/>
	<ellipse transform="matrix(0.6848 -0.7287 0.7287 0.6848 -2.2974 5.4876)" class="st2" cx="5.195" cy="5.4" rx="0.9" ry="0.9"/>
	<ellipse transform="matrix(0.4398 -0.8981 0.8981 0.4398 4.7119 11.0545)" class="st2" cx="11.217" cy="1.75" rx="1" ry="1"/>
	<ellipse transform="matrix(0.7901 -0.613 0.613 0.7901 0.6064 9.1794)" class="st2" cx="13.706" cy="3.704" rx="1" ry="1"/>
	<ellipse transform="matrix(0.9792 -0.2031 0.2031 0.9792 -1.0475 3.2082)" class="st2" cx="15.108" cy="6.708" rx="1" ry="1"/>
	<ellipse transform="matrix(0.2483 -0.9687 0.9687 0.2483 1.8357 22.088)" class="st2" cx="15.15" cy="9.861" rx="1" ry="1"/>
	<ellipse transform="matrix(0.6494 -0.7605 0.7605 0.6494 -4.933 14.7374)" class="st2" cx="13.515" cy="12.718" rx="1" ry="1"/>
	<ellipse transform="matrix(0.9177 -0.3973 0.3973 0.9177 -4.9042 5.5343)" class="st2" cx="10.905" cy="14.603" rx="1" ry="1"/>
	<ellipse transform="matrix(0.047 -0.9989 0.9989 0.047 -8.0033 22.0305)" class="st2" cx="7.544" cy="15.21" rx="1" ry="1"/>
	<ellipse transform="matrix(0.4818 -0.8763 0.8763 0.4818 -10.1821 11.4576)" class="st2" cx="4.596" cy="14.338" rx="1" ry="1"/>
	<ellipse transform="matrix(0.8181 -0.575 0.575 0.8181 -6.6066 3.4785)" class="st2" cx="2.196" cy="12.184" rx="1" ry="1"/>
	<ellipse transform="matrix(0.9877 -0.1562 0.1562 0.9877 -1.4241 0.2691)" class="st2" cx="1" cy="9.196" rx="1" ry="1"/>
	<ellipse transform="matrix(0.2942 -0.9557 0.9557 0.2942 -5.0151 5.5209)" class="st2" cx="1.231" cy="6.156" rx="1" ry="1"/>
	<ellipse transform="matrix(0.6846 -0.7289 0.7289 0.6846 -1.4115 3.1217)" class="st2" cx="2.902" cy="3.192" rx="1" ry="1"/>
	<ellipse transform="matrix(0.9354 -0.3535 0.3535 0.9354 -0.1369 2.034)" class="st2" cx="5.499" cy="1.392" rx="1" ry="1"/>
</g>
<g id="corner-bg_x60_614x57">
	<polygon class="st3" points="23.4,57 613.5,57 613.5,0 0,0 0,42.5 	"/>
</g>
<g id="nav-split_x60_20x12">
	<path class="st4" d="M5.65,0.75c-2.7,0-4.9,2.2-4.9,4.9s2.2,4.9,4.9,4.9l0,0c2.5,0,4.4-3,5.4-3.1c1.9-0.2,2,1.6,4.2,1.6l0,0
		c1.9,0,3.4-1.5,3.4-3.4s-1.5-3.4-3.4-3.4l0,0c-2.4,0-2.3,1.8-4.2,1.6C10.05,3.85,8.15,0.75,5.65,0.75L5.65,0.75z"/>
</g>
<g id="nav-admin_x60_24x18">
	<ellipse transform="matrix(0.9413 -0.3375 0.3375 0.9413 -4.0935 4.1722)" class="st4" cx="9.952" cy="13.859" rx="3.1" ry="3.1"/>
	<ellipse transform="matrix(0.9412 -0.3377 0.3377 0.9412 -0.5105 4.7667)" class="st4" cx="13.445" cy="3.851" rx="3.1" ry="3.1"/>
	<ellipse transform="matrix(0.9413 -0.3376 0.3376 0.9413 -1.7142 7.4843)" class="st4" cx="20.662" cy="8.671" rx="1.9" ry="1.9"/>
	<line class="st4" x1="10.959" y1="11.067" x2="12.659" y2="6.767"/>
	<line class="st4" x1="19.259" y1="7.467" x2="16.359" y2="5.667"/>
	<ellipse transform="matrix(0.8869 -0.4619 0.4619 0.8869 -4.0217 2.2821)" class="st4" cx="2.65" cy="9.355" rx="1.9" ry="1.9"/>
	<line class="st4" x1="4.259" y1="10.367" x2="7.359" y2="11.867"/>
</g>
<g id="nav-tunnel_x60_14x12">
	<line class="st0" x1="0" y1="5.935" x2="12.6" y2="5.935"/>
	<polyline class="st0" points="7.4,0.535 12.9,5.935 7.4,11.335 	"/>
</g>
<g id="nav-console_x60_19x12">
	<rect x="0.75" y="0.75" class="st4" width="17.2" height="10.5"/>
	<line class="st4" x1="8.05" y1="7.45" x2="12.05" y2="7.45"/>
	<polyline class="st4" points="3.85,3.35 5.85,5.45 3.85,7.45 	"/>
</g>
<g id="hex-glob-storage_x60_50x57">
	<polygon class="st5" points="48.2,42.054 24.6,55.654 1,42.054 1,14.754 24.6,1.154 48.2,14.754 	"/>
	
		<rect x="15.891" y="19.749" transform="matrix(0.7071 -0.7071 0.7071 0.7071 -12.893 25.6705)" class="st6" width="17.3" height="17.3"/>
	
		<rect x="19.286" y="23.253" transform="matrix(0.7071 -0.7071 0.7071 0.7071 -12.9475 25.6477)" class="st6" width="10.4" height="10.4"/>
	
		<rect x="25.294" y="21.246" transform="matrix(0.707 -0.7072 0.7072 0.707 -10.555 31.2143)" class="st6" width="14.2" height="14.2"/>
	
		<rect x="9.893" y="21.352" transform="matrix(0.7072 -0.707 0.707 0.7072 -15.1401 20.3446)" class="st6" width="14.2" height="14.2"/>
	
		<rect x="37.592" y="24.542" transform="matrix(0.707 -0.7072 0.7072 0.707 -7.9158 37.5768)" class="st6" width="7.6" height="7.6"/>
	
		<rect x="3.801" y="24.647" transform="matrix(0.7071 -0.7071 0.7071 0.7071 -17.889 13.7069)" class="st6" width="7.6" height="7.6"/>
</g>
<g id="hex-router_x60_50x57">
	<polygon class="st5" points="48.2,42.054 24.6,55.654 1,42.054 1,14.754 24.6,1.154 48.2,14.754 	"/>
	<polygon class="st6" points="7.2,40.154 12.6,36.854 37.4,36.854 37.4,30.254 12.6,30.254 7.2,33.554 	"/>
	<polygon class="st6" points="42.3,42.954 38.1,40.154 12.1,40.154 12.1,33.554 38.1,33.554 42.3,36.354 	"/>
	<polygon class="st6" points="43.2,16.254 36.5,20.754 11.8,20.754 11.8,27.354 36.5,27.354 43.2,22.754 	"/>
	<polygon class="st6" points="6.2,14.254 11.1,17.454 37,17.454 37,24.054 11.1,24.054 6.2,20.754 	"/>
	<line class="st6" x1="17.1" y1="17.454" x2="17.1" y2="33.554"/>
	<line class="st6" x1="30.9" y1="20.754" x2="30.9" y2="40.154"/>
	<line class="st6" x1="19.8" y1="20.754" x2="19.8" y2="36.854"/>
	<line class="st6" x1="33.6" y1="24.054" x2="33.6" y2="40.154"/>
	<line class="st6" x1="25.5" y1="24.054" x2="25.5" y2="36.854"/>
	<line class="st6" x1="38.2" y1="22.554" x2="45.2" y2="18.254"/>
	<line class="st6" x1="5" y1="38.154" x2="9.2" y2="35.554"/>
	<line class="st6" x1="39.4" y1="38.054" x2="42.7" y2="40.154"/>
	<line class="st6" x1="5.1" y1="16.854" x2="9.5" y2="19.854"/>
</g>
<g id="hex-health-monitor_x60_50x57">
	<polygon class="st5" points="48.2,42.054 24.6,55.654 1,42.054 1,14.754 24.6,1.154 48.2,14.754 	"/>
	<polygon class="st6" points="7.3,19.354 15.4,14.054 32.7,25.554 24.6,30.854 	"/>
	<polygon class="st6" points="7.3,24.654 15.4,19.354 32.7,30.854 24.6,36.254 	"/>
	<polygon class="st6" points="7.3,30.054 15.4,24.654 32.7,36.254 24.6,41.554 	"/>
	<polygon class="st6" points="41.9,19.354 33.9,14.054 16.6,25.554 24.6,30.854 	"/>
	<line class="st6" x1="41.9" y1="35.154" x2="41.9" y2="19.354"/>
	<polygon class="st6" points="41.9,24.654 33.9,19.354 16.6,30.854 24.6,36.254 	"/>
	<polygon class="st6" points="41.9,30.054 33.9,24.654 16.6,36.254 24.6,41.554 	"/>
	<polygon class="st6" points="7.3,35.354 15.4,30.054 32.7,41.554 24.6,46.954 	"/>
	<polygon class="st6" points="41.9,35.354 33.9,30.054 16.6,41.554 24.6,46.954 	"/>
	<line class="st6" x1="34" y1="24.654" x2="34" y2="14.054"/>
	<line class="st6" x1="7.1" y1="35.354" x2="7.1" y2="19.554"/>
	<line class="st6" x1="15.5" y1="24.654" x2="15.5" y2="14.054"/>
</g>
<g id="hex-logger_x60_50x57">
	<polygon class="st5" points="48.2,42.054 24.6,55.654 1,42.054 1,14.754 24.6,1.154 48.2,14.754 	"/>
	<polygon class="st6" points="15.3,37.854 15.4,22.354 26.9,15.954 26.8,31.454 	"/>
	<polygon class="st6" points="11.5,36.254 11.6,20.754 23,14.354 23,29.854 	"/>
	<polygon class="st6" points="7.7,34.654 7.8,19.154 19.2,12.754 19.2,28.254 	"/>
	<polygon class="st6" points="4,33.054 4,17.554 15.5,11.154 15.4,26.654 	"/>
	<polygon class="st6" points="34.3,45.854 34.5,30.254 45.9,23.954 45.8,39.454 	"/>
	<polygon class="st6" points="30.6,44.254 30.7,28.654 42.2,22.354 42,37.854 	"/>
	<polygon class="st6" points="26.8,42.654 26.8,27.054 38.3,20.754 38.2,36.254 	"/>
	<polygon class="st6" points="23,41.054 23,25.454 34.5,19.154 34.4,34.654 	"/>
</g>
<g id="hex-load-balancer_x60_50x57">
	<polygon class="st5" points="48.2,42.056 24.6,55.656 1,42.056 1,14.856 24.6,1.156 48.2,14.856 	"/>
	<line class="st6" x1="45.5" y1="36.356" x2="24.7" y2="23.256"/>
	<line class="st6" x1="44" y1="40.956" x2="24.7" y2="28.756"/>
	<polyline class="st6" points="24.7,17.756 45.5,30.856 45.5,33.456 45.5,40.256 	"/>
	<line class="st6" x1="45.5" y1="30.856" x2="28.8" y2="20.256"/>
	<polyline class="st6" points="45.5,36.356 28.8,25.756 28.8,14.756 45.4,25.256 	"/>
	<polyline class="st6" points="24.6,40.756 45.4,27.556 45.4,16.556 24.6,29.656 	"/>
	<line class="st6" x1="24.8" y1="35.256" x2="34.3" y2="29.256"/>
	<line class="st6" x1="24.8" y1="29.656" x2="34.3" y2="23.756"/>
	<line class="st6" x1="34.3" y1="34.756" x2="24.8" y2="40.756"/>
	<line class="st6" x1="24.7" y1="23.256" x2="34.2" y2="29.256"/>
	<line class="st6" x1="24.7" y1="28.756" x2="34.2" y2="34.756"/>
	<line class="st6" x1="34.2" y1="23.656" x2="24.7" y2="17.756"/>
	<line class="st6" x1="45.4" y1="22.056" x2="24.6" y2="35.256"/>
	<polygon class="st7" points="48.2,42.056 24.6,55.656 1,42.056 1,14.856 24.6,1.156 48.2,14.856 48.2,21.256 48.2,27.256 
		48.2,33.356 	"/>
	<line class="st6" x1="34.2" y1="29.356" x2="45.4" y2="22.256"/>
	<polyline class="st6" points="45.5,33.256 34.2,40.456 34.2,34.956 45.4,27.856 	"/>
	<line class="st6" x1="3.6" y1="36.356" x2="24.4" y2="23.256"/>
	<line class="st6" x1="5.2" y1="40.956" x2="24.4" y2="28.756"/>
	<polyline class="st6" points="24.4,17.756 3.6,30.856 3.6,33.456 3.6,40.256 	"/>
	<line class="st6" x1="3.6" y1="30.856" x2="20.4" y2="20.256"/>
	<polyline class="st6" points="3.6,36.356 20.4,25.756 20.4,14.756 3.7,25.256 	"/>
	<polyline class="st6" points="24.6,40.756 3.7,27.556 3.7,16.556 24.6,29.656 	"/>
	<line class="st6" x1="24.3" y1="35.256" x2="14.9" y2="29.256"/>
	<line class="st6" x1="24.3" y1="29.656" x2="14.9" y2="23.756"/>
	<line class="st6" x1="14.9" y1="34.756" x2="24.3" y2="40.756"/>
	<line class="st6" x1="24.4" y1="23.256" x2="15" y2="29.256"/>
	<line class="st6" x1="24.4" y1="28.756" x2="15" y2="34.756"/>
	<line class="st6" x1="15" y1="23.656" x2="24.4" y2="17.756"/>
	<line class="st6" x1="3.7" y1="22.056" x2="24.6" y2="35.256"/>
	<line class="st6" x1="15" y1="29.356" x2="3.7" y2="22.256"/>
	<polyline class="st6" points="3.6,33.256 15,40.456 15,34.956 3.7,27.856 	"/>
</g>
<g id="admin-octopus_x60_90x72">
	<polygon class="st8" points="60.1,43.901 43.4,53.601 26.6,43.901 26.6,24.501 43.4,14.901 60.1,24.501 	"/>
	<polyline class="st8" points="60.1,43.901 70.2,49.701 82.9,49.701 	"/>
	<polyline class="st8" points="31.9,40.901 23.8,45.701 23.8,62.301 	"/>
	<polyline class="st8" points="50,49.101 50,60.301 61.2,66.801 	"/>
	<circle class="st8" cx="85.5" cy="49.701" r="2.6"/>
	<circle class="st8" cx="23.8" cy="64.901" r="2.6"/>
	<circle class="st9" cx="53.6" cy="34.201" r="2.6"/>
	<circle class="st9" cx="34" cy="39.401" r="2.6"/>
	<circle class="st9" cx="50" cy="49.701" r="2.6"/>
	<circle class="st8" cx="62.8" cy="68.201" r="2.6"/>
	<circle class="st8" cx="41.3" cy="25.701" r="2.6"/>
	<circle class="st8" cx="16" cy="10.301" r="2.6"/>
	<polyline class="st8" points="39.3,24.401 29.1,10.301 18.3,10.301 	"/>
	<polyline class="st8" points="80.3,19.501 70.1,34.201 56.2,34.201 	"/>
	<circle class="st9" cx="80.3" cy="19.501" r="2.6"/>
	<polyline class="st8" points="61.2,3.501 61.2,14.001 52.6,20.201 	"/>
	<ellipse transform="matrix(0.8233 -0.5676 0.5676 0.8233 8.7709 35.375)" class="st9" cx="61.203" cy="3.6" rx="2.6" ry="2.6"/>
	<polyline class="st8" points="3.6,36.601 8.7,31.301 26.7,31.301 	"/>
	<circle class="st9" cx="3.6" cy="36.601" r="2.6"/>
</g>
<g id="component-silvering_x60_625x75">
	<path class="st10" d="M175.6,72.166H81.9v-15h7.4l0.3,10.3l8.2-15.5H86.4l4-7.3H77.7v27.5h-5.2v-32.9h12.2v-5.6H68.4v38.5h-5.2v-43
		h26.6v10.9H99l-0.4,0.7l-3.7,7h5.1l7.4-14H95.9v-4.7h20.6l-20.6,38h80v-6H162l-1.2,2h-5.9l3.2-6.2h6.3v-6.4h-3.2l2.4-5.1h8.3v-3.3
		H165l2.3-4.8h6.9l3.1,8.4h6.1l-6.1-12.2h-7.4l2.5-4.6h7.1l11.4,21.9h-21.5v6.1h23.3l3.8,7.6h-15v6.7h71.7l10.2-8.5v8.5l10.2-8.5
		v8.5l10.2-8.5v8.5h61.9v-5.5h-56.2v-5.2h75.9v-5.6h-81.8v3.5h-31.2l-2.7-5h28.4v-6h-31.5l-3.1-6.3h34.7v-6.5H240l-3-5.7h41.2v-5.3
		h-51l21.5,40.8h-6.4l-21.6-40.7h-6.4l21.5,40.8h-6.4l-21.5-40.8h-6.4l21.5,40.8h-6.4l-21.5-40.8h-6.4l21.5,40.8h-6.4l-21.5-40.8
		h-12.8l-20.8,39.4h-6.4l20.8-39.4h-5.4l-20.8,39.4h-7.4l20.8-39.4h-5.4l-20.8,39.4h-7.4l20.8-39.4h-5.4l-20.8,39.4h-6.4l20.8-39.4
		h-6.4l-63.6-0.1v6.4l-13.2,7.3l-4.6-2.7l1.4-0.8l12-6.9v-7.8l-5.7-3.3v8.4l-16.7,9.6v2l11.9,6.9l17.7-9.6v5.7l-24.6,13.4v-7.3
		l-11.9-6.9v-6.7l18.2-10.4v-8.2l-5.3-3v8.3l-17.8,10.3v12.4l11.9,6.9v6.1l-16.6-9.6v-19.9l17.8-10.3v-6.9l-23.3,13.3v26.9
		l23.3,13.4l28.7-16.6v28.2h-5.5v-4.7l-10.9,5.7h-4.1l-3.2-2l18.3-10.2v-6.8l-23.3,13.3L1,50.566v-33.8l27.5-15.9l30.4,17.7h224.6
		v30.2h35.8v-5.8h-30.2v-24.4h87.3v4.7h-82v14h30.4v11.1h18.9v-10.3h-6.1v5.6h-7.2v-10.1h-31v-4.8h36.8l4.6,4.6l4.6-4.6l4.6,4.6
		l4.6-4.6l4.6,4.6l4.6-4.6l4.6,4.6l4.6-4.6l4.6,4.6l4.6-4.6l4.6,4.6l4.6-4.6l4.6,4.6l4.6-4.6l4.6,4.6l4.6-4.6l4.6,4.6l4.6-4.6
		l4.6,4.6l4.6-4.6l3.8,3.4l8.9-8.9h-57.7v-4.7H563v16h-5.3v-11.7h-5v11.7h-4.4v-11.7h-5v11.7h-5.2v-11.7h-5v11.7h-5.2v-11.7h-5v11.7
		H484v9.1h-6.1v-5.6h-6.1v5.6h-6.1v-5.6h-6.1v5.6h-6.1v-5.6h-6.1v5.6h-6.1v-7.4l6-5.9l3.9,3.1l4.6-4.6l4.6,4.6l4.6-4.6l4.6,4.6
		l4.6-4.6l4.6,4.6l4.6-4.6h33.1v-5.5h-68.9l-12.4,12.7v7.7h-6.1v-5.6H423v5.6h-6.1v-5.6h-6.1v5.6h-6.1v-5.6h-6.1v5.6h-6.1v-5.6h-6.1
		v5.6h-6.1v-5.6h-6.1v5.6h-6.1v-5.6H362v5.6h-6.1v-5.6h-6.1v10.3h36.6v6.5H373v5.6h13.9v5.2h-34.5v5.5h61.3v-5.5h-21.2v-5.2h14.8
		v-5.6h-14.9v-6.5h73.7v6.5H413v5.6h14.9v5.2h-8.4v5.5h52.9v-5.5h-37.7v-5.2h50.8v-5.6h-13.8v-6.5h20.1v11.8h7.7l2.2-5.2h5.8v10.7
		h-29.7v5.5h145.7v-5.5H606v-5.2h-4.5l-5.6,5.2h-65.7l-4.5-5.2h-5.5v5.2h-7.3v-10.7h15.9l4.5,5.2h56.4l5.6-5.2h6.7
		c5.8,0,10.5-4.7,10.5-10.5c0-1.8-0.4-3.4-1.2-4.9l-3.3,2.4c0.3,0.8,0.5,1.7,0.5,2.6c0,3.6-2.9,6.5-6.5,6.5s-6.5-2.9-6.5-6.5l4,0.1
		c0,1.4,1.1,2.5,2.5,2.5s2.5-1.1,2.5-2.5s-1.1-2.5-2.5-2.5c-0.3,0-0.6,0.1-0.9,0.2l-1.6-3.7c0.7-0.3,1.6-0.5,2.5-0.5
		c1.3,0,2.6,0.4,3.6,1.1l2.3-3.3c-1.7-1.1-3.7-1.8-5.9-1.8c-5.8,0-10.5,4.7-10.5,10.5c0,2.2,0.7,4.2,1.8,5.9h-3l-5.5,5.1h-46.6
		l-4.4-5.1h-36.1v-6.9H491v-4.6h11.8v7.8h5.2v-7.8h5v7.8h5.2v-7.8h5v7.8h5.2v-7.8h5v7.8h5.2v-7.8h5v12.4h4.4v-12.4h5v12.4h5.2v-12.4
		h5v12.4h5.2v-12.4h5v12.4h5.2v-12.4h5v7.8h3.5v-12.3h-19.3v-16h42.3h4.2v10.1l4.6,4.5v-14.4h4.7v41.7h-11.1v-5.1
		c2.7-2.7,4.4-6.4,4.4-10.6c0-8.2-6.6-14.8-14.8-14.8c-3.3,0-6.3,1.1-8.7,2.8l-4-4h-16.3v-5.5h34.1l2.3,2.3"/>
</g>
<g id="cluster-silvering_x60_633x83">
	<polyline class="st10" points="117.692,38.959 134.24,48.512 144.963,42.322 144.963,29.94 134.24,23.749 123.442,29.983 
		134.24,36.131 134.24,28.946 140.463,32.538 140.463,39.723 134.24,43.316 103.794,25.739 79.571,39.723 79.571,67.694 
		103.794,81.679 130.308,66.345 116.767,58.601 103.794,66.09 93.071,59.9 93.071,47.518 103.794,41.327 103.794,46.524 
		97.571,50.116 97.571,57.302 103.794,60.894 112.126,56.084 104.075,51.436 108.189,49.061 116.24,53.709 120.725,51.103 
		107.964,43.659 107.964,38.462 103.794,36.131 88.571,44.92 88.571,62.498 103.794,71.287 116.96,63.685 121.482,66.271 
		103.794,76.483 84.071,65.096 84.071,42.322 103.794,30.935 113.193,36.358 113.193,41.554 134.24,53.709 149.463,44.92 
		149.463,27.342 134.24,18.553 117.328,28.327 114.658,26.786 112.75,25.684 116.767,23.445 134.24,13.357 153.963,24.744 
		153.963,47.518 134.24,58.905 124.964,53.55 120.588,56.22 134.24,64.101 158.41,50.154 158.41,28.354 166.07,24.072 
		179.908,32.113 179.908,62.498 195.131,71.287 211.242,62.119 211.242,46.609 216.617,43.39 216.617,25.54 234.444,15.247 
		241.881,19.553 241.881,25.358 234.036,20.658 230.196,22.875 230.253,55.66 234.33,53.341 234.33,25.491 238.915,28.06 
		238.915,57.144 232.728,60.716 225.929,56.791 225.929,25.4 220.94,28.28 220.94,59.127 232.728,65.932 243.455,59.739 
		243.455,29.937 263.174,18.553 269.396,22.146 293.619,8.16 319.603,23.09 322.977,21.142 381.273,21.142 395.215,29.036 
		412.822,19.045 418.264,19.045 418.264,25.609 424.342,22.077 424.342,28.038 439.919,18.977 630.709,18.977 630.709,32.349 
		445.572,32.349 425.239,44.134 425.725,31.957 441.413,23.328 624.709,23.328 624.709,27.838 443.505,27.838 421.038,40.861 
		421.038,51.104 410.444,57.529 410.444,60.475 427.792,60.475 435.652,55.147 435.652,49.517 449.71,41.369 630.709,41.369 
		630.709,36.859 447.639,36.859 425.545,49.665 425.626,60.475 497.453,60.475 497.453,67.297 513.391,67.297 513.391,63.645 
		503.629,63.645 503.629,59.712 513.04,59.712 513.04,55.147 487.335,55.147 435.652,55.147 435.652,49.517 449.71,41.369 
		630.709,41.369 630.709,45.879 451.385,45.879 443.604,50.389 592.47,50.389 592.47,63.435 587.063,63.435 587.063,55.147 
		572.946,55.147 572.946,59.712 582.638,59.712 582.638,63.645 546.961,63.645 546.961,67.297 573.438,67.297 577.23,67.297 
		597.625,67.297 597.625,50.389 601.642,50.389 601.642,67.297 606.432,67.297 606.432,50.389 611.362,50.389 611.362,67.297 
		616.293,67.297 616.293,50.389 621.223,50.389 621.223,67.297 626.154,67.297 626.154,50.389 631.084,50.389 631.084,67.297 
		631.084,71.16 577.23,71.16 573.438,71.16 536.286,71.16 536.286,67.297 542.185,67.297 542.185,63.645 531.721,63.645 
		531.721,59.712 569.013,59.712 569.013,55.147 517.253,55.147 517.253,59.712 527.718,59.712 527.718,63.645 517.324,63.645 
		517.324,67.297 532.213,67.297 532.213,71.16 492.648,71.16 492.648,65.694 417.958,65.694 409.012,70.936 404.41,67.375 
		395.222,72.68 379.999,63.891 379.999,56.312 375.934,58.644 375.934,66.76 383.775,71.287 363.275,71.287 363.275,42.729 
		369.318,42.729 369.342,53.629 367.015,54.949 367.015,67.729 371.15,67.729 371.15,56.713 376.15,53.429 376.15,34.383 
		354.006,34.383 354.006,71.287 359.249,71.287 359.249,38.424 372.018,38.424 372.018,46.51 384.499,53.72 384.499,61.293 
		395.222,67.484 405.944,61.293 405.944,54.995 416.787,48.421 416.794,37.635 420.465,35.502 420.465,30.293 412.294,35.046 
		412.294,45.729 407.794,48.354 407.794,32.456 413.872,28.924 413.872,23.497 404.108,29.479 404.108,50.846 401.444,52.461 
		401.444,58.695 395.222,62.287 388.999,58.695 388.999,51.128 379.733,45.682 379.731,31.864 392.783,39.3 392.783,54.287 
		395.222,55.695 397.708,54.261 397.708,49.219 400.372,47.604 400.372,31.001 395.212,34.206 380.042,25.617 372.326,30.002 
		367.661,30.002 364.776,30.002 343.413,30.002 335.317,25.328 329.239,28.726 324.065,25.739 293.619,43.316 287.396,39.723 
		287.396,32.538 293.619,28.946 293.619,36.131 304.417,29.983 293.619,23.749 282.896,29.94 282.896,42.322 293.619,48.512 
		310.168,38.959 308.036,34.993 324.065,25.739 348.288,39.723 348.288,67.694 324.065,81.679 297.551,66.345 311.092,58.601 
		324.065,66.09 334.788,59.9 334.788,47.518 324.065,41.327 324.065,46.524 330.288,50.116 330.288,57.302 324.065,60.894 
		315.733,56.084 323.784,51.436 319.67,49.061 311.619,53.709 307.134,51.103 319.895,43.659 319.895,38.462 324.065,36.131 
		339.288,44.92 339.288,62.498 324.065,71.287 310.899,63.685 306.377,66.271 324.065,76.483 343.788,65.096 343.788,42.322 
		324.065,30.935 314.666,36.358 314.666,41.554 293.619,53.709 278.396,44.92 278.396,27.342 293.619,18.553 310.531,28.327 
		313.201,26.786 315.109,25.684 311.092,23.445 293.619,13.357 273.896,24.744 273.896,47.518 293.619,58.905 302.895,53.55 
		307.271,56.22 293.619,64.101 269.449,50.154 269.449,28.354 261.789,24.072 247.951,32.113 247.951,62.498 232.728,71.287 
		216.617,62.119 216.617,46.609 211.242,43.39 211.242,25.54 193.415,15.247 185.978,19.553 185.978,25.358 193.823,20.658 
		197.663,22.875 197.606,55.66 193.529,53.341 193.529,25.491 188.944,28.06 188.944,57.144 195.131,60.716 201.93,56.791 
		201.93,25.4 206.919,28.28 206.919,59.127 195.131,65.932 184.404,59.739 184.404,29.937 164.686,18.553 158.463,22.146 
		134.24,8.16 112.454,20.678 103.985,20.624 91.705,27.402 79.67,21.142 66.209,21.142 66.209,16.708 47.86,6.104 40.649,10.166 
		40.649,5.246 32.665,0.877 23.928,5.915 23.928,28.184 2.687,41.852 2.687,54.096 15.04,61.737 32.899,50.81 52.768,60.347 
		63.959,52.596 63.959,38.635 56.086,44.253 17.787,44.253 17.787,37.635 66.209,37.635 66.209,16.708 47.86,6.11 47.86,6.104 
		40.426,10.166 32.637,5.915 24.845,10.229 17.415,6.11 1,15.458 1,36.385 6.821,39.806 6.821,51.104 17.415,57.529 17.415,64.575 
		33.432,73.975 50.312,64.131 50.376,56.592 58.454,51.104 58.454,39.806 51.646,39.081 51.646,48.167 43.36,53.72 43.36,61.293 
		32.637,67.484 21.915,61.293 21.915,54.995 11.072,48.421 11.065,37.635 4.987,34.104 4.987,17.437 17.415,10.104 25.402,14.719 
		31.5,11.266 63.026,30.002 63.026,37.635 66.209,37.635 66.209,25.328 77.254,25.328 86.891,30.027 74.418,36.92 74.426,65.964 
		68.876,62.911 68.876,34.009 63.083,30.002 61.125,30.002 60.198,30.002 55.533,30.002 47.817,25.617 32.648,34.206 27.487,31.001 
		27.487,47.604 30.151,49.219 30.151,57.261 32.637,58.695 35.076,57.287 35.076,39.3 48.128,31.864 48.126,45.682 38.86,51.128 
		38.86,58.695 32.637,62.287 26.415,58.695 26.415,52.461 23.751,50.846 23.751,29.479 13.987,23.497 13.987,28.924 20.065,32.456 
		20.065,48.354 15.565,45.729 15.565,35.046 9.487,31.514 9.487,20.007 17.464,15.3 32.641,23.867 39.194,20.156 43.737,22.755 
		32.644,29.036 17.514,20.495 	"/>
</g>
<g id="host-silvering_x60_599x55">
	<path class="st10" d="M266.3,34.9H121.7l-17.9-13.7l-31.2,32h7.8l24-24.8l16.2,13.1h137v6.2H117.2l-13.1-11L89.7,53.2h219.5v-5.5
		h-43.4v-6.2h57.1v6.2h-7v5.5h12.9V34.9h-55.1v-6.5H199v-6.2h74.7v-5.4H144.4l-5-4.7h-9.3l5.3,4.4h-8.5l-5.3-4.4h-8.9l12.1,10.1
		h66.8v6.2h-69.3L104,13L64.6,53.2h-8.1l46-46.9h-7.8l-46,46.9H41L87,6.3h-7.8l-46,46.9h-7.8l46-46.9h-7.8l-46,46.9H9.9l46-46.9
		h-9.2l-6.9,5.8h-33v6.6h27.9l-7.1,7.1H6.8v6.8h13.9l-7.6,7.6H6.8v5.2L1,53.1V1h5.8v5.3H38L44,1h64.1v5.3h38.8V1h5.7v10.8H280v16.6
		h5.6V17.1H318V6.3H157.5V1h165.8v20.8h-32.2v6.8h37.8V1h116l-3.2,5.7h19.4l4.5,5.8h-12.5L442.6,33h-7H428l2.1-5.1h7.9l7.9-15.5
		h-7.6l-5.4,9.8h-6.4l-12.9,24.3h-6.4l21.5-39.8h-6.4l-21.5,39.8h-6.4l21.5-39.8h-6.4L388,46.5h-6.4l21.5-39.8h-6.4l-21.6,39.7h-6.4
		l21.5-39.8h-56v5.3h46.2l-3,5.7h-43.2v6.5h39.7l-3.1,6.3h-36.5v6h33.4l-2.7,5h-30.7l0.1,6.3h26.8l-3.1,5.5h77.7v-6.7h-15l4.6-8.9
		h7.7l-2.4,4.3h11v11.3h59l-5.4-7h-46.9c0-2,0.1-4.1,0.1-6.1h42.1l-4.7-6.1h-36.4l3.1-6.1h28.6l-4.7-6.1h-20.7l2.2-4.4h17l-3.9-5
		h8.1l31.6,40.8h9.1l-36-46.5h-15.7L464.1,1h24.5l41.1,52.2h8.2L496.8,1h8.2l41.1,52.2h8.2L513.2,1h8.2l41.1,52.2h8.2L529.6,1h8.2
		L579,53.2h8.2L546.1,1h8.2l41.1,52.2h2.2v-7.4L562.5,1h8.2l26.9,33.6V23.4L579,1h8.2l10.4,11.1V1h-4.2"/>
</g>
<g id="ready-for-deploy_x60_30x30">
	<path class="st11" d="M13.6,20.9c-0.3,0-0.5-0.1-0.7-0.2s-0.4-0.2-0.6-0.4l-3.7-3.8c-0.2-0.2-0.3-0.4-0.4-0.6s-0.1-0.5-0.1-0.7
		s0-0.5,0.1-0.7s0.2-0.4,0.4-0.6c0.2-0.2,0.4-0.3,0.6-0.4s0.5-0.1,0.7-0.1s0.5,0.1,0.7,0.1c0.2,0.1,0.4,0.2,0.6,0.4l2.4,2.4l6-6
		c0.2-0.2,0.4-0.3,0.6-0.4s0.5-0.1,0.7-0.1s0.5,0,0.7,0.1s0.4,0.2,0.6,0.4c0.2,0.2,0.3,0.4,0.4,0.6s0.1,0.5,0.1,0.7
		c0,0.3,0,0.5-0.1,0.7s-0.2,0.4-0.4,0.6l-7.4,7.4c-0.2,0.2-0.4,0.3-0.6,0.4C14.1,20.9,13.8,20.9,13.6,20.9z"/>
	<circle class="st12" cx="14.8" cy="14.8" r="14.3"/>
</g>
<g id="deploy-inst_x60_306x305">
	
		<linearGradient id="SVGID_1_" gradientUnits="userSpaceOnUse" x1="227.9846" y1="-528.3518" x2="368.451" y2="-639.8018" gradientTransform="matrix(0.4515 0.8923 0.8923 -0.4515 512.0216 -341.1749)">
		<stop  offset="0" style="stop-color:#8EA5B3"/>
		<stop  offset="0.7169" style="stop-color:#90A8B6;stop-opacity:0.2831"/>
		<stop  offset="1" style="stop-color:#94ACBA;stop-opacity:0"/>
	</linearGradient>
	<polygon class="st13" points="154.4,304.3 34.7,265 94.8,81.8 214.5,121 	"/>
	
		<linearGradient id="SVGID_2_" gradientUnits="userSpaceOnUse" x1="1129.9043" y1="1254.1001" x2="1270.3706" y2="1142.6503" gradientTransform="matrix(-0.4515 0.8923 -0.8923 -0.4515 1793.9784 -341.1749)">
		<stop  offset="0" style="stop-color:#8EA5B3"/>
		<stop  offset="0.7169" style="stop-color:#90A8B6;stop-opacity:0.2831"/>
		<stop  offset="1" style="stop-color:#94ACBA;stop-opacity:0"/>
	</linearGradient>
	<polygon class="st14" points="153.9,304.3 273.6,265 213.5,81.8 93.8,121 	"/>
	
		<linearGradient id="SVGID_3_" gradientUnits="userSpaceOnUse" x1="891.2799" y1="1224.811" x2="1031.7463" y2="1113.3612" gradientTransform="matrix(-0.2522 0.9677 -0.9677 -0.2522 1573.952 -454.5263)">
		<stop  offset="0" style="stop-color:#8EA5B3"/>
		<stop  offset="0.7169" style="stop-color:#90A8B6;stop-opacity:0.2831"/>
		<stop  offset="1" style="stop-color:#94ACBA;stop-opacity:0"/>
	</linearGradient>
	<polygon class="st15" points="196.4,300.2 305.1,236.5 207.5,70.1 98.8,133.9 	"/>
	
		<linearGradient id="SVGID_4_" gradientUnits="userSpaceOnUse" x1="2007.0387" y1="857.1815" x2="2147.5054" y2="745.7316" gradientTransform="matrix(-0.9757 0.2192 -0.2192 -0.9757 2310.051 504.9402)">
		<stop  offset="0" style="stop-color:#8EA5B3"/>
		<stop  offset="0.7169" style="stop-color:#90A8B6;stop-opacity:0.2831"/>
		<stop  offset="1" style="stop-color:#94ACBA;stop-opacity:0"/>
	</linearGradient>
	<polygon class="st16" points="0,229.6 106.4,297 209.6,134 103.1,66.6 	"/>
	<circle class="st11" cx="156.1" cy="83.4" r="63"/>
	
		<linearGradient id="SVGID_5_" gradientUnits="userSpaceOnUse" x1="183.6" y1="677.0092" x2="183.6" y2="730.8983" gradientTransform="matrix(1 0 0 -1 0 762)">
		<stop  offset="0" style="stop-color:#FFFFFF"/>
		<stop  offset="1" style="stop-color:#FFFFFF;stop-opacity:0"/>
	</linearGradient>
	<polygon class="st17" points="187.6,0 179.6,4.6 179.6,95.6 187.6,91 	"/>
	
		<linearGradient id="SVGID_6_" gradientUnits="userSpaceOnUse" x1="188.7" y1="673.5807" x2="188.7" y2="727.4698" gradientTransform="matrix(1 0 0 -1 0 762)">
		<stop  offset="0" style="stop-color:#FFFFFF"/>
		<stop  offset="1" style="stop-color:#FFFFFF;stop-opacity:0"/>
	</linearGradient>
	<polygon class="st18" points="192.7,3.4 184.7,8 184.7,99 192.7,94.4 	"/>
	
		<linearGradient id="SVGID_7_" gradientUnits="userSpaceOnUse" x1="130.5" y1="682.4218" x2="130.5" y2="727.9211" gradientTransform="matrix(1 0 0 -1 0 762)">
		<stop  offset="0" style="stop-color:#FFFFFF"/>
		<stop  offset="1" style="stop-color:#FFFFFF;stop-opacity:0"/>
	</linearGradient>
	<polygon class="st19" points="134.5,30.1 126.5,34.7 126.5,85.7 134.5,81.1 	"/>
	
		<linearGradient id="SVGID_8_" gradientUnits="userSpaceOnUse" x1="123.4" y1="685.2794" x2="123.4" y2="730.7787" gradientTransform="matrix(1 0 0 -1 0 762)">
		<stop  offset="0" style="stop-color:#FFFFFF"/>
		<stop  offset="1" style="stop-color:#FFFFFF;stop-opacity:0"/>
	</linearGradient>
	<polygon class="st20" points="127.4,27.2 119.4,31.8 119.4,82.9 127.4,78.3 	"/>
	
		<linearGradient id="SVGID_9_" gradientUnits="userSpaceOnUse" x1="1379.8252" y1="675.1529" x2="1379.8252" y2="727.8599" gradientTransform="matrix(-1 0 0 -1 1552.4752 762)">
		<stop  offset="0" style="stop-color:#FFFFFF"/>
		<stop  offset="1" style="stop-color:#FFFFFF;stop-opacity:0"/>
	</linearGradient>
	<polygon class="st21" points="165.7,3.7 179.6,9.4 179.6,97.2 165.7,91.5 	"/>
	<polygon class="st3" points="192.4,107.7 156,127 119.6,107.7 119.6,82.9 156,61.8 192.4,82.9 	"/>
	<polygon class="st3" points="119.6,82.9 156,102.2 192.4,82.9 156,61.8 	"/>
	<polygon class="st3" points="156,102.2 156,127 119.6,107.7 119.6,82.9 	"/>
	<polygon class="st22" points="127.2,82.9 156,99.5 156,66.2 	"/>
	<polygon class="st23" points="156,66.2 156,99.5 184.8,82.9 	"/>
	<polygon class="st3" points="187,83.9 156.4,99.6 125.8,83.9 156.4,68.1 	"/>
	<polygon class="st24" points="156.4,92.9 187,77.1 187,81.7 156.4,97.5 	"/>
	<polygon class="st25" points="156.4,92.9 125.8,77.1 125.8,81.7 156.4,97.5 	"/>
	<polygon class="st26" points="187,77.1 156.4,92.9 125.8,77.1 156.4,61.3 	"/>
	<polygon class="st27" points="156.4,86.8 187,71.1 187,75.7 156.4,91.4 	"/>
	<polygon class="st28" points="156.4,86.8 125.8,71.1 125.8,75.7 156.4,91.4 	"/>
	<polygon class="st29" points="187,71.1 156.4,86.8 125.8,71.1 156.4,55.3 	"/>
	<polygon class="st30" points="186.7,64.9 156.3,80.6 125.8,64.9 156.3,49.2 	"/>
	<polygon class="st31" points="139.2,62.3 133.1,65.5 132.1,64.9 138.1,61.8 	"/>
	<polygon class="st32" points="145.7,61 137.2,65.4 136.1,64.8 144.6,60.4 	"/>
	<polygon class="st32" points="147.6,62 139.1,66.4 138,65.8 146.5,61.4 	"/>
	<polygon class="st32" points="149.5,63 141,67.4 139.9,66.8 148.4,62.4 	"/>
	<polygon class="st31" points="148,66.9 141.9,70 140.9,69.4 146.9,66.3 	"/>
	<polygon class="st32" points="154.5,65.5 145.9,69.9 144.9,69.3 153.4,65 	"/>
	<polygon class="st32" points="156.4,66.5 147.9,70.9 146.8,70.3 155.3,65.9 	"/>
	<polygon class="st32" points="158.3,67.5 149.8,71.9 148.7,71.3 157.2,66.9 	"/>
	<polygon class="st31" points="156.5,71.3 150.4,74.4 149.3,73.8 155.4,70.7 	"/>
	<polygon class="st32" points="162.9,69.9 154.4,74.3 153.3,73.7 161.9,69.3 	"/>
	<polygon class="st32" points="164.9,70.9 156.3,75.3 155.3,74.7 163.8,70.3 	"/>
	<polygon class="st32" points="166.8,71.9 158.3,76.3 157.2,75.7 165.7,71.3 	"/>
	<polygon class="st31" points="152.8,55.4 146.7,58.5 145.7,58 151.7,54.8 	"/>
	<polygon class="st32" points="159.3,54 150.8,58.4 149.7,57.9 158.2,53.5 	"/>
	<polygon class="st32" points="161.2,55 152.7,59.4 151.6,58.9 160.1,54.5 	"/>
	<polygon class="st32" points="163.1,56 154.6,60.4 153.5,59.9 162,55.5 	"/>
	<polygon class="st31" points="161.6,59.9 155.5,63.1 154.5,62.5 160.5,59.4 	"/>
	<polygon class="st32" points="168.1,58.6 159.5,63 158.5,62.4 167,58 	"/>
	<polygon class="st32" points="170,59.6 161.5,64 160.4,63.4 168.9,59 	"/>
	<polygon class="st32" points="171.9,60.6 163.4,65 162.3,64.4 170.8,60 	"/>
	<polygon class="st31" points="170.1,64.3 164,67.4 162.9,66.9 169,63.7 	"/>
	<polygon class="st32" points="176.5,62.9 168,67.3 166.9,66.8 175.5,62.4 	"/>
	<polygon class="st32" points="178.5,63.9 170,68.3 168.9,67.8 177.4,63.4 	"/>
	<polygon class="st32" points="180.4,64.9 171.9,69.3 170.8,68.8 179.3,64.4 	"/>
	<polygon class="st33" points="156.3,80.6 186.7,64.9 186.7,69.5 156.3,85.1 	"/>
	<polygon class="st34" points="156.3,80.6 125.8,64.9 125.8,69.5 156.3,85.1 	"/>
</g>
<g id="deploy-laptop_x60_84x48">
	<g>
		<path class="st35" d="M71.4,38.3V2.6c0-1.4-1.2-2.6-2.6-2.6H14.5c-1.4,0-2.6,1.2-2.6,2.6v35.7"/>
	</g>
	<g>
		<path class="st35" d="M83.7,45.1c0,1.3-1.2,2.4-2.6,2.4H2.6c-1.4,0-2.6-1.1-2.6-2.4s1.2-2.4,2.6-2.4h78.5
			C82.5,42.7,83.7,43.8,83.7,45.1z"/>
	</g>
	<polyline class="st36" points="58.5,16.1 56,13.6 50.3,7.9 44.6,14.2 38.3,7.9 21.8,31.7 28.5,38.2 71.6,38.2 71.6,17.2 62.3,7.9 
		58.5,16.1 	"/>
	<rect x="21.8" y="7.9" class="st3" width="16.5" height="23.8"/>
	<rect x="42.7" y="7.9" class="st3" width="7.6" height="8.3"/>
	<rect x="42.7" y="20.3" class="st3" width="19.3" height="11.4"/>
	<rect x="54.4" y="7.9" class="st3" width="7.6" height="8.3"/>
</g>
<g id="deploy-code_x60_50x69">
	<rect class="st35" width="49.1" height="68.1"/>
	<polygon class="st36" points="48.9,25.6 35.7,12.4 27.7,14.4 30.3,17 29.8,17 25.1,12.4 20.9,12.4 18.3,9.8 6.2,9.8 9.8,13.4 
		9.8,24.2 15.9,30.3 6.2,30.3 6.2,32.4 9.8,36.1 9.8,41.8 15.5,47.5 6.2,47.5 6.2,49.5 9.8,53.2 9.8,58.9 19,68.1 49.1,68 
		49.1,25.7 	"/>
	<rect x="6.2" y="7.7" class="st37" width="12.2" height="2.1"/>
	<rect x="9.8" y="12.4" class="st38" width="15.3" height="2.1"/>
	<rect x="9.8" y="17" class="st38" width="15.3" height="2.1"/>
	<rect x="27.7" y="12.4" class="st3" width="8" height="2.1"/>
	<rect x="27.7" y="17" class="st3" width="3.6" height="2.1"/>
	<rect x="9.8" y="35" class="st38" width="15.3" height="2.1"/>
	<rect x="9.8" y="39.7" class="st38" width="15.3" height="2.1"/>
	<rect x="27.7" y="35" class="st3" width="8" height="2.1"/>
	<rect x="9.8" y="22.1" class="st38" width="15.3" height="2.1"/>
	<rect x="27.7" y="22.1" class="st3" width="8" height="2.1"/>
	<rect x="27.7" y="39.7" class="st3" width="3.6" height="2.1"/>
	<rect x="6.2" y="30.4" class="st37" width="12.2" height="2.1"/>
	<rect x="9.8" y="52.1" class="st38" width="15.3" height="2.1"/>
	<rect x="9.8" y="56.8" class="st38" width="15.3" height="2.1"/>
	<rect x="27.7" y="52.1" class="st3" width="8" height="2.1"/>
	<rect x="27.7" y="56.8" class="st3" width="3.6" height="2.1"/>
	<rect x="6.2" y="47.5" class="st37" width="12.2" height="2.1"/>
</g>
<g id="deploy-app-drip_x60_48x87">
	<polygon class="st35" points="47.5,73.1 23.8,86.8 0,73.1 0,45.7 23.8,32 47.5,45.7 	"/>
	<polyline class="st36" points="7.2,68.9 30.9,82.6 47.5,73.1 47.5,45.7 40.3,41.4 	"/>
	<polygon class="st38" points="40.3,68.9 23.8,78.5 7.2,68.9 7.2,49.8 23.8,40.3 40.3,49.8 	"/>
	<g>
		<path class="st38" d="M40.3,17.8c0-1.6-1.3-3-3-3s-3,1.4-3,3v31.5c0,1.6,1.3,3,3,3s3-1.4,3-3V17.8z"/>
	</g>
	<polyline class="st39" points="33.1,49.5 40.3,53.3 40.3,68.9 30.3,74.7 13.9,65.1 	"/>
	<g>
		<path class="st38" d="M22.3,25.8c0-1.6-1.3-3-3-3c-1.6,0-3,1.4-3,3V44c0,1.6,1.3,3,3,3c1.6,0,3-1.4,3-3V25.8z"/>
	</g>
	<g>
		<path class="st38" d="M13.1,32.1c0-1.6-1.3-3-3-3s-3,1.4-3,3v18.2c0,1.6,1.3,3,3,3s3-1.4,3-3V32.1z"/>
	</g>
	<polyline class="st39" points="17,44.5 24.2,48.3 24.2,57.9 14.2,63.7 	"/>
	<g>
		<path class="st38" d="M31.4,32.1c0-1.6-1.3-3-3-3s-3,1.4-3,3V45c0,1.6,1.3,3,3,3s3-1.4,3-3V32.1z"/>
	</g>
	<polygon class="st3" points="33.7,65.1 23.8,70.8 13.9,65.1 13.9,53.6 23.8,47.9 33.7,53.6 	"/>
	<g>
		<ellipse class="st38" cx="19.3" cy="17.3" rx="3" ry="2.9"/>
	</g>
	<g>
		<path class="st3" d="M18.1,46.4c0-1.2-1-2.2-2.1-2.2s-2.1,1-2.1,2.2v9.9c0,1.2,1,2.2,2.1,2.2s2.1-1,2.1-2.2V46.4z"/>
	</g>
	<g>
		<path class="st38" d="M40.3,3c0-1.6-1.3-3-3-3s-3,1.4-3,3v5.4c0,1.6,1.3,3,3,3s3-1.4,3-3V3z"/>
	</g>
	<g>
		<path class="st3" d="M33.7,51c0-1.2-1-2.2-2.1-2.2s-2.1,1-2.1,2.2v5.3c0,1.2,1,2.2,2.1,2.2s2.1-1,2.1-2.2V51z"/>
	</g>
	<g>
		<path class="st3" d="M26.4,42.4c0-1.2-1-2.2-2.1-2.2s-2.1,1-2.1,2.2v9.3c0,1.2,1,2.2,2.1,2.2s2.1-1,2.1-2.2V42.4z"/>
	</g>
</g>
<g id="admin-refresh_x60_52x52">
	<circle class="st40" cx="25.7" cy="25.7" r="25.7"/>
	<path class="st41" d="M33.1,10.9c5.4,2.7,9.1,8.3,9.1,14.7c0,9.1-7.4,16.5-16.5,16.5S9.2,34.7,9.2,25.6S16.6,9.1,25.7,9.1"/>
	<polyline class="st41" points="33.1,18.4 33.1,10.9 40.5,10.9 	"/>
</g>
<g id="admin-rebuild_x60_52x52">
	<circle class="st40" cx="25.7" cy="25.7" r="25.7"/>
	<line class="st41" x1="16.2" y1="35.6" x2="16.2" y2="39.6"/>
	<line class="st41" x1="16.2" y1="12.1" x2="16.2" y2="29.3"/>
	<line class="st41" x1="21" y1="29.3" x2="21" y2="41.8"/>
	<line class="st41" x1="21" y1="9.8" x2="21" y2="23.6"/>
	<line class="st41" x1="25.7" y1="39.6" x2="25.7" y2="42.5"/>
	<line class="st41" x1="25.7" y1="21.1" x2="25.7" y2="34.5"/>
	<line class="st41" x1="25.7" y1="8.8" x2="25.7" y2="15.3"/>
	<line class="st41" x1="30.5" y1="29.3" x2="30.5" y2="41.8"/>
	<line class="st41" x1="30.5" y1="10.9" x2="30.5" y2="23.6"/>
	<line class="st41" x1="35.3" y1="35.6" x2="35.3" y2="39.6"/>
	<line class="st41" x1="35.3" y1="13.6" x2="35.3" y2="29.3"/>
</g>
<g id="admin-reboot_x60_52x52">
	<circle class="st40" cx="25.7" cy="25.7" r="25.7"/>
	<line class="st41" x1="25.7" y1="18.4" x2="25.7" y2="4.1"/>
	<path class="st41" d="M19.3,10.5c-5.9,2.5-10,8.4-10,15.2c0,9.1,7.4,16.5,16.5,16.5s16.5-7.4,16.5-16.5c0-6.8-4.1-12.7-10-15.2"/>
</g>
<g id="admin-delete_x60_52x52">
	<circle class="st40" cx="25.7" cy="25.7" r="25.7"/>
	<line class="st41" x1="14.1" y1="14" x2="37.5" y2="37.4"/>
	<line class="st41" x1="37.5" y1="14" x2="14.1" y2="37.4"/>
</g>
<g id="admin-manage_x60_52x52">
	<circle class="st40" cx="25.7" cy="25.7" r="25.7"/>
	<polygon class="st41" points="13.6,18.7 25.7,11.6 37.9,18.7 37.9,32.7 25.7,39.7 13.6,32.7 	"/>
	<polyline class="st41" points="13.6,32.7 25.7,25.7 25.7,11.6 	"/>
	<line class="st41" x1="25.7" y1="17.3" x2="37.9" y2="24.3"/>
	<line class="st41" x1="31.8" y1="21" x2="31.8" y2="35"/>
	<line class="st41" x1="19.5" y1="36.2" x2="31.6" y2="29.2"/>
	<line class="st41" x1="13.6" y1="24.3" x2="25.7" y2="17.3"/>
</g>
<g id="admin-update_x60_52x52">
	<circle class="st40" cx="25.7" cy="25.7" r="25.7"/>
	<line class="st41" x1="15.3" y1="25.7" x2="35.3" y2="25.7"/>
	<polyline class="st41" points="28.9,19.4 35.3,25.7 28.9,32.1 	"/>
</g>
</svg>
