<?xml version="1.0" encoding="iso-8859-1"?>
<!-- Generator: Adobe Illustrator 19.2.1, SVG Export Plug-In . SVG Version: 6.00 Build 0)  -->
<svg version="1.1" id="Layer_1" xmlns="http://www.w3.org/2000/svg" xmlns:xlink="http://www.w3.org/1999/xlink" x="0px" y="0px"
	 viewBox="0 0 200 200" style="enable-background:new 0 0 200 200;" xml:space="preserve">
<style type="text/css">
	.st0{fill:none;stroke:#547F91;stroke-width:1.5;stroke-miterlimit:10;}
	.st1{fill:none;stroke:#547F91;stroke-width:1.5;stroke-miterlimit:10;stroke-dasharray:1.9446,1.9446;}
	.st2{fill:#547F91;}
	.st3{fill:#FFFFFF;}
	.st4{fill:none;stroke:#678C9C;stroke-width:1.5;stroke-miterlimit:10;}
	.st5{fill:#6FCFC9;stroke:#6FCFC9;stroke-width:2;stroke-miterlimit:10;}
	.st6{fill:none;stroke:#358285;stroke-width:1.7038;stroke-linecap:round;stroke-linejoin:round;stroke-miterlimit:10;}
	.st7{fill:none;}
	.st8{fill:none;stroke:#678C9C;stroke-width:2;stroke-miterlimit:10;}
	.st9{fill:#FFFFFF;stroke:#678C9C;stroke-width:2;stroke-miterlimit:10;}
	.st10{fill:none;stroke:#FFFFFF;stroke-width:2;stroke-linejoin:bevel;stroke-miterlimit:10;}
</style>
<g id="nav-stats_x60_17x11">
	<line class="st0" x1="0.75" y1="1.2" x2="0.75" y2="11"/>
	<line class="st0" x1="4.45" y1="3.1" x2="4.45" y2="11"/>
	<line class="st0" x1="8.25" y1="0" x2="8.25" y2="11"/>
	<line class="st0" x1="11.95" y1="2.6" x2="11.95" y2="11"/>
	<line class="st0" x1="15.65" y1="4.4" x2="15.65" y2="11"/>
</g>
<g id="nav-scale_x60_22x15">
	<ellipse transform="matrix(0.9876 -0.1567 0.1567 0.9876 -1.283 0.9921)" class="st0" cx="5.65" cy="8.633" rx="4.9" ry="4.9"/>
	<g>
		<g>
			<path class="st0" d="M10.155,2.239c0.3-0.2,0.5-0.4,0.8-0.6"/>
			<path class="st1" d="M12.755,0.939c0.1,0,0.3-0.1,0.4-0.1c3.5-0.6,6.9,1.9,7.4,5.4c0.6,3.5-1.8,6.9-5.4,7.4
				c-0.6,0.1-1.1,0.1-1.6,0.1"/>
			<path class="st0" d="M12.655,13.539c-0.3-0.1-0.6-0.2-0.9-0.3"/>
		</g>
	</g>
</g>
<g id="nav-app-component_x60_16x19">
	<polygon class="st0" points="15.15,13.468 7.95,17.568 0.75,13.468 0.75,5.068 7.95,0.868 15.15,5.068 	"/>
	<polygon class="st2" points="4.85,11.568 7.95,6.168 11.05,11.568 	"/>
</g>
<g id="nav-platform-component_x60_19x13">
	<circle class="st0" cx="1.55" cy="6.63" r="0.8"/>
	<circle class="st0" cx="6.45" cy="10.53" r="0.8"/>
	<circle class="st0" cx="6.45" cy="2.73" r="0.8"/>
	<polyline class="st0" points="7.15,10.53 15.75,10.53 17.95,8.43 	"/>
	<polyline class="st0" points="7.15,2.73 15.75,2.73 17.95,0.53 	"/>
	<line class="st0" x1="2.75" y1="6.63" x2="14.75" y2="6.63"/>
</g>
<g id="nav-instance-health_x60_17x17">
	<circle class="st2" cx="8.104" cy="1" r="1"/>
	<circle class="st2" cx="8.104" cy="4.2" r="0.9"/>
	<circle class="st2" cx="8.104" cy="8.2" r="1"/>
	<ellipse transform="matrix(0.704 -0.7102 0.7102 0.704 -0.6531 9.2732)" class="st2" cx="10.798" cy="5.42" rx="0.9" ry="0.9"/>
	<ellipse transform="matrix(1 -0.0091 0.0091 1 -0.0733 0.1096)" class="st2" cx="12.012" cy="8.105" rx="0.9" ry="0.9"/>
	
		<ellipse transform="matrix(0.6975 -0.7166 0.7166 0.6975 -4.483 11.0044)" class="st2" cx="10.792" cy="10.812" rx="0.9" ry="0.9"/>
	<ellipse transform="matrix(0.9998 -0.0182 0.0182 0.9998 -0.2152 0.1494)" class="st2" cx="8.098" cy="11.896" rx="0.9" ry="0.9"/>
	<ellipse transform="matrix(0.691 -0.7229 0.7229 0.691 -6.125 7.245)" class="st2" cx="5.411" cy="10.786" rx="0.9" ry="0.9"/>
	<ellipse transform="matrix(0.9996 -0.0271 0.0271 0.9996 -0.2179 0.1168)" class="st2" cx="4.199" cy="8.096" rx="0.9" ry="0.9"/>
	<ellipse transform="matrix(0.6848 -0.7287 0.7287 0.6848 -2.3195 5.4847)" class="st2" cx="5.181" cy="5.424" rx="0.9" ry="0.9"/>
	<ellipse transform="matrix(0.4398 -0.8981 0.8981 0.4398 4.7136 10.9994)" class="st2" cx="11.174" cy="1.721" rx="1" ry="1"/>
	<ellipse transform="matrix(0.7901 -0.613 0.613 0.7901 0.616 9.1772)" class="st2" cx="13.708" cy="3.689" rx="1" ry="1"/>
	<ellipse transform="matrix(0.9792 -0.2031 0.2031 0.9792 -1.0472 3.2087)" class="st2" cx="15.111" cy="6.707" rx="1" ry="1"/>
	<ellipse transform="matrix(0.2483 -0.9687 0.9687 0.2483 1.8062 22.0134)" class="st2" cx="15.087" cy="9.843" rx="1" ry="1"/>
	<ellipse transform="matrix(0.6494 -0.7605 0.7605 0.6494 -4.9198 14.731)" class="st2" cx="13.515" cy="12.701" rx="1" ry="1"/>
	<ellipse transform="matrix(0.9177 -0.3973 0.3973 0.9177 -4.9034 5.5355)" class="st2" cx="10.908" cy="14.602" rx="1" ry="1"/>
	<ellipse transform="matrix(0.047 -0.9989 0.9989 0.047 -7.9235 22.1793)" class="st2" cx="7.662" cy="15.242" rx="1" ry="1"/>
	<ellipse transform="matrix(0.4818 -0.8763 0.8763 0.4818 -10.1607 11.4237)" class="st2" cx="4.578" cy="14.303" rx="1" ry="1"/>
	<ellipse transform="matrix(0.8181 -0.575 0.575 0.8181 -6.6145 3.478)" class="st2" cx="2.191" cy="12.196" rx="1" ry="1"/>
	<ellipse transform="matrix(0.9877 -0.1562 0.1562 0.9877 -1.4242 0.2691)" class="st2" cx="1" cy="9.196" rx="1" ry="1"/>
	<ellipse transform="matrix(0.2942 -0.9557 0.9557 0.2942 -4.9288 5.4506)" class="st2" cx="1.226" cy="6.062" rx="1" ry="1"/>
	<ellipse transform="matrix(0.6846 -0.7289 0.7289 0.6846 -1.4135 3.1293)" class="st2" cx="2.909" cy="3.198" rx="1" ry="1"/>
	<ellipse transform="matrix(0.9354 -0.3535 0.3535 0.9354 -0.1371 2.0333)" class="st2" cx="5.497" cy="1.392" rx="1" ry="1"/>
</g>
<g id="corner-bg_x60_614x57">
	<polygon class="st3" points="23.4,57 613.5,57 613.5,0 0,0 0,42.5 	"/>
</g>
<g id="nav-split_x60_20x12">
	<path class="st4" d="M5.65,0.75c-2.7,0-4.9,2.2-4.9,4.9s2.2,4.9,4.9,4.9l0,0c2.5,0,4.4-3,5.4-3.1c1.9-0.2,2,1.6,4.2,1.6l0,0
		c1.9,0,3.4-1.5,3.4-3.4s-1.5-3.4-3.4-3.4l0,0c-2.4,0-2.3,1.8-4.2,1.6C10.05,3.85,8.15,0.75,5.65,0.75L5.65,0.75z"/>
</g>
<g id="nav-admin_x60_24x18">
	<ellipse transform="matrix(0.9413 -0.3375 0.3375 0.9413 -4.092 4.1722)" class="st4" cx="9.953" cy="13.855" rx="3.1" ry="3.1"/>
	<ellipse transform="matrix(0.9412 -0.3377 0.3377 0.9412 -0.5106 4.7663)" class="st4" cx="13.444" cy="3.851" rx="3.1" ry="3.1"/>
	<ellipse transform="matrix(0.9413 -0.3376 0.3376 0.9413 -1.7115 7.4847)" class="st4" cx="20.664" cy="8.663" rx="1.9" ry="1.9"/>
	<line class="st4" x1="10.959" y1="11.062" x2="12.659" y2="6.762"/>
	<line class="st4" x1="19.259" y1="7.462" x2="16.359" y2="5.662"/>
	<ellipse transform="matrix(0.8869 -0.4619 0.4619 0.8869 -4.0213 2.282)" class="st4" cx="2.65" cy="9.354" rx="1.9" ry="1.9"/>
	<line class="st4" x1="4.259" y1="10.362" x2="7.359" y2="11.862"/>
</g>
<g id="nav-console_x60_19x12">
	<rect x="0.75" y="0.75" class="st4" width="17.2" height="10.5"/>
	<line class="st4" x1="8.05" y1="7.45" x2="12.05" y2="7.45"/>
	<polyline class="st4" points="3.85,3.35 5.85,5.45 3.85,7.45 	"/>
</g>
<g id="hex-glob-storage_x60_50x57">
	<polygon class="st5" points="48.2,42.054 24.6,55.654 1,42.054 1,14.754 24.6,1.154 48.2,14.754 	"/>
	
		<rect x="15.89" y="19.746" transform="matrix(0.7071 -0.7071 0.7071 0.7071 -12.8913 25.6697)" class="st6" width="17.3" height="17.3"/>
	
		<rect x="19.265" y="23.254" transform="matrix(0.7071 -0.7071 0.7071 0.7071 -12.9545 25.6337)" class="st6" width="10.4" height="10.4"/>
	
		<rect x="25.307" y="21.241" transform="matrix(0.707 -0.7072 0.7072 0.707 -10.5478 31.2221)" class="st6" width="14.2" height="14.2"/>
	
		<rect x="9.893" y="21.358" transform="matrix(0.7072 -0.707 0.707 0.7072 -15.1443 20.346)" class="st6" width="14.2" height="14.2"/>
	
		<rect x="37.605" y="24.53" transform="matrix(0.707 -0.7072 0.7072 0.707 -7.9039 37.5824)" class="st6" width="7.6" height="7.6"/>
	
		<rect x="3.828" y="24.656" transform="matrix(0.7071 -0.7071 0.7071 0.7071 -17.8875 13.7283)" class="st6" width="7.6" height="7.6"/>
</g>
<g id="hex-router_x60_50x57">
	<polygon class="st5" points="48.2,42.054 24.6,55.654 1,42.054 1,14.754 24.6,1.154 48.2,14.754 	"/>
	<polygon class="st6" points="7.2,40.154 12.6,36.854 37.4,36.854 37.4,30.254 12.6,30.254 7.2,33.554 	"/>
	<polygon class="st6" points="42.3,42.954 38.1,40.154 12.1,40.154 12.1,33.554 38.1,33.554 42.3,36.354 	"/>
	<polygon class="st6" points="43.2,16.254 36.5,20.754 11.8,20.754 11.8,27.354 36.5,27.354 43.2,22.754 	"/>
	<polygon class="st6" points="6.2,14.254 11.1,17.454 37,17.454 37,24.054 11.1,24.054 6.2,20.754 	"/>
	<line class="st6" x1="17.1" y1="17.454" x2="17.1" y2="33.554"/>
	<line class="st6" x1="30.9" y1="20.754" x2="30.9" y2="40.154"/>
	<line class="st6" x1="19.8" y1="20.754" x2="19.8" y2="36.854"/>
	<line class="st6" x1="33.6" y1="24.054" x2="33.6" y2="40.154"/>
	<line class="st6" x1="25.5" y1="24.054" x2="25.5" y2="36.854"/>
	<line class="st6" x1="38.2" y1="22.554" x2="45.2" y2="18.254"/>
	<line class="st6" x1="5" y1="38.154" x2="9.2" y2="35.554"/>
	<line class="st6" x1="39.4" y1="38.054" x2="42.7" y2="40.154"/>
	<line class="st6" x1="5.1" y1="16.854" x2="9.5" y2="19.854"/>
</g>
<g id="hex-health-monitor_x60_50x57">
	<polygon class="st5" points="48.2,42.054 24.6,55.654 1,42.054 1,14.754 24.6,1.154 48.2,14.754 	"/>
	<polygon class="st6" points="7.3,19.354 15.4,14.054 32.7,25.554 24.6,30.854 	"/>
	<polygon class="st6" points="7.3,24.654 15.4,19.354 32.7,30.854 24.6,36.254 	"/>
	<polygon class="st6" points="7.3,30.054 15.4,24.654 32.7,36.254 24.6,41.554 	"/>
	<polygon class="st6" points="41.9,19.354 33.9,14.054 16.6,25.554 24.6,30.854 	"/>
	<line class="st6" x1="41.9" y1="35.154" x2="41.9" y2="19.354"/>
	<polygon class="st6" points="41.9,24.654 33.9,19.354 16.6,30.854 24.6,36.254 	"/>
	<polygon class="st6" points="41.9,30.054 33.9,24.654 16.6,36.254 24.6,41.554 	"/>
	<polygon class="st6" points="7.3,35.354 15.4,30.054 32.7,41.554 24.6,46.954 	"/>
	<polygon class="st6" points="41.9,35.354 33.9,30.054 16.6,41.554 24.6,46.954 	"/>
	<line class="st6" x1="34" y1="24.654" x2="34" y2="14.054"/>
	<line class="st6" x1="7.1" y1="35.354" x2="7.1" y2="19.554"/>
	<line class="st6" x1="15.5" y1="24.654" x2="15.5" y2="14.054"/>
</g>
<g id="hex-logger_x60_50x57">
	<polygon class="st5" points="48.2,42.054 24.6,55.654 1,42.054 1,14.754 24.6,1.154 48.2,14.754 	"/>
	<polygon class="st6" points="15.3,37.854 15.4,22.354 26.9,15.954 26.8,31.454 	"/>
	<polygon class="st6" points="11.5,36.254 11.6,20.754 23,14.354 23,29.854 	"/>
	<polygon class="st6" points="7.7,34.654 7.8,19.154 19.2,12.754 19.2,28.254 	"/>
	<polygon class="st6" points="4,33.054 4,17.554 15.5,11.154 15.4,26.654 	"/>
	<polygon class="st6" points="34.3,45.854 34.5,30.254 45.9,23.954 45.8,39.454 	"/>
	<polygon class="st6" points="30.6,44.254 30.7,28.654 42.2,22.354 42,37.854 	"/>
	<polygon class="st6" points="26.8,42.654 26.8,27.054 38.3,20.754 38.2,36.254 	"/>
	<polygon class="st6" points="23,41.054 23,25.454 34.5,19.154 34.4,34.654 	"/>
</g>
<g id="hex-load-balancer_x60_50x57">
	<polygon class="st5" points="48.2,42.056 24.6,55.656 1,42.056 1,14.856 24.6,1.156 48.2,14.856 	"/>
	<path class="st6" d="M42.3,28.256"/>
	<line class="st6" x1="45.5" y1="36.356" x2="24.7" y2="23.256"/>
	<line class="st6" x1="44" y1="40.956" x2="24.7" y2="28.756"/>
	<polyline class="st6" points="24.7,17.756 45.5,30.856 45.5,33.456 45.5,40.256 	"/>
	<line class="st6" x1="45.5" y1="30.856" x2="28.8" y2="20.256"/>
	<polyline class="st6" points="45.5,36.356 28.8,25.756 28.8,14.756 45.4,25.256 	"/>
	<polyline class="st6" points="24.6,40.756 45.4,27.556 45.4,16.556 24.6,29.656 	"/>
	<line class="st6" x1="24.8" y1="35.256" x2="34.3" y2="29.256"/>
	<line class="st6" x1="24.8" y1="29.656" x2="34.3" y2="23.756"/>
	<line class="st6" x1="34.3" y1="34.756" x2="24.8" y2="40.756"/>
	<line class="st6" x1="24.7" y1="23.256" x2="34.2" y2="29.256"/>
	<line class="st6" x1="24.7" y1="28.756" x2="34.2" y2="34.756"/>
	<line class="st6" x1="34.2" y1="23.656" x2="24.7" y2="17.756"/>
	<line class="st6" x1="45.4" y1="22.056" x2="24.6" y2="35.256"/>
	<polygon class="st7" points="48.2,42.056 24.6,55.656 1,42.056 1,14.856 24.6,1.156 48.2,14.856 48.2,21.256 48.2,27.256 
		48.2,33.356 	"/>
	<line class="st6" x1="34.2" y1="29.356" x2="45.4" y2="22.256"/>
	<polyline class="st6" points="45.5,33.256 34.2,40.456 34.2,34.956 45.4,27.856 	"/>
	<path class="st6" d="M45.5,33.456"/>
	<path class="st6" d="M6.8,28.256"/>
	<line class="st6" x1="3.6" y1="36.356" x2="24.4" y2="23.256"/>
	<line class="st6" x1="5.2" y1="40.956" x2="24.4" y2="28.756"/>
	<polyline class="st6" points="24.4,17.756 3.6,30.856 3.6,33.456 3.6,40.256 	"/>
	<line class="st6" x1="3.6" y1="30.856" x2="20.4" y2="20.256"/>
	<polyline class="st6" points="3.6,36.356 20.4,25.756 20.4,14.756 3.7,25.256 	"/>
	<polyline class="st6" points="24.6,40.756 3.7,27.556 3.7,16.556 24.6,29.656 	"/>
	<line class="st6" x1="24.3" y1="35.256" x2="14.9" y2="29.256"/>
	<line class="st6" x1="24.3" y1="29.656" x2="14.9" y2="23.756"/>
	<line class="st6" x1="14.9" y1="34.756" x2="24.3" y2="40.756"/>
	<line class="st6" x1="24.4" y1="23.256" x2="15" y2="29.256"/>
	<line class="st6" x1="24.4" y1="28.756" x2="15" y2="34.756"/>
	<line class="st6" x1="15" y1="23.656" x2="24.4" y2="17.756"/>
	<line class="st6" x1="3.7" y1="22.056" x2="24.6" y2="35.256"/>
	<line class="st6" x1="15" y1="29.356" x2="3.7" y2="22.256"/>
	<polyline class="st6" points="3.6,33.256 15,40.456 15,34.956 3.7,27.856 	"/>
	<path class="st6" d="M3.6,33.456"/>
	<path class="st6" d="M3.6,33.456"/>
</g>
<g id="admin-octopus_x60_90x72">
	<polygon class="st8" points="60.1,43.897 43.4,53.597 26.6,43.897 26.6,24.497 43.4,14.897 60.1,24.497 	"/>
	<polyline class="st8" points="60.1,43.897 70.2,49.697 82.9,49.697 	"/>
	<polyline class="st8" points="31.9,40.897 23.8,45.697 23.8,62.297 	"/>
	<polyline class="st8" points="50,49.097 50,60.297 61.2,66.797 	"/>
	<circle class="st8" cx="85.5" cy="49.697" r="2.6"/>
	<circle class="st8" cx="23.8" cy="64.897" r="2.6"/>
	<circle class="st9" cx="53.6" cy="34.197" r="2.6"/>
	<circle class="st9" cx="34" cy="39.397" r="2.6"/>
	<circle class="st9" cx="50" cy="49.697" r="2.6"/>
	<circle class="st8" cx="62.8" cy="68.197" r="2.6"/>
	<circle class="st8" cx="41.3" cy="25.697" r="2.6"/>
	<circle class="st8" cx="16" cy="10.297" r="2.6"/>
	<polyline class="st8" points="39.3,24.397 29.1,10.297 18.3,10.297 	"/>
	<polyline class="st8" points="80.3,19.497 70.1,34.197 56.2,34.197 	"/>
	<circle class="st9" cx="80.3" cy="19.497" r="2.6"/>
	<polyline class="st8" points="61.2,3.497 61.2,13.997 52.6,20.197 	"/>
	<ellipse transform="matrix(0.8233 -0.5676 0.5676 0.8233 8.7759 35.3912)" class="st9" cx="61.231" cy="3.6" rx="2.6" ry="2.6"/>
	<polyline class="st8" points="3.6,36.597 8.7,31.297 26.7,31.297 	"/>
	<circle class="st9" cx="3.6" cy="36.597" r="2.6"/>
</g>
<g id="component-silvering_x60_629x75">
	<path class="st10" d="M175.6,72.166H81.9v-15h7.4l0.3,10.3l8.2-15.5H86.4l4-7.3H77.7v27.5h-5.2v-32.9h12.2v-5.6H68.4v38.5h-5.2v-43
		h26.6v10.9H99l-0.4,0.7l-3.7,7h5.1l7.4-14H95.9v-4.7h20.6l-20.6,38h80v-6H162l-1.2,2h-5.9l3.2-6.2h6.3v-6.4h-3.2l2.4-5.1h8.3v-3.3
		H165l2.3-4.8h6.9l3.1,8.4h6.1l-6.1-12.2h-7.4l2.5-4.6h7.1l11.4,21.9h-21.5v6.1h23.3l3.8,7.6h-15v6.7h76.7v-8.3h5.8v8.3l6-8.5v8.5
		l6-8.5v8.5l6-8.5v8.5h68.82v-5.5H294.5v-5.2h75.94v-5.6H288.6v3.5h-36.2l-2.7-5h33.4v-6h-36.5l-3.1-6.3h39.7v-6.5H240l-3-5.7h46.2
		v-5.3h-56l21.5,40.8h-6.4l-21.6-40.7h-6.4l21.5,40.8h-6.4l-21.5-40.8h-6.4l21.5,40.8h-6.4l-21.5-40.8h-6.4l21.5,40.8h-6.4
		l-21.5-40.8h-12.8l-20.8,39.4h-6.4l20.8-39.4h-5.4l-20.8,39.4h-7.4l20.8-39.4h-5.4l-20.8,39.4h-7.4l20.8-39.4h-5.4l-20.8,39.4h-6.4
		l20.8-39.4h-6.4l-63.6-0.1v6.4l-13.2,7.3l-4.6-2.7l1.4-0.8l12-6.9v-7.8l-5.7-3.3v8.4l-16.7,9.6v2l11.9,6.9l17.7-9.6v5.7l-24.6,13.4
		v-7.3l-11.9-6.9v-6.7l18.2-10.4v-8.2l-5.3-3v8.3l-17.8,10.3v12.4l11.9,6.9v6.1l-16.6-9.6v-19.9l17.8-10.3v-6.9l-23.3,13.3v26.9
		l23.3,13.4l28.7-16.6v28.2h-5.5v-4.7l-10.9,5.7h-4.1l-3.2-2l18.3-10.2v-6.8l-23.3,13.3L1,50.566v-33.8l27.5-15.9l30.4,17.7h229.6
		v30.2h35.8v-5.8h-30.2v-24.4h87.27v4.7H299.4v14h30.4v11.1h18.9v-10.3h-6.1v5.6h-7.2v-10.1h-31v-4.8h36.8l4.6,4.6l4.6-4.6l4.6,4.6
		l4.6-4.6l4.6,4.6l4.6-4.6l4.6,4.6l4.6-4.6l4.6,4.6l4.6-4.6l4.6,4.6l4.6-4.6l4.6,4.6l4.6-4.6l4.6,4.6l4.6-4.6l4.6,4.6l4.6-4.6
		l4.6,4.6l4.58-4.6l3.75,3.45l8.94-8.95h-57.73v-4.7h179.78v16h-5.2v-11.71h-5v11.71h-4.4v-11.71h-5v11.71h-5.2v-11.71h-5v11.71
		h-5.2v-11.71h-5v11.71H489v9.1h-6.1v-5.6h-6.1v5.6h-6.1v-5.6h-6.1v5.6h-6.1v-5.6h-6.1v5.6h-6.14v-7.42l6.05-5.93l3.89,3.05l4.6-4.6
		l4.6,4.6l4.6-4.6l4.6,4.6l4.6-4.6l4.6,4.6l4.6-4.6h33.11v-5.5h-68.89l-12.42,12.67v7.73h-6.1v-5.6H428v5.6h-6.1v-5.6h-6.1v5.6h-6.1
		v-5.6h-6.1v5.6h-6.1v-5.6h-6.1v5.6h-6.1v-5.6h-6.1v5.6h-6.1v-5.6H367v5.6h-6.1v-5.6h-6.1l-0.03,10.3h36.63v6.5h-13.39v5.6h13.86
		v5.2h-34.49v5.5h61.35v-5.5h-21.2v-5.2h14.82v-5.6H397.5v-6.5h73.68v6.5H418.1v5.6h14.95v5.2h-8.45v5.5h64.9v-5.5h-49.72v-5.2
		h49.82v-5.6h-12.75l0-6.5H498v6.6h109.2c5.8,0,10.5-4.7,10.5-10.5c0-1.8-0.4-3.4-1.2-4.9l-3.3,2.4c0.3,0.8,0.5,1.7,0.5,2.6
		c0,3.6-2.9,6.5-6.5,6.5c-3.6,0-6.5-2.9-6.5-6.5c0-1.2,0.3-2.3,0.9-3.3l3.3,2.3c-0.1,0.4-0.2,0.7-0.2,1.1c0,1.4,1.1,2.5,2.5,2.5
		c1.4,0,2.5-1.1,2.5-2.5c0-1.4-1.1-2.5-2.5-2.5c-0.3,0-0.6,0.1-0.9,0.2l-1.6-3.7c0.7-0.3,1.6-0.5,2.5-0.5c1.3,0,2.6,0.4,3.6,1.1
		l2.3-3.3c-1.7-1.1-3.7-1.8-5.9-1.8c-5.8,0-10.5,4.7-10.5,10.5c0,2.2,0.7,4.2,1.8,5.9h-95.7v-6.9h-6.7v-4.6h11.8v7.8h5.2v-7.8h5v7.8
		h5.2v-7.8h5v7.8h5.2v-7.8h5v7.8h5.2v-7.8h5v7.8h4.4v-7.8h5v7.8h5.2v-7.8h5v7.8h5.2v-7.8h5v7.8h5.2v-7.8h5v7.8h3.5v-12.3h-19.32v-16
		h42.32h4.2v9.7c4.98,3.69,8.28,9.56,8.3,16.24c-0.03,3.95-1.12,7.7-3.1,10.86h-7c2.7-2.7,4.4-6.4,4.4-10.6
		c0-8.2-6.6-14.8-14.8-14.8c-3.3,0-6.3,1.1-8.7,2.8l-4-4h-16.31v-5.5h34.11l2.3,2.3"/>
</g>
<g id="host-silvering_x60_629x75">
	<path class="st10" d="M175.6,72.166H81.9v-15h7.4l0.3,10.3l0,0l8.2-15.5H86.4l4-7.3H77.7v27.5h-5.2v-32.9h12.2v-5.6H68.4v38.5h-5.2
		v-43h26.6v10.9H99l-0.4,0.7l-3.7,7h5.1l7.4-14H95.9v-4.7h20.6l-20.6,38h80v-6H162l-1.2,2h-5.9l3.2-6.2h6.3v-6.4h-3.2l2.4-5.1h8.3
		v-3.3H165l2.3-4.8h6.9l3.1,8.4h6.1l-6.1-12.2h-7.4l2.5-4.6h7.1l11.4,21.9h-21.5v6.1h23.3l3.8,7.6h-15v6.7h76.7v-8.3h5.8v8.3l6-8.5
		v8.5l6-8.5v8.5l6-8.5v8.5h207.5v-5.5h-195v-5.2h195.1v-5.6h-201v3.5h-36.2l-2.7-5h33.4v-6h-36.5l-3.1-6.3h39.7v-6.5H240l-3-5.7
		h46.2v-5.3h-56l21.5,40.8h-6.4l-21.6-40.7h-6.4l21.5,40.8h-6.4l-21.5-40.8h-6.4l21.5,40.8h-6.4l-21.5-40.8h-6.4l21.5,40.8h-6.4
		l-21.5-40.8h-6.4h-6.4l-20.8,39.4h-6.4l20.8-39.4h-5.4l-20.8,39.4h-7.4l20.8-39.4h-5.4l-20.8,39.4h-7.4l20.8-39.4h-5.4l-20.8,39.4
		h-6.4l20.8-39.4h-6.4l-63.6-0.1v6.4l-13.2,7.3l-4.6-2.7l1.4-0.8l12-6.9v-7.8l-5.7-3.3v8.4l-16.7,9.6v2l11.9,6.9l17.7-9.6v5.7
		l-24.6,13.4v-7.3l-11.9-6.9v-6.7l18.2-10.4v-8.2l-5.3-3v8.3l-17.8,10.3v12.4l11.9,6.9v6.1l-16.6-9.6v-19.9l17.8-10.3v-6.9
		l-23.3,13.3v26.9l23.3,13.4l28.7-16.6v28.2h-5.5v-4.7l-10.9,5.7h-4.1l-3.2-2l18.3-10.2v-6.8l-23.3,13.3L1,50.566v-33.8l27.5-15.9
		l30.4,17.7h229.6v30.2h35.8v-5.8h-30.2l-0.1-24.4h321.2h4.2v9.7c5,3.7,8.3,9.6,8.3,16.3v-0.2c0,4-1.1,7.8-3.1,11h-7
		c2.7-2.7,4.4-6.4,4.4-10.6c0-8.2-6.6-14.8-14.8-14.8c-3.3,0-6.3,1.1-8.7,2.8l-4-4H488.4l-4.6,4.6l-4.6-4.6l-4.6,4.6l-4.6-4.6
		l-4.6,4.6l-4.6-4.6l-4.6,4.6l-4.6-4.6l-4.6,4.6l-4.6-4.6l-4.6,4.6l-4.6-4.6l-4.6,4.6l-4.6-4.6l-4.6,4.6l-4.6-4.6l-4.6,4.6l-4.6-4.6
		l-4.6,4.6l-4.6-4.6l-4.6,4.6l-4.6-4.6l-4.6,4.6l-4.6-4.6l-4.6,4.6l-4.6-4.6l-4.6,4.6l-4.6-4.6l-4.6,4.6l-4.6-4.6l-4.6,4.6l-4.6-4.6
		h-36.8v4.8h31v10.1h7.2v-5.6h6.1v5.6h6.1v-5.6h6.1v5.6h6.1v-5.6h6.1v5.6h6.1v-5.6h6.1v5.6h6.1v-5.6h6.1v5.6h6.1v-5.6h6.1v5.6h6.1
		v-5.6h6.1v5.6h6.1v-5.6h6.1v5.6h6.1v-5.6h6.1v5.6h6.1v-5.6h6.1v5.6h6.1v-5.6h6.1v5.6h6.1v-5.6h6.1v5.6h6.1v-9.1h103.2v12.3h-3.5
		v-7.8h-5v7.8h-5.2v-7.8h-5v7.8h-5.2v-7.8h-5v7.8h-5.2v-7.8h-5v7.8h-4.4v-7.8h-5v7.8h-5.2v-7.8h-5v7.8h-5.2v-7.8h-5v7.8h-5.2v-7.8
		h-5v7.8h-5.2v-7.8h-11.8v4.6h6.7v6.9h95.7c-1.1-1.7-1.8-3.7-1.8-5.9c0-5.8,4.7-10.5,10.5-10.5c2.2,0,4.2,0.7,5.9,1.8l-2.3,3.3
		c-1-0.7-2.3-1.1-3.6-1.1c-0.9,0-1.8,0.2-2.5,0.5l1.6,3.7c0.3-0.1,0.6-0.2,0.9-0.2c1.4,0,2.5,1.1,2.5,2.5s-1.1,2.5-2.5,2.5
		s-2.5-1.1-2.5-2.5c0-0.4,0.1-0.7,0.2-1.1l-3.3-2.3c-0.6,1-0.9,2.1-0.9,3.3c0,3.6,2.9,6.5,6.5,6.5s6.5-2.9,6.5-6.5
		c0-0.9-0.2-1.8-0.5-2.6l3.3-2.4c0.8,1.5,1.2,3.1,1.2,4.9c0,5.8-4.7,10.5-10.5,10.5H498v-6.6H329.8v-11.1h-30.4v-14h312.9l2.3,2.3"
		/>
</g>
</svg>
