<?xml version="1.0" encoding="iso-8859-1"?>
<!-- Generator: Adobe Illustrator 21.0.0, SVG Export Plug-In . SVG Version: 6.00 Build 0)  -->
<svg version="1.1" id="Layer_1" xmlns="http://www.w3.org/2000/svg" xmlns:xlink="http://www.w3.org/1999/xlink" x="0px" y="0px"
	 viewBox="0 0 200 200" style="enable-background:new 0 0 200 200;" xml:space="preserve">
<style type="text/css">
	.st0{fill:none;stroke:#547F91;stroke-width:1.5;stroke-miterlimit:10;}
	.st1{fill:none;stroke:#547F91;stroke-width:1.5;stroke-miterlimit:10;stroke-dasharray:1.9446,1.9446;}
	.st2{fill:#547F91;}
	.st3{fill:#FFFFFF;}
	.st4{fill:none;stroke:#678C9C;stroke-width:1.5;stroke-miterlimit:10;}
	.st5{fill:#6FCFC9;stroke:#6FCFC9;stroke-width:2;stroke-miterlimit:10;}
	.st6{fill:none;stroke:#358285;stroke-width:1.7038;stroke-linecap:round;stroke-linejoin:round;stroke-miterlimit:10;}
	.st7{fill:none;}
	.st8{fill:none;stroke:#678C9C;stroke-width:2;stroke-miterlimit:10;}
	.st9{fill:#FFFFFF;stroke:#678C9C;stroke-width:2;stroke-miterlimit:10;}
	.st10{fill:none;stroke:#FFFFFF;stroke-width:2;stroke-linejoin:bevel;stroke-miterlimit:10;}
	.st11{fill:#1EB8FF;}
	.st12{fill:none;stroke:#1EB8FF;stroke-miterlimit:10;}
	.st13{opacity:0.03;fill:url(#SVGID_1_);enable-background:new    ;}
	.st14{opacity:0.03;fill:url(#SVGID_2_);enable-background:new    ;}
	.st15{opacity:0.03;fill:url(#SVGID_3_);enable-background:new    ;}
	.st16{opacity:0.03;fill:url(#SVGID_4_);enable-background:new    ;}
	.st17{opacity:0.39;fill:url(#SVGID_5_);enable-background:new    ;}
	.st18{opacity:0.39;fill:url(#SVGID_6_);enable-background:new    ;}
	.st19{opacity:0.72;fill:url(#SVGID_7_);enable-background:new    ;}
	.st20{opacity:0.72;fill:url(#SVGID_8_);enable-background:new    ;}
	.st21{opacity:0.13;fill:url(#SVGID_9_);enable-background:new    ;}
	.st22{fill:#DFDFDF;}
	.st23{fill:#E6E6E6;}
	.st24{fill:#31A6DC;}
	.st25{fill:#0790D1;}
	.st26{fill:#0572A6;}
	.st27{fill:#EAED9D;}
	.st28{fill:#D1D39F;}
	.st29{fill:#FDFFE2;}
	.st30{fill:#2F4757;}
	.st31{fill:#50728A;}
	.st32{fill:#47657A;}
	.st33{fill:#1E2B33;}
	.st34{fill:#19242B;}
	.st35{fill:#1CACEF;}
	.st36{fill:#1583B5;}
	.st37{fill:#75D6FF;}
	.st38{fill:#3AC4FF;}
	.st39{fill:#119CD4;}
	.st40{fill:#029ADB;}
	.st41{fill:none;stroke:#FFFFFF;stroke-width:2;stroke-linecap:round;stroke-miterlimit:10;}
	.st42{fill:none;stroke:#9FC2DB;stroke-width:2;stroke-miterlimit:10;}
	.st43{fill:none;stroke:#FF7100;stroke-miterlimit:10;}
	.st44{fill:none;stroke:url(#SVGID_10_);stroke-width:4;stroke-miterlimit:10;}
	.st45{fill:#FF7100;}
	.st46{fill:none;stroke:url(#SVGID_11_);stroke-width:4;stroke-miterlimit:10;}
	.st47{fill:none;stroke:url(#SVGID_12_);stroke-width:4;stroke-miterlimit:10;}
</style>
<g id="nav-stats_x60_17x11">
	<line class="st0" x1="0.75" y1="1.2" x2="0.75" y2="11"/>
	<line class="st0" x1="4.45" y1="3.1" x2="4.45" y2="11"/>
	<line class="st0" x1="8.25" y1="0" x2="8.25" y2="11"/>
	<line class="st0" x1="11.95" y1="2.6" x2="11.95" y2="11"/>
	<line class="st0" x1="15.65" y1="4.4" x2="15.65" y2="11"/>
</g>
<g id="nav-scale_x60_22x15">
	<ellipse transform="matrix(0.9876 -0.1567 0.1567 0.9876 -1.2823 0.9921)" class="st0" cx="5.65" cy="8.628" rx="4.9" ry="4.9"/>
	<g>
		<g>
			<path class="st0" d="M10.159,2.239c0.3-0.2,0.5-0.4,0.8-0.6"/>
			<path class="st1" d="M12.759,0.939c0.1,0,0.3-0.1,0.4-0.1c3.5-0.6,6.9,1.9,7.4,5.4c0.6,3.5-1.8,6.9-5.4,7.4
				c-0.6,0.1-1.1,0.1-1.6,0.1"/>
			<path class="st0" d="M12.659,13.539c-0.3-0.1-0.6-0.2-0.9-0.3"/>
		</g>
	</g>
</g>
<g id="nav-app-component_x60_16x19">
	<polygon class="st0" points="15.15,13.468 7.95,17.568 0.75,13.468 0.75,5.068 7.95,0.868 15.15,5.068 	"/>
	<polygon class="st2" points="4.85,11.568 7.95,6.168 11.05,11.568 	"/>
</g>
<g id="nav-platform-component_x60_19x13">
	<circle class="st0" cx="1.55" cy="6.63" r="0.8"/>
	<circle class="st0" cx="6.45" cy="10.53" r="0.8"/>
	<circle class="st0" cx="6.45" cy="2.73" r="0.8"/>
	<polyline class="st0" points="7.15,10.53 15.75,10.53 17.95,8.43 	"/>
	<polyline class="st0" points="7.15,2.73 15.75,2.73 17.95,0.53 	"/>
	<line class="st0" x1="2.75" y1="6.63" x2="14.75" y2="6.63"/>
</g>
<g id="nav-instance-health_x60_17x17">
	<circle class="st2" cx="8.108" cy="1" r="1"/>
	<circle class="st2" cx="8.108" cy="4.2" r="0.9"/>
	<circle class="st2" cx="8.108" cy="8.2" r="1"/>
	<ellipse transform="matrix(0.704 -0.7102 0.7102 0.704 -0.6355 9.272)" class="st2" cx="10.806" cy="5.398" rx="0.9" ry="0.9"/>
	<ellipse transform="matrix(1 -0.0091 0.0091 1 -0.0733 0.1097)" class="st2" cx="12.022" cy="8.11" rx="0.9" ry="0.9"/>
	
		<ellipse transform="matrix(0.6975 -0.7166 0.7166 0.6975 -4.4666 11.0119)" class="st2" cx="10.809" cy="10.796" rx="0.9" ry="0.9"/>
	<ellipse transform="matrix(0.9998 -0.0182 0.0182 0.9998 -0.2151 0.1494)" class="st2" cx="8.098" cy="11.892" rx="0.9" ry="0.9"/>
	<ellipse transform="matrix(0.691 -0.7229 0.7229 0.691 -6.1332 7.2527)" class="st2" cx="5.416" cy="10.8" rx="0.9" ry="0.9"/>
	<ellipse transform="matrix(0.9996 -0.0271 0.0271 0.9996 -0.2178 0.1167)" class="st2" cx="4.198" cy="8.093" rx="0.9" ry="0.9"/>
	<ellipse transform="matrix(0.6848 -0.7287 0.7287 0.6848 -2.2923 5.4905)" class="st2" cx="5.201" cy="5.395" rx="0.9" ry="0.9"/>
	<ellipse transform="matrix(0.4398 -0.8981 0.8981 0.4398 4.7582 11.126)" class="st2" cx="11.298" cy="1.749" rx="1" ry="1"/>
	<ellipse transform="matrix(0.7901 -0.613 0.613 0.7901 0.6097 9.1823)" class="st2" cx="13.712" cy="3.701" rx="1" ry="1"/>
	<ellipse transform="matrix(0.9792 -0.2031 0.2031 0.9792 -1.0472 3.2112)" class="st2" cx="15.123" cy="6.708" rx="1" ry="1"/>
	<ellipse transform="matrix(0.2483 -0.9687 0.9687 0.2483 1.8398 22.1339)" class="st2" cx="15.181" cy="9.882" rx="1" ry="1"/>
	<ellipse transform="matrix(0.6494 -0.7605 0.7605 0.6494 -4.9199 14.7295)" class="st2" cx="13.513" cy="12.7" rx="1" ry="1"/>
	<ellipse transform="matrix(0.9177 -0.3973 0.3973 0.9177 -4.9029 5.5373)" class="st2" cx="10.912" cy="14.601" rx="1" ry="1"/>
	<ellipse transform="matrix(0.047 -0.9989 0.9989 0.047 -8.1216 22.0381)" class="st2" cx="7.489" cy="15.275" rx="1" ry="1"/>
	<ellipse transform="matrix(0.4818 -0.8763 0.8763 0.4818 -10.1317 11.4162)" class="st2" cx="4.587" cy="14.274" rx="1" ry="1"/>
	<ellipse transform="matrix(0.8181 -0.575 0.575 0.8181 -6.6144 3.4809)" class="st2" cx="2.196" cy="12.197" rx="1" ry="1"/>
	<ellipse transform="matrix(0.9877 -0.1562 0.1562 0.9877 -1.424 0.2691)" class="st2" cx="1" cy="9.195" rx="1" ry="1"/>
	<ellipse transform="matrix(0.2942 -0.9557 0.9557 0.2942 -5.0011 5.5591)" class="st2" cx="1.263" cy="6.166" rx="1" ry="1"/>
	<ellipse transform="matrix(0.6846 -0.7289 0.7289 0.6846 -1.4169 3.1281)" class="st2" cx="2.906" cy="3.201" rx="1" ry="1"/>
	<ellipse transform="matrix(0.9354 -0.3535 0.3535 0.9354 -0.1383 2.0335)" class="st2" cx="5.497" cy="1.395" rx="1" ry="1"/>
</g>
<g id="corner-bg_x60_616x57">
	<polygon class="st3" points="23.4,57 615.5,57 615.5,0 0,0 0,42.5 	"/>
</g>
<g id="nav-split_x60_20x12">
	<path class="st4" d="M5.65,0.75c-2.7,0-4.9,2.2-4.9,4.9s2.2,4.9,4.9,4.9l0,0c2.5,0,4.4-3,5.4-3.1c1.9-0.2,2,1.6,4.2,1.6l0,0
		c1.9,0,3.4-1.5,3.4-3.4s-1.5-3.4-3.4-3.4l0,0c-2.4,0-2.3,1.8-4.2,1.6C10.05,3.85,8.15,0.75,5.65,0.75L5.65,0.75z"/>
</g>
<g id="nav-admin_x60_24x18">
	<ellipse transform="matrix(0.9413 -0.3375 0.3375 0.9413 -4.0918 4.1716)" class="st4" cx="9.952" cy="13.854" rx="3.1" ry="3.1"/>
	<ellipse transform="matrix(0.9412 -0.3377 0.3377 0.9412 -0.511 4.7639)" class="st4" cx="13.436" cy="3.851" rx="3.1" ry="3.1"/>
	<ellipse transform="matrix(0.9413 -0.3376 0.3376 0.9413 -1.709 7.487)" class="st4" cx="20.672" cy="8.657" rx="1.9" ry="1.9"/>
	<line class="st4" x1="10.966" y1="11.056" x2="12.666" y2="6.756"/>
	<line class="st4" x1="19.266" y1="7.456" x2="16.366" y2="5.656"/>
	<ellipse transform="matrix(0.8869 -0.4619 0.4619 0.8869 -4.0215 2.282)" class="st4" cx="2.65" cy="9.355" rx="1.9" ry="1.9"/>
	<line class="st4" x1="4.266" y1="10.356" x2="7.366" y2="11.856"/>
</g>
<g id="nav-tunnel_x60_14x12">
	<line class="st0" x1="0" y1="5.935" x2="12.6" y2="5.935"/>
	<polyline class="st0" points="7.4,0.535 12.9,5.935 7.4,11.335 	"/>
</g>
<g id="nav-console_x60_19x12">
	<rect x="0.75" y="0.75" class="st4" width="17.2" height="10.5"/>
	<line class="st4" x1="8.05" y1="7.45" x2="12.05" y2="7.45"/>
	<polyline class="st4" points="3.85,3.35 5.85,5.45 3.85,7.45 	"/>
</g>
<g id="hex-glob-storage_x60_50x57">
	<polygon class="st5" points="48.2,42.054 24.6,55.654 1,42.054 1,14.754 24.6,1.154 48.2,14.754 	"/>
	
		<rect x="15.9" y="19.755" transform="matrix(0.7071 -0.7071 0.7071 0.7071 -12.8947 25.6786)" class="st6" width="17.3" height="17.3"/>
	
		<rect x="19.299" y="23.251" transform="matrix(0.7071 -0.7071 0.7071 0.7071 -12.9421 25.6567)" class="st6" width="10.4" height="10.4"/>
	
		<rect x="25.299" y="21.258" transform="matrix(0.707 -0.7072 0.7072 0.707 -10.5624 31.2214)" class="st6" width="14.2" height="14.2"/>
	
		<rect x="9.898" y="21.354" transform="matrix(0.7072 -0.707 0.707 0.7072 -15.1406 20.3487)" class="st6" width="14.2" height="14.2"/>
	
		<rect x="37.601" y="24.558" transform="matrix(0.707 -0.7072 0.7072 0.707 -7.9247 37.5877)" class="st6" width="7.6" height="7.6"/>
	
		<rect x="3.796" y="24.66" transform="matrix(0.7071 -0.7071 0.7071 0.7071 -17.8993 13.7067)" class="st6" width="7.6" height="7.6"/>
</g>
<g id="hex-router_x60_50x57">
	<polygon class="st5" points="48.2,42.054 24.6,55.654 1,42.054 1,14.754 24.6,1.154 48.2,14.754 	"/>
	<polygon class="st6" points="7.2,40.154 12.6,36.854 37.4,36.854 37.4,30.254 12.6,30.254 7.2,33.554 	"/>
	<polygon class="st6" points="42.3,42.954 38.1,40.154 12.1,40.154 12.1,33.554 38.1,33.554 42.3,36.354 	"/>
	<polygon class="st6" points="43.2,16.254 36.5,20.754 11.8,20.754 11.8,27.354 36.5,27.354 43.2,22.754 	"/>
	<polygon class="st6" points="6.2,14.254 11.1,17.454 37,17.454 37,24.054 11.1,24.054 6.2,20.754 	"/>
	<line class="st6" x1="17.1" y1="17.454" x2="17.1" y2="33.554"/>
	<line class="st6" x1="30.9" y1="20.754" x2="30.9" y2="40.154"/>
	<line class="st6" x1="19.8" y1="20.754" x2="19.8" y2="36.854"/>
	<line class="st6" x1="33.6" y1="24.054" x2="33.6" y2="40.154"/>
	<line class="st6" x1="25.5" y1="24.054" x2="25.5" y2="36.854"/>
	<line class="st6" x1="38.2" y1="22.554" x2="45.2" y2="18.254"/>
	<line class="st6" x1="5" y1="38.154" x2="9.2" y2="35.554"/>
	<line class="st6" x1="39.4" y1="38.054" x2="42.7" y2="40.154"/>
	<line class="st6" x1="5.1" y1="16.854" x2="9.5" y2="19.854"/>
</g>
<g id="hex-health-monitor_x60_50x57">
	<polygon class="st5" points="48.2,42.054 24.6,55.654 1,42.054 1,14.754 24.6,1.154 48.2,14.754 	"/>
	<polygon class="st6" points="7.3,19.354 15.4,14.054 32.7,25.554 24.6,30.854 	"/>
	<polygon class="st6" points="7.3,24.654 15.4,19.354 32.7,30.854 24.6,36.254 	"/>
	<polygon class="st6" points="7.3,30.054 15.4,24.654 32.7,36.254 24.6,41.554 	"/>
	<polygon class="st6" points="41.9,19.354 33.9,14.054 16.6,25.554 24.6,30.854 	"/>
	<line class="st6" x1="41.9" y1="35.154" x2="41.9" y2="19.354"/>
	<polygon class="st6" points="41.9,24.654 33.9,19.354 16.6,30.854 24.6,36.254 	"/>
	<polygon class="st6" points="41.9,30.054 33.9,24.654 16.6,36.254 24.6,41.554 	"/>
	<polygon class="st6" points="7.3,35.354 15.4,30.054 32.7,41.554 24.6,46.954 	"/>
	<polygon class="st6" points="41.9,35.354 33.9,30.054 16.6,41.554 24.6,46.954 	"/>
	<line class="st6" x1="34" y1="24.654" x2="34" y2="14.054"/>
	<line class="st6" x1="7.1" y1="35.354" x2="7.1" y2="19.554"/>
	<line class="st6" x1="15.5" y1="24.654" x2="15.5" y2="14.054"/>
</g>
<g id="hex-logger_x60_50x57">
	<polygon class="st5" points="48.2,42.054 24.6,55.654 1,42.054 1,14.754 24.6,1.154 48.2,14.754 	"/>
	<polygon class="st6" points="15.3,37.854 15.4,22.354 26.9,15.954 26.8,31.454 	"/>
	<polygon class="st6" points="11.5,36.254 11.6,20.754 23,14.354 23,29.854 	"/>
	<polygon class="st6" points="7.7,34.654 7.8,19.154 19.2,12.754 19.2,28.254 	"/>
	<polygon class="st6" points="4,33.054 4,17.554 15.5,11.154 15.4,26.654 	"/>
	<polygon class="st6" points="34.3,45.854 34.5,30.254 45.9,23.954 45.8,39.454 	"/>
	<polygon class="st6" points="30.6,44.254 30.7,28.654 42.2,22.354 42,37.854 	"/>
	<polygon class="st6" points="26.8,42.654 26.8,27.054 38.3,20.754 38.2,36.254 	"/>
	<polygon class="st6" points="23,41.054 23,25.454 34.5,19.154 34.4,34.654 	"/>
</g>
<g id="hex-load-balancer_x60_50x57">
	<polygon class="st5" points="48.2,42.056 24.6,55.656 1,42.056 1,14.856 24.6,1.156 48.2,14.856 	"/>
	<line class="st6" x1="45.5" y1="36.356" x2="24.7" y2="23.256"/>
	<line class="st6" x1="44" y1="40.956" x2="24.7" y2="28.756"/>
	<polyline class="st6" points="24.7,17.756 45.5,30.856 45.5,33.456 45.5,40.256 	"/>
	<line class="st6" x1="45.5" y1="30.856" x2="28.8" y2="20.256"/>
	<polyline class="st6" points="45.5,36.356 28.8,25.756 28.8,14.756 45.4,25.256 	"/>
	<polyline class="st6" points="24.6,40.756 45.4,27.556 45.4,16.556 24.6,29.656 	"/>
	<line class="st6" x1="24.8" y1="35.256" x2="34.3" y2="29.256"/>
	<line class="st6" x1="24.8" y1="29.656" x2="34.3" y2="23.756"/>
	<line class="st6" x1="34.3" y1="34.756" x2="24.8" y2="40.756"/>
	<line class="st6" x1="24.7" y1="23.256" x2="34.2" y2="29.256"/>
	<line class="st6" x1="24.7" y1="28.756" x2="34.2" y2="34.756"/>
	<line class="st6" x1="34.2" y1="23.656" x2="24.7" y2="17.756"/>
	<line class="st6" x1="45.4" y1="22.056" x2="24.6" y2="35.256"/>
	<polygon class="st7" points="48.2,42.056 24.6,55.656 1,42.056 1,14.856 24.6,1.156 48.2,14.856 48.2,21.256 48.2,27.256 
		48.2,33.356 	"/>
	<line class="st6" x1="34.2" y1="29.356" x2="45.4" y2="22.256"/>
	<polyline class="st6" points="45.5,33.256 34.2,40.456 34.2,34.956 45.4,27.856 	"/>
	<line class="st6" x1="3.6" y1="36.356" x2="24.4" y2="23.256"/>
	<line class="st6" x1="5.2" y1="40.956" x2="24.4" y2="28.756"/>
	<polyline class="st6" points="24.4,17.756 3.6,30.856 3.6,33.456 3.6,40.256 	"/>
	<line class="st6" x1="3.6" y1="30.856" x2="20.4" y2="20.256"/>
	<polyline class="st6" points="3.6,36.356 20.4,25.756 20.4,14.756 3.7,25.256 	"/>
	<polyline class="st6" points="24.6,40.756 3.7,27.556 3.7,16.556 24.6,29.656 	"/>
	<line class="st6" x1="24.3" y1="35.256" x2="14.9" y2="29.256"/>
	<line class="st6" x1="24.3" y1="29.656" x2="14.9" y2="23.756"/>
	<line class="st6" x1="14.9" y1="34.756" x2="24.3" y2="40.756"/>
	<line class="st6" x1="24.4" y1="23.256" x2="15" y2="29.256"/>
	<line class="st6" x1="24.4" y1="28.756" x2="15" y2="34.756"/>
	<line class="st6" x1="15" y1="23.656" x2="24.4" y2="17.756"/>
	<line class="st6" x1="3.7" y1="22.056" x2="24.6" y2="35.256"/>
	<line class="st6" x1="15" y1="29.356" x2="3.7" y2="22.256"/>
	<polyline class="st6" points="3.6,33.256 15,40.456 15,34.956 3.7,27.856 	"/>
</g>
<g id="admin-octopus_x60_90x72">
	<polygon class="st8" points="60.1,43.901 43.4,53.601 26.6,43.901 26.6,24.501 43.4,14.901 60.1,24.501 	"/>
	<polyline class="st8" points="60.1,43.901 70.2,49.701 82.9,49.701 	"/>
	<polyline class="st8" points="31.9,40.901 23.8,45.701 23.8,62.301 	"/>
	<polyline class="st8" points="50,49.101 50,60.301 61.2,66.801 	"/>
	<circle class="st8" cx="85.5" cy="49.701" r="2.6"/>
	<circle class="st8" cx="23.8" cy="64.901" r="2.6"/>
	<circle class="st9" cx="53.6" cy="34.201" r="2.6"/>
	<circle class="st9" cx="34" cy="39.401" r="2.6"/>
	<circle class="st9" cx="50" cy="49.701" r="2.6"/>
	<circle class="st8" cx="62.8" cy="68.201" r="2.6"/>
	<circle class="st8" cx="41.3" cy="25.701" r="2.6"/>
	<circle class="st8" cx="16" cy="10.301" r="2.6"/>
	<polyline class="st8" points="39.3,24.401 29.1,10.301 18.3,10.301 	"/>
	<polyline class="st8" points="80.3,19.501 70.1,34.201 56.2,34.201 	"/>
	<circle class="st9" cx="80.3" cy="19.501" r="2.6"/>
	<polyline class="st8" points="61.2,3.501 61.2,14.001 52.6,20.201 	"/>
	<ellipse transform="matrix(0.8233 -0.5676 0.5676 0.8233 8.7701 35.3725)" class="st9" cx="61.198" cy="3.6" rx="2.6" ry="2.6"/>
	<polyline class="st8" points="3.6,36.601 8.7,31.301 26.7,31.301 	"/>
	<circle class="st9" cx="3.6" cy="36.601" r="2.6"/>
</g>
<g id="component-silvering_x60_625x75">
	<path class="st10" d="M175.6,72.166H81.9v-15h7.4l0.3,10.3l8.2-15.5H86.4l4-7.3H77.7v27.5h-5.2v-32.9h12.2v-5.6H68.4v38.5h-5.2v-43
		h26.6v10.9H99l-0.4,0.7l-3.7,7h5.1l7.4-14H95.9v-4.7h20.6l-20.6,38h80v-6H162l-1.2,2h-5.9l3.2-6.2h6.3v-6.4h-3.2l2.4-5.1h8.3v-3.3
		H165l2.3-4.8h6.9l3.1,8.4h6.1l-6.1-12.2h-7.4l2.5-4.6h7.1l11.4,21.9h-21.5v6.1h23.3l3.8,7.6h-15v6.7h71.7l10.2-8.5v8.5l10.2-8.5
		v8.5l10.2-8.5v8.5h61.9v-5.5h-56.2v-5.2h75.9v-5.6h-81.8v3.5h-31.2l-2.7-5h28.4v-6h-31.5l-3.1-6.3h34.7v-6.5H240l-3-5.7h41.2v-5.3
		h-51l21.5,40.8h-6.4l-21.6-40.7h-6.4l21.5,40.8h-6.4l-21.5-40.8h-6.4l21.5,40.8h-6.4l-21.5-40.8h-6.4l21.5,40.8h-6.4l-21.5-40.8
		h-12.8l-20.8,39.4h-6.4l20.8-39.4h-5.4l-20.8,39.4h-7.4l20.8-39.4h-5.4l-20.8,39.4h-7.4l20.8-39.4h-5.4l-20.8,39.4h-6.4l20.8-39.4
		h-6.4l-63.6-0.1v6.4l-13.2,7.3l-4.6-2.7l1.4-0.8l12-6.9v-7.8l-5.7-3.3v8.4l-16.7,9.6v2l11.9,6.9l17.7-9.6v5.7l-24.6,13.4v-7.3
		l-11.9-6.9v-6.7l18.2-10.4v-8.2l-5.3-3v8.3l-17.8,10.3v12.4l11.9,6.9v6.1l-16.6-9.6v-19.9l17.8-10.3v-6.9l-23.3,13.3v26.9
		l23.3,13.4l28.7-16.6v28.2h-5.5v-4.7l-10.9,5.7h-4.1l-3.2-2l18.3-10.2v-6.8l-23.3,13.3L1,50.566v-33.8l27.5-15.9l30.4,17.7h224.6
		v30.2h35.8v-5.8h-30.2v-24.4h87.3v4.7h-82v14h30.4v11.1h18.9v-10.3h-6.1v5.6h-7.2v-10.1h-31v-4.8h36.8l4.6,4.6l4.6-4.6l4.6,4.6
		l4.6-4.6l4.6,4.6l4.6-4.6l4.6,4.6l4.6-4.6l4.6,4.6l4.6-4.6l4.6,4.6l4.6-4.6l4.6,4.6l4.6-4.6l4.6,4.6l4.6-4.6l4.6,4.6l4.6-4.6
		l4.6,4.6l4.6-4.6l3.8,3.4l8.9-8.9h-57.7v-4.7H563v16h-5.3v-11.7h-5v11.7h-4.4v-11.7h-5v11.7h-5.2v-11.7h-5v11.7h-5.2v-11.7h-5v11.7
		H484v9.1h-6.1v-5.6h-6.1v5.6h-6.1v-5.6h-6.1v5.6h-6.1v-5.6h-6.1v5.6h-6.1v-7.4l6-5.9l3.9,3.1l4.6-4.6l4.6,4.6l4.6-4.6l4.6,4.6
		l4.6-4.6l4.6,4.6l4.6-4.6h33.1v-5.5h-68.9l-12.4,12.7v7.7h-6.1v-5.6H423v5.6h-6.1v-5.6h-6.1v5.6h-6.1v-5.6h-6.1v5.6h-6.1v-5.6h-6.1
		v5.6h-6.1v-5.6h-6.1v5.6h-6.1v-5.6H362v5.6h-6.1v-5.6h-6.1v10.3h36.6v6.5H373v5.6h13.9v5.2h-34.5v5.5h61.3v-5.5h-21.2v-5.2h14.8
		v-5.6h-14.9v-6.5h73.7v6.5H413v5.6h14.9v5.2h-8.4v5.5h52.9v-5.5h-37.7v-5.2h50.8v-5.6h-13.8v-6.5h20.1v11.8h7.7l2.2-5.2h5.8v10.7
		h-29.7v5.5h145.7v-5.5H606v-5.2h-4.5l-5.6,5.2h-65.7l-4.5-5.2h-5.5v5.2h-7.3v-10.7h15.9l4.5,5.2h56.4l5.6-5.2h6.7
		c5.8,0,10.5-4.7,10.5-10.5c0-1.8-0.4-3.4-1.2-4.9l-3.3,2.4c0.3,0.8,0.5,1.7,0.5,2.6c0,3.6-2.9,6.5-6.5,6.5s-6.5-2.9-6.5-6.5l4,0.1
		c0,1.4,1.1,2.5,2.5,2.5s2.5-1.1,2.5-2.5s-1.1-2.5-2.5-2.5c-0.3,0-0.6,0.1-0.9,0.2l-1.6-3.7c0.7-0.3,1.6-0.5,2.5-0.5
		c1.3,0,2.6,0.4,3.6,1.1l2.3-3.3c-1.7-1.1-3.7-1.8-5.9-1.8c-5.8,0-10.5,4.7-10.5,10.5c0,2.2,0.7,4.2,1.8,5.9h-3l-5.5,5.1h-46.6
		l-4.4-5.1h-36.1v-6.9H491v-4.6h11.8v7.8h5.2v-7.8h5v7.8h5.2v-7.8h5v7.8h5.2v-7.8h5v7.8h5.2v-7.8h5v12.4h4.4v-12.4h5v12.4h5.2v-12.4
		h5v12.4h5.2v-12.4h5v12.4h5.2v-12.4h5v7.8h3.5v-12.3h-19.3v-16h42.3h4.2v10.1l4.6,4.5v-14.4h4.7v41.7h-11.1v-5.1
		c2.7-2.7,4.4-6.4,4.4-10.6c0-8.2-6.6-14.8-14.8-14.8c-3.3,0-6.3,1.1-8.7,2.8l-4-4h-16.3v-5.5h34.1l2.3,2.3"/>
</g>
<g id="cluster-silvering_x60_633x83">
	<polyline class="st10" points="117.7,38.974 134.2,48.474 145,42.274 145,29.974 134.2,23.774 123.4,29.974 134.2,36.074 
		134.2,28.974 140.5,32.574 140.5,39.674 134.2,43.274 103.8,25.774 79.6,39.674 79.6,67.674 103.8,81.674 130.3,66.374 
		116.8,58.574 103.8,66.074 93.1,59.874 93.1,47.474 103.8,41.274 103.8,46.474 97.6,50.074 97.6,57.274 103.8,60.874 112.1,56.074 
		104.1,51.474 108.2,49.074 116.2,53.674 120.7,51.074 108,43.674 108,38.474 103.8,36.074 88.6,44.874 88.6,62.474 103.8,71.274 
		117,63.674 121.5,66.274 103.8,76.474 84.1,65.074 84.1,42.274 103.8,30.974 113.2,36.374 113.2,41.574 134.2,53.674 149.5,44.874 
		149.5,27.374 134.2,18.574 117.3,28.274 114.6,26.774 112.7,25.674 116.8,23.474 134.2,13.374 154,24.774 154,47.474 134.2,58.874 
		125,53.574 120.6,56.174 134.2,64.074 158.4,50.174 158.4,28.374 166.1,24.074 179.9,32.074 179.9,62.474 195.1,71.274 
		211.2,62.074 211.2,46.574 216.6,43.374 216.6,25.574 234.4,15.274 241.9,19.574 241.9,25.374 234,20.674 230.2,22.874 
		230.2,55.674 234.3,53.374 234.3,25.474 238.9,28.074 238.9,57.174 232.7,60.674 225.9,56.774 225.9,25.374 220.9,28.274 
		220.9,59.074 232.7,65.874 243.4,59.774 243.4,29.974 263.2,18.574 269.4,22.174 293.6,8.174 319.6,23.074 323,21.174 
		381.3,21.174 395.2,29.074 412.8,19.074 418.3,19.074 418.3,25.574 424.3,22.074 424.3,28.074 439.9,18.974 630.7,18.974 
		630.7,32.374 445.6,32.374 425.2,44.174 425.7,31.974 441.4,23.274 624.7,23.274 624.7,27.874 443.5,27.874 421,40.874 421,51.074 
		410.4,57.474 410.4,60.474 427.8,60.474 435.6,55.174 435.6,49.474 449.7,41.374 630.7,41.374 630.7,36.874 447.6,36.874 
		425.5,49.674 425.6,60.474 497.4,60.474 497.4,67.274 513.4,67.274 513.4,63.674 503.6,63.674 503.6,59.674 513,59.674 513,55.174 
		487.3,55.174 435.6,55.174 435.6,49.474 449.7,41.374 630.7,41.374 630.7,45.874 451.4,45.874 443.6,50.374 592.5,50.374 
		592.5,63.474 587.1,63.474 587.1,55.174 572.9,55.174 572.9,59.674 582.6,59.674 582.6,63.674 547,63.674 547,67.274 573.4,67.274 
		577.2,67.274 597.6,67.274 597.6,50.374 601.6,50.374 601.6,67.274 606.4,67.274 606.4,50.374 611.4,50.374 611.4,67.274 
		616.3,67.274 616.3,50.374 621.2,50.374 621.2,67.274 626.1,67.274 626.1,50.374 631.1,50.374 631.1,67.274 631.1,71.174 
		577.2,71.174 573.4,71.174 536.3,71.174 536.3,67.274 542.2,67.274 542.2,63.674 531.7,63.674 531.7,59.674 569,59.674 569,55.174 
		517.2,55.174 517.2,59.674 527.7,59.674 527.7,63.674 517.3,63.674 517.3,67.274 532.2,67.274 532.2,71.174 492.6,71.174 
		492.6,65.674 417.9,65.674 409,70.974 404.4,67.374 395.2,72.674 380,63.874 380,56.274 375.9,58.674 375.9,66.774 383.8,71.274 
		363.3,71.274 363.3,42.674 369.3,42.674 369.3,53.574 367,54.974 367,67.674 371.1,67.674 371.1,56.674 376.1,53.374 376.1,34.374 
		354,34.374 354,71.274 359.2,71.274 359.2,38.374 372,38.374 372,46.474 384.5,53.674 384.5,61.274 395.2,67.474 405.9,61.274 
		405.9,54.974 416.8,48.374 416.8,37.674 420.5,35.474 420.5,30.274 412.3,35.074 412.3,45.674 407.8,48.374 407.8,32.474 
		413.9,28.874 413.9,23.474 404.1,29.474 404.1,50.874 401.4,52.474 401.4,58.674 395.2,62.274 389,58.674 389,51.074 379.7,45.674 
		379.7,31.874 392.8,39.274 392.8,54.274 395.2,55.674 397.7,54.274 397.7,49.174 400.4,47.574 400.4,30.974 395.2,34.174 
		380,25.574 372.3,29.974 367.7,29.974 364.8,29.974 343.4,29.974 335.3,25.274 329.2,28.674 324.1,25.774 293.6,43.274 
		287.4,39.674 287.4,32.574 293.6,28.974 293.6,36.074 304.4,29.974 293.6,23.774 282.9,29.974 282.9,42.274 293.6,48.474 
		310.2,38.974 308,34.974 324.1,25.774 348.3,39.674 348.3,67.674 324.1,81.674 297.5,66.374 311.1,58.574 324.1,66.074 
		334.8,59.874 334.8,47.474 324.1,41.274 324.1,46.474 330.3,50.074 330.3,57.274 324.1,60.874 315.7,56.074 323.8,51.474 
		319.7,49.074 311.6,53.674 307.1,51.074 319.9,43.674 319.9,38.474 324.1,36.074 339.3,44.874 339.3,62.474 324.1,71.274 
		310.9,63.674 306.4,66.274 324.1,76.474 343.8,65.074 343.8,42.274 324.1,30.974 314.7,36.374 314.7,41.574 293.6,53.674 
		278.4,44.874 278.4,27.374 293.6,18.574 310.5,28.274 313.2,26.774 315.1,25.674 311.1,23.474 293.6,13.374 273.9,24.774 
		273.9,47.474 293.6,58.874 302.9,53.574 307.3,56.174 293.6,64.074 269.4,50.174 269.4,28.374 261.8,24.074 247.9,32.074 
		247.9,62.474 232.7,71.274 216.6,62.074 216.6,46.574 211.2,43.374 211.2,25.574 193.4,15.274 186,19.574 186,25.374 193.8,20.674 
		197.7,22.874 197.6,55.674 193.5,53.374 193.5,25.474 188.9,28.074 188.9,57.174 195.1,60.674 201.9,56.774 201.9,25.374 
		206.9,28.274 206.9,59.074 195.1,65.874 184.4,59.774 184.4,29.974 164.7,18.574 158.5,22.174 134.2,8.174 112.4,20.674 
		104,20.574 91.7,27.374 79.7,21.174 66.2,21.174 66.2,16.674 47.9,6.074 40.6,10.174 40.6,5.274 32.7,0.874 23.9,5.874 
		23.9,28.174 2.7,41.874 2.7,54.074 15,61.774 32.9,50.774 52.8,60.374 64,52.574 64,38.674 56.1,44.274 17.8,44.274 17.8,37.674 
		66.2,37.674 66.2,16.674 47.9,6.074 47.9,6.074 40.4,10.174 32.6,5.874 24.8,10.174 17.4,6.074 1,15.474 1,36.374 6.8,39.774 
		6.8,51.074 17.4,57.474 17.4,64.574 33.4,73.974 50.3,64.074 50.4,56.574 58.4,51.074 58.4,39.774 51.6,39.074 51.6,48.174 
		43.4,53.674 43.4,61.274 32.6,67.474 21.9,61.274 21.9,54.974 11.1,48.374 11.1,37.674 5,34.074 5,17.474 17.4,10.074 25.4,14.674 
		31.5,11.274 63,29.974 63,37.674 66.2,37.674 66.2,25.274 77.2,25.274 86.9,29.974 74.4,36.874 74.4,65.974 68.9,62.874 
		68.9,33.974 63.1,29.974 61.1,29.974 60.2,29.974 55.5,29.974 47.8,25.574 32.6,34.174 27.5,30.974 27.5,47.574 30.1,49.174 
		30.1,57.274 32.6,58.674 35.1,57.274 35.1,39.274 48.1,31.874 48.1,45.674 38.9,51.074 38.9,58.674 32.6,62.274 26.4,58.674 
		26.4,52.474 23.7,50.874 23.7,29.474 14,23.474 14,28.874 20.1,32.474 20.1,48.374 15.6,45.674 15.6,35.074 9.5,31.474 9.5,19.974 
		17.5,15.274 32.6,23.874 39.2,20.174 43.7,22.774 32.6,29.074 17.5,20.474 	"/>
</g>
<g id="host-silvering_x60_599x55">
	<path class="st10" d="M266.3,34.9H121.7l-17.9-13.7l-31.2,32h7.8l24-24.8l16.2,13.1h137v6.2H117.2l-13.1-11L89.7,53.2h219.5v-5.5
		h-43.4v-6.2h57.1v6.2h-7v5.5h12.9V34.9h-55.1v-6.5H199v-6.2h74.7v-5.4H144.4l-5-4.7h-9.3l5.3,4.4h-8.5l-5.3-4.4h-8.9l12.1,10.1
		h66.8v6.2h-69.3L104,13L64.6,53.2h-8.1l46-46.9h-7.8l-46,46.9H41L87,6.3h-7.8l-46,46.9h-7.8l46-46.9h-7.8l-46,46.9H9.9l46-46.9
		h-9.2l-6.9,5.8h-33v6.6h27.9l-7.1,7.1H6.8v6.8h13.9l-7.6,7.6H6.8v5.2L1,53.1V1h5.8v5.3H38L44,1h64.1v5.3h38.8V1h5.7v10.8H280v16.6
		h5.6V17.1H318V6.3H157.5V1h165.8v20.8h-32.2v6.8h37.8V1h116l-3.2,5.7h19.4l4.5,5.8h-12.5L442.6,33h-7H428l2.1-5.1h7.9l7.9-15.5
		h-7.6l-5.4,9.8h-6.4l-12.9,24.3h-6.4l21.5-39.8h-6.4l-21.5,39.8h-6.4l21.5-39.8h-6.4L388,46.5h-6.4l21.5-39.8h-6.4l-21.6,39.7h-6.4
		l21.5-39.8h-56v5.3h46.2l-3,5.7h-43.2v6.5h39.7l-3.1,6.3h-36.5v6h33.4l-2.7,5h-30.7l0.1,6.3h26.8l-3.1,5.5h77.7v-6.7h-15l4.6-8.9
		h7.7l-2.4,4.3h11v11.3h59l-5.4-7h-46.9c0-2,0.1-4.1,0.1-6.1h42.1l-4.7-6.1h-36.4l3.1-6.1h28.6l-4.7-6.1h-20.7l2.2-4.4h17l-3.9-5
		h8.1l31.6,40.8h9.1l-36-46.5h-15.7L464.1,1h24.5l41.1,52.2h8.2L496.8,1h8.2l41.1,52.2h8.2L513.2,1h8.2l41.1,52.2h8.2L529.6,1h8.2
		L579,53.2h8.2L546.1,1h8.2l41.1,52.2h2.2v-7.4L562.5,1h8.2l26.9,33.6V23.4L579,1h8.2l10.4,11.1V1h-4.2"/>
</g>
<g id="ready-for-deploy_x60_30x30">
	<path class="st11" d="M13.6,20.9c-0.3,0-0.5-0.1-0.7-0.2s-0.4-0.2-0.6-0.4l-3.7-3.8c-0.2-0.2-0.3-0.4-0.4-0.6s-0.1-0.5-0.1-0.7
		s0-0.5,0.1-0.7s0.2-0.4,0.4-0.6c0.2-0.2,0.4-0.3,0.6-0.4s0.5-0.1,0.7-0.1s0.5,0.1,0.7,0.1c0.2,0.1,0.4,0.2,0.6,0.4l2.4,2.4l6-6
		c0.2-0.2,0.4-0.3,0.6-0.4s0.5-0.1,0.7-0.1s0.5,0,0.7,0.1s0.4,0.2,0.6,0.4c0.2,0.2,0.3,0.4,0.4,0.6s0.1,0.5,0.1,0.7
		c0,0.3,0,0.5-0.1,0.7s-0.2,0.4-0.4,0.6l-7.4,7.4c-0.2,0.2-0.4,0.3-0.6,0.4C14.1,20.9,13.8,20.9,13.6,20.9z"/>
	<circle class="st12" cx="14.8" cy="14.8" r="14.3"/>
</g>
<g id="deploy-inst_x60_306x305">
	
		<linearGradient id="SVGID_1_" gradientUnits="userSpaceOnUse" x1="182.3519" y1="936.0839" x2="322.8183" y2="1047.5342" gradientTransform="matrix(0.4515 0.8923 -0.8923 0.4515 896.4442 -484.5479)">
		<stop  offset="0" style="stop-color:#8EA5B3"/>
		<stop  offset="0.7169" style="stop-color:#90A8B6;stop-opacity:0.2831"/>
		<stop  offset="1" style="stop-color:#94ACBA;stop-opacity:0"/>
	</linearGradient>
	<polygon class="st13" points="154.4,304.3 34.7,265 94.8,81.8 214.5,121 	"/>
	
		<linearGradient id="SVGID_2_" gradientUnits="userSpaceOnUse" x1="1626.0436" y1="-1917.0725" x2="1766.5099" y2="-1805.6227" gradientTransform="matrix(-0.4515 0.8923 0.8923 0.4515 2609.5554 -484.5479)">
		<stop  offset="0" style="stop-color:#8EA5B3"/>
		<stop  offset="0.7169" style="stop-color:#90A8B6;stop-opacity:0.2831"/>
		<stop  offset="1" style="stop-color:#94ACBA;stop-opacity:0"/>
	</linearGradient>
	<polygon class="st14" points="153.9,304.3 273.6,265 213.5,81.8 93.8,121 	"/>
	
		<linearGradient id="SVGID_3_" gradientUnits="userSpaceOnUse" x1="1236.1781" y1="-1849.322" x2="1376.6445" y2="-1737.8719" gradientTransform="matrix(-0.2522 0.9677 0.9677 0.2522 2265.2744 -630.7827)">
		<stop  offset="0" style="stop-color:#8EA5B3"/>
		<stop  offset="0.7169" style="stop-color:#90A8B6;stop-opacity:0.2831"/>
		<stop  offset="1" style="stop-color:#94ACBA;stop-opacity:0"/>
	</linearGradient>
	<polygon class="st15" points="196.4,300.2 305.1,236.5 207.5,70.1 98.8,133.9 	"/>
	
		<linearGradient id="SVGID_4_" gradientUnits="userSpaceOnUse" x1="3100.3755" y1="-1336.4742" x2="3240.8418" y2="-1225.0244" gradientTransform="matrix(-0.9757 0.2192 0.2192 0.9757 3481.8806 732.9268)">
		<stop  offset="0" style="stop-color:#8EA5B3"/>
		<stop  offset="0.7169" style="stop-color:#90A8B6;stop-opacity:0.2831"/>
		<stop  offset="1" style="stop-color:#94ACBA;stop-opacity:0"/>
	</linearGradient>
	<polygon class="st16" points="0,229.6 106.4,297 209.6,134 103.1,66.6 	"/>
	<circle class="st11" cx="156.1" cy="83.4" r="63"/>
	
		<linearGradient id="SVGID_5_" gradientUnits="userSpaceOnUse" x1="183.6" y1="-1035.0093" x2="183.6" y2="-1088.8983" gradientTransform="matrix(1 0 0 1 0 1120)">
		<stop  offset="0" style="stop-color:#FFFFFF"/>
		<stop  offset="1" style="stop-color:#FFFFFF;stop-opacity:0"/>
	</linearGradient>
	<polygon class="st17" points="187.6,0 179.6,4.6 179.6,95.6 187.6,91 	"/>
	
		<linearGradient id="SVGID_6_" gradientUnits="userSpaceOnUse" x1="188.7" y1="-1031.5807" x2="188.7" y2="-1085.4697" gradientTransform="matrix(1 0 0 1 0 1120)">
		<stop  offset="0" style="stop-color:#FFFFFF"/>
		<stop  offset="1" style="stop-color:#FFFFFF;stop-opacity:0"/>
	</linearGradient>
	<polygon class="st18" points="192.7,3.4 184.7,8 184.7,99 192.7,94.4 	"/>
	
		<linearGradient id="SVGID_7_" gradientUnits="userSpaceOnUse" x1="130.5" y1="-1040.4219" x2="130.5" y2="-1085.9211" gradientTransform="matrix(1 0 0 1 0 1120)">
		<stop  offset="0" style="stop-color:#FFFFFF"/>
		<stop  offset="1" style="stop-color:#FFFFFF;stop-opacity:0"/>
	</linearGradient>
	<polygon class="st19" points="134.5,30.1 126.5,34.7 126.5,85.7 134.5,81.1 	"/>
	
		<linearGradient id="SVGID_8_" gradientUnits="userSpaceOnUse" x1="123.4" y1="-1043.2794" x2="123.4" y2="-1088.7787" gradientTransform="matrix(1 0 0 1 0 1120)">
		<stop  offset="0" style="stop-color:#FFFFFF"/>
		<stop  offset="1" style="stop-color:#FFFFFF;stop-opacity:0"/>
	</linearGradient>
	<polygon class="st20" points="127.4,27.2 119.4,31.8 119.4,82.9 127.4,78.3 	"/>
	
		<linearGradient id="SVGID_9_" gradientUnits="userSpaceOnUse" x1="2579.8252" y1="-1033.1528" x2="2579.8252" y2="-1085.8599" gradientTransform="matrix(-1 0 0 1 2752.4751 1120)">
		<stop  offset="0" style="stop-color:#FFFFFF"/>
		<stop  offset="1" style="stop-color:#FFFFFF;stop-opacity:0"/>
	</linearGradient>
	<polygon class="st21" points="165.7,3.7 179.6,9.4 179.6,97.2 165.7,91.5 	"/>
	<polygon class="st3" points="192.4,107.7 156,127 119.6,107.7 119.6,82.9 156,61.8 192.4,82.9 	"/>
	<polygon class="st3" points="119.6,82.9 156,102.2 192.4,82.9 156,61.8 	"/>
	<polygon class="st3" points="156,102.2 156,127 119.6,107.7 119.6,82.9 	"/>
	<polygon class="st22" points="127.2,82.9 156,99.5 156,66.2 	"/>
	<polygon class="st23" points="156,66.2 156,99.5 184.8,82.9 	"/>
	<polygon class="st3" points="187,83.9 156.4,99.6 125.8,83.9 156.4,68.1 	"/>
	<polygon class="st24" points="156.4,92.9 187,77.1 187,81.7 156.4,97.5 	"/>
	<polygon class="st25" points="156.4,92.9 125.8,77.1 125.8,81.7 156.4,97.5 	"/>
	<polygon class="st26" points="187,77.1 156.4,92.9 125.8,77.1 156.4,61.3 	"/>
	<polygon class="st27" points="156.4,86.8 187,71.1 187,75.7 156.4,91.4 	"/>
	<polygon class="st28" points="156.4,86.8 125.8,71.1 125.8,75.7 156.4,91.4 	"/>
	<polygon class="st29" points="187,71.1 156.4,86.8 125.8,71.1 156.4,55.3 	"/>
	<polygon class="st30" points="186.7,64.9 156.3,80.6 125.8,64.9 156.3,49.2 	"/>
	<polygon class="st31" points="139.2,62.3 133.1,65.5 132.1,64.9 138.1,61.8 	"/>
	<polygon class="st32" points="145.7,61 137.2,65.4 136.1,64.8 144.6,60.4 	"/>
	<polygon class="st32" points="147.6,62 139.1,66.4 138,65.8 146.5,61.4 	"/>
	<polygon class="st32" points="149.5,63 141,67.4 139.9,66.8 148.4,62.4 	"/>
	<polygon class="st31" points="148,66.9 141.9,70 140.9,69.4 146.9,66.3 	"/>
	<polygon class="st32" points="154.5,65.5 145.9,69.9 144.9,69.3 153.4,65 	"/>
	<polygon class="st32" points="156.4,66.5 147.9,70.9 146.8,70.3 155.3,65.9 	"/>
	<polygon class="st32" points="158.3,67.5 149.8,71.9 148.7,71.3 157.2,66.9 	"/>
	<polygon class="st31" points="156.5,71.3 150.4,74.4 149.3,73.8 155.4,70.7 	"/>
	<polygon class="st32" points="162.9,69.9 154.4,74.3 153.3,73.7 161.9,69.3 	"/>
	<polygon class="st32" points="164.9,70.9 156.3,75.3 155.3,74.7 163.8,70.3 	"/>
	<polygon class="st32" points="166.8,71.9 158.3,76.3 157.2,75.7 165.7,71.3 	"/>
	<polygon class="st31" points="152.8,55.4 146.7,58.5 145.7,58 151.7,54.8 	"/>
	<polygon class="st32" points="159.3,54 150.8,58.4 149.7,57.9 158.2,53.5 	"/>
	<polygon class="st32" points="161.2,55 152.7,59.4 151.6,58.9 160.1,54.5 	"/>
	<polygon class="st32" points="163.1,56 154.6,60.4 153.5,59.9 162,55.5 	"/>
	<polygon class="st31" points="161.6,59.9 155.5,63.1 154.5,62.5 160.5,59.4 	"/>
	<polygon class="st32" points="168.1,58.6 159.5,63 158.5,62.4 167,58 	"/>
	<polygon class="st32" points="170,59.6 161.5,64 160.4,63.4 168.9,59 	"/>
	<polygon class="st32" points="171.9,60.6 163.4,65 162.3,64.4 170.8,60 	"/>
	<polygon class="st31" points="170.1,64.3 164,67.4 162.9,66.9 169,63.7 	"/>
	<polygon class="st32" points="176.5,62.9 168,67.3 166.9,66.8 175.5,62.4 	"/>
	<polygon class="st32" points="178.5,63.9 170,68.3 168.9,67.8 177.4,63.4 	"/>
	<polygon class="st32" points="180.4,64.9 171.9,69.3 170.8,68.8 179.3,64.4 	"/>
	<polygon class="st33" points="156.3,80.6 186.7,64.9 186.7,69.5 156.3,85.1 	"/>
	<polygon class="st34" points="156.3,80.6 125.8,64.9 125.8,69.5 156.3,85.1 	"/>
</g>
<g id="deploy-laptop_x60_84x48">
	<g>
		<path class="st35" d="M71.4,38.3V2.6c0-1.4-1.2-2.6-2.6-2.6H14.5c-1.4,0-2.6,1.2-2.6,2.6v35.7"/>
	</g>
	<g>
		<path class="st35" d="M83.7,45.1c0,1.3-1.2,2.4-2.6,2.4H2.6c-1.4,0-2.6-1.1-2.6-2.4s1.2-2.4,2.6-2.4h78.5
			C82.5,42.7,83.7,43.8,83.7,45.1z"/>
	</g>
	<polyline class="st36" points="58.5,16.1 56,13.6 50.3,7.9 44.6,14.2 38.3,7.9 21.8,31.7 28.5,38.2 71.6,38.2 71.6,17.2 62.3,7.9 
		58.5,16.1 	"/>
	<rect x="21.8" y="7.9" class="st3" width="16.5" height="23.8"/>
	<rect x="42.7" y="7.9" class="st3" width="7.6" height="8.3"/>
	<rect x="42.7" y="20.3" class="st3" width="19.3" height="11.4"/>
	<rect x="54.4" y="7.9" class="st3" width="7.6" height="8.3"/>
</g>
<g id="deploy-code_x60_50x69">
	<rect class="st35" width="49.1" height="68.1"/>
	<polygon class="st36" points="48.9,25.6 35.7,12.4 27.7,14.4 30.3,17 29.8,17 25.1,12.4 20.9,12.4 18.3,9.8 6.2,9.8 9.8,13.4 
		9.8,24.2 15.9,30.3 6.2,30.3 6.2,32.4 9.8,36.1 9.8,41.8 15.5,47.5 6.2,47.5 6.2,49.5 9.8,53.2 9.8,58.9 19,68.1 49.1,68 
		49.1,25.7 	"/>
	<rect x="6.2" y="7.7" class="st37" width="12.2" height="2.1"/>
	<rect x="9.8" y="12.4" class="st38" width="15.3" height="2.1"/>
	<rect x="9.8" y="17" class="st38" width="15.3" height="2.1"/>
	<rect x="27.7" y="12.4" class="st3" width="8" height="2.1"/>
	<rect x="27.7" y="17" class="st3" width="3.6" height="2.1"/>
	<rect x="9.8" y="35" class="st38" width="15.3" height="2.1"/>
	<rect x="9.8" y="39.7" class="st38" width="15.3" height="2.1"/>
	<rect x="27.7" y="35" class="st3" width="8" height="2.1"/>
	<rect x="9.8" y="22.1" class="st38" width="15.3" height="2.1"/>
	<rect x="27.7" y="22.1" class="st3" width="8" height="2.1"/>
	<rect x="27.7" y="39.7" class="st3" width="3.6" height="2.1"/>
	<rect x="6.2" y="30.4" class="st37" width="12.2" height="2.1"/>
	<rect x="9.8" y="52.1" class="st38" width="15.3" height="2.1"/>
	<rect x="9.8" y="56.8" class="st38" width="15.3" height="2.1"/>
	<rect x="27.7" y="52.1" class="st3" width="8" height="2.1"/>
	<rect x="27.7" y="56.8" class="st3" width="3.6" height="2.1"/>
	<rect x="6.2" y="47.5" class="st37" width="12.2" height="2.1"/>
</g>
<g id="deploy-app-drip_x60_48x87">
	<polygon class="st35" points="47.5,73.1 23.8,86.8 0,73.1 0,45.7 23.8,32 47.5,45.7 	"/>
	<polyline class="st36" points="7.2,68.9 30.9,82.6 47.5,73.1 47.5,45.7 40.3,41.4 	"/>
	<polygon class="st38" points="40.3,68.9 23.8,78.5 7.2,68.9 7.2,49.8 23.8,40.3 40.3,49.8 	"/>
	<g>
		<path class="st38" d="M40.3,17.8c0-1.6-1.3-3-3-3s-3,1.4-3,3v31.5c0,1.6,1.3,3,3,3s3-1.4,3-3V17.8z"/>
	</g>
	<polyline class="st39" points="33.1,49.5 40.3,53.3 40.3,68.9 30.3,74.7 13.9,65.1 	"/>
	<g>
		<path class="st38" d="M22.3,25.8c0-1.6-1.3-3-3-3c-1.6,0-3,1.4-3,3V44c0,1.6,1.3,3,3,3c1.6,0,3-1.4,3-3V25.8z"/>
	</g>
	<g>
		<path class="st38" d="M13.1,32.1c0-1.6-1.3-3-3-3s-3,1.4-3,3v18.2c0,1.6,1.3,3,3,3s3-1.4,3-3V32.1z"/>
	</g>
	<polyline class="st39" points="17,44.5 24.2,48.3 24.2,57.9 14.2,63.7 	"/>
	<g>
		<path class="st38" d="M31.4,32.1c0-1.6-1.3-3-3-3s-3,1.4-3,3V45c0,1.6,1.3,3,3,3s3-1.4,3-3V32.1z"/>
	</g>
	<polygon class="st3" points="33.7,65.1 23.8,70.8 13.9,65.1 13.9,53.6 23.8,47.9 33.7,53.6 	"/>
	<g>
		<ellipse class="st38" cx="19.3" cy="17.3" rx="3" ry="2.9"/>
	</g>
	<g>
		<path class="st3" d="M18.1,46.4c0-1.2-1-2.2-2.1-2.2s-2.1,1-2.1,2.2v9.9c0,1.2,1,2.2,2.1,2.2s2.1-1,2.1-2.2V46.4z"/>
	</g>
	<g>
		<path class="st38" d="M40.3,3c0-1.6-1.3-3-3-3s-3,1.4-3,3v5.4c0,1.6,1.3,3,3,3s3-1.4,3-3V3z"/>
	</g>
	<g>
		<path class="st3" d="M33.7,51c0-1.2-1-2.2-2.1-2.2s-2.1,1-2.1,2.2v5.3c0,1.2,1,2.2,2.1,2.2s2.1-1,2.1-2.2V51z"/>
	</g>
	<g>
		<path class="st3" d="M26.4,42.4c0-1.2-1-2.2-2.1-2.2s-2.1,1-2.1,2.2v9.3c0,1.2,1,2.2,2.1,2.2s2.1-1,2.1-2.2V42.4z"/>
	</g>
</g>
<g id="admin-refresh_x60_52x52">
	<circle class="st40" cx="25.7" cy="25.7" r="25.7"/>
	<path class="st41" d="M33.1,10.9c5.4,2.7,9.1,8.3,9.1,14.7c0,9.1-7.4,16.5-16.5,16.5S9.2,34.7,9.2,25.6S16.6,9.1,25.7,9.1"/>
	<polyline class="st41" points="33.1,18.4 33.1,10.9 40.5,10.9 	"/>
</g>
<g id="admin-rebuild_x60_52x52">
	<circle class="st40" cx="25.7" cy="25.7" r="25.7"/>
	<line class="st41" x1="16.2" y1="35.6" x2="16.2" y2="39.6"/>
	<line class="st41" x1="16.2" y1="12.1" x2="16.2" y2="29.3"/>
	<line class="st41" x1="21" y1="29.3" x2="21" y2="41.8"/>
	<line class="st41" x1="21" y1="9.8" x2="21" y2="23.6"/>
	<line class="st41" x1="25.7" y1="39.6" x2="25.7" y2="42.5"/>
	<line class="st41" x1="25.7" y1="21.1" x2="25.7" y2="34.5"/>
	<line class="st41" x1="25.7" y1="8.8" x2="25.7" y2="15.3"/>
	<line class="st41" x1="30.5" y1="29.3" x2="30.5" y2="41.8"/>
	<line class="st41" x1="30.5" y1="10.9" x2="30.5" y2="23.6"/>
	<line class="st41" x1="35.3" y1="35.6" x2="35.3" y2="39.6"/>
	<line class="st41" x1="35.3" y1="13.6" x2="35.3" y2="29.3"/>
</g>
<g id="admin-reboot_x60_52x52">
	<circle class="st40" cx="25.7" cy="25.7" r="25.7"/>
	<line class="st41" x1="25.7" y1="18.4" x2="25.7" y2="4.1"/>
	<path class="st41" d="M19.3,10.5c-5.9,2.5-10,8.4-10,15.2c0,9.1,7.4,16.5,16.5,16.5s16.5-7.4,16.5-16.5c0-6.8-4.1-12.7-10-15.2"/>
</g>
<g id="admin-delete_x60_52x52">
	<circle class="st40" cx="25.7" cy="25.7" r="25.7"/>
	<line class="st41" x1="14.1" y1="14" x2="37.5" y2="37.4"/>
	<line class="st41" x1="37.5" y1="14" x2="14.1" y2="37.4"/>
</g>
<g id="admin-manage_x60_52x52">
	<circle class="st40" cx="25.7" cy="25.7" r="25.7"/>
	<polygon class="st41" points="13.6,18.7 25.7,11.6 37.9,18.7 37.9,32.7 25.7,39.7 13.6,32.7 	"/>
	<polyline class="st41" points="13.6,32.7 25.7,25.7 25.7,11.6 	"/>
	<line class="st41" x1="25.7" y1="17.3" x2="37.9" y2="24.3"/>
	<line class="st41" x1="31.8" y1="21" x2="31.8" y2="35"/>
	<line class="st41" x1="19.5" y1="36.2" x2="31.6" y2="29.2"/>
	<line class="st41" x1="13.6" y1="24.3" x2="25.7" y2="17.3"/>
</g>
<g id="admin-update_x60_52x52">
	<circle class="st40" cx="25.7" cy="25.7" r="25.7"/>
	<line class="st41" x1="15.3" y1="25.7" x2="35.3" y2="25.7"/>
	<polyline class="st41" points="28.9,19.4 35.3,25.7 28.9,32.1 	"/>
</g>
<g id="hex-in-flux_x60_46x53">
	<polygon class="st42" points="1,13.626 22.601,1.155 44.202,13.626 44.202,38.569 22.601,51.04 1,38.569 	"/>
</g>
<g id="preparing-platform_x60_30x30">
	<circle class="st43" cx="14.8" cy="14.8" r="14.3"/>
	<linearGradient id="SVGID_10_" gradientUnits="userSpaceOnUse" x1="17.3064" y1="5.6349" x2="25.5934" y2="15.511">
		<stop  offset="0.3033" style="stop-color:#FF7100"/>
		<stop  offset="1" style="stop-color:#FF7100;stop-opacity:0"/>
	</linearGradient>
	<path class="st44" d="M17.174,7.412c3.797,0.694,6.747,3.811,7.188,7.691"/>
	
		<ellipse transform="matrix(0.9656 -0.2601 0.2601 0.9656 -1.3139 4.2885)" class="st45" cx="15.548" cy="7.109" rx="3.151" ry="3.151"/>
	
		<ellipse transform="matrix(0.9656 -0.2601 0.2601 0.9656 -3.3371 4.3805)" class="st45" cx="14.884" cy="14.8" rx="1.619" ry="1.619"/>
	
		<linearGradient id="SVGID_11_" gradientUnits="userSpaceOnUse" x1="270.5179" y1="-141.5695" x2="278.805" y2="-131.6934" gradientTransform="matrix(-0.5 -0.866 0.866 -0.5 263.4713 180.7026)">
		<stop  offset="0.3033" style="stop-color:#FF7100"/>
		<stop  offset="1" style="stop-color:#FF7100;stop-opacity:0"/>
	</linearGradient>
	<path class="st46" d="M7.215,16.438c-1.298-3.635-0.073-7.749,3.066-10.071"/>
	
		<ellipse transform="matrix(0.7062 -0.708 0.708 0.7062 -10.4613 10.7864)" class="st45" cx="7.765" cy="17.998" rx="3.151" ry="3.151"/>
	
		<linearGradient id="SVGID_12_" gradientUnits="userSpaceOnUse" x1="271.3949" y1="151.3204" x2="279.6819" y2="161.1964" gradientTransform="matrix(-0.5 0.866 -0.866 -0.5 288.2287 -137.8215)">
		<stop  offset="0.3033" style="stop-color:#FF7100"/>
		<stop  offset="1" style="stop-color:#FF7100;stop-opacity:0"/>
	</linearGradient>
	<path class="st47" d="M20.011,20.55c-2.499,2.941-6.674,3.938-10.254,2.38"/>
	
		<ellipse transform="matrix(0.2575 -0.9663 0.9663 0.2575 -2.9866 34.6994)" class="st45" cx="21.087" cy="19.293" rx="3.151" ry="3.151"/>
</g>
</svg>
