<?xml version="1.0" encoding="iso-8859-1"?>
<!-- Generator: Adobe Illustrator 19.2.1, SVG Export Plug-In . SVG Version: 6.00 Build 0)  -->
<svg version="1.1" id="Layer_1" xmlns="http://www.w3.org/2000/svg" xmlns:xlink="http://www.w3.org/1999/xlink" x="0px" y="0px"
	 width="640px" height="480px" viewBox="0 0 640 480" style="enable-background:new 0 0 640 480;" xml:space="preserve">
<style type="text/css">
	.st0{fill:#F06368;}
	.st1{fill:#CA2128;}
	.st2{fill:url(#SVGID_1_);}
	.st3{fill:#BE2227;}
	.st4{fill:url(#SVGID_2_);}
	.st5{fill:#621310;}
	.st6{fill:url(#SVGID_3_);}
	.st7{fill:#D32034;}
	.st8{fill:url(#SVGID_4_);}
	.st9{fill:url(#SVGID_5_);}
	.st10{fill:url(#SVGID_6_);}
	.st11{fill:url(#SVGID_7_);}
	.st12{fill:#EF4C53;}
	.st13{opacity:0.61;fill:url(#SVGID_8_);enable-background:new    ;}
	.st14{fill:url(#SVGID_9_);}
	.st15{fill:url(#SVGID_10_);}
	.st16{fill:#65BC81;}
	.st17{fill:#1F8B35;}
	.st18{fill:#2BA240;}
	.st19{fill:none;stroke:#D6CBA6;stroke-miterlimit:10;}
	.st20{fill:none;stroke:#547F91;stroke-width:1.5;stroke-miterlimit:10;}
	.st21{fill:none;stroke:#547F91;stroke-width:1.5;stroke-miterlimit:10;stroke-dasharray:1.9446,1.9446;}
	.st22{fill:#547F91;}
</style>
<g id="ruby">
	<polygon id="_x3E_bg" class="st0" points="46.525,41.294 23.263,54.725 0,41.294 0,14.43 23.263,1 46.525,14.433 	"/>
	<path class="st1" d="M24.018,34.21"/>
	<linearGradient id="SVGID_1_" gradientUnits="userSpaceOnUse" x1="37.754" y1="70.0156" x2="28.9025" y2="27.0231">
		<stop  offset="0" style="stop-color:#EF4C53"/>
		<stop  offset="0.1648" style="stop-color:#EB4A51"/>
		<stop  offset="0.336" style="stop-color:#DE454B"/>
		<stop  offset="0.5103" style="stop-color:#CA3D41"/>
		<stop  offset="0.6867" style="stop-color:#AC3133"/>
		<stop  offset="0.8629" style="stop-color:#872221"/>
		<stop  offset="1" style="stop-color:#651410"/>
	</linearGradient>
	<polygon class="st2" points="36.9,34.21 29.617,25.623 24.018,34.956 	"/>
	<polygon class="st3" points="29.617,25.623 35.593,21.703 36.9,34.21 	"/>
	<linearGradient id="SVGID_2_" gradientUnits="userSpaceOnUse" x1="54.975" y1="36.0388" x2="33.1656" y2="24.3439">
		<stop  offset="0" style="stop-color:#EF4C53"/>
		<stop  offset="0.1648" style="stop-color:#EB4A51"/>
		<stop  offset="0.336" style="stop-color:#DE454B"/>
		<stop  offset="0.5103" style="stop-color:#CA3D41"/>
		<stop  offset="0.6867" style="stop-color:#AC3133"/>
		<stop  offset="0.8629" style="stop-color:#872221"/>
		<stop  offset="1" style="stop-color:#651410"/>
	</linearGradient>
	<polygon class="st4" points="36.9,34.21 43.059,25.623 35.593,17.782 35.593,21.703 	"/>
	<polygon class="st5" points="11.137,34.21 18.417,25.623 24.018,34.956 	"/>
	<polygon class="st3" points="18.417,25.623 12.443,21.703 11.137,34.21 	"/>
	<polygon class="st3" points="18.417,25.623 12.443,21.703 11.137,34.21 	"/>
	<linearGradient id="SVGID_3_" gradientUnits="userSpaceOnUse" x1="9.9052" y1="33.0442" x2="13.595" y2="26.7789">
		<stop  offset="0" style="stop-color:#FFFFFF"/>
		<stop  offset="1" style="stop-color:#FFFFFF;stop-opacity:0"/>
	</linearGradient>
	<polygon class="st6" points="18.417,25.623 12.443,21.703 11.137,34.21 	"/>
	<polygon class="st7" points="11.137,33.462 4.976,25.623 12.443,17.782 12.443,21.703 	"/>
	<linearGradient id="SVGID_4_" gradientUnits="userSpaceOnUse" x1="19.1769" y1="21.313" x2="8.362" y2="27.6217">
		<stop  offset="0" style="stop-color:#FFFFFF"/>
		<stop  offset="1" style="stop-color:#FFFFFF;stop-opacity:0"/>
	</linearGradient>
	<polygon class="st8" points="11.137,33.462 4.976,25.623 12.443,17.782 12.443,21.703 	"/>
	<linearGradient id="SVGID_5_" gradientUnits="userSpaceOnUse" x1="4.9056" y1="29.5277" x2="22.3317" y2="19.6415">
		<stop  offset="0" style="stop-color:#621310"/>
		<stop  offset="0.172" style="stop-color:#661312;stop-opacity:0.828"/>
		<stop  offset="0.3508" style="stop-color:#731418;stop-opacity:0.6492"/>
		<stop  offset="0.5327" style="stop-color:#871621;stop-opacity:0.4673"/>
		<stop  offset="0.7167" style="stop-color:#A5182E;stop-opacity:0.2833"/>
		<stop  offset="0.9007" style="stop-color:#CA1A3F;stop-opacity:0.0993"/>
		<stop  offset="1" style="stop-color:#E11C4A;stop-opacity:0"/>
	</linearGradient>
	<polygon class="st9" points="11.137,33.462 4.976,25.623 12.443,17.782 12.443,21.703 	"/>
	<linearGradient id="SVGID_6_" gradientUnits="userSpaceOnUse" x1="19.4641" y1="25.4402" x2="25.8861" y2="29.6744">
		<stop  offset="0" style="stop-color:#EE3A3F"/>
		<stop  offset="1" style="stop-color:#AC2125"/>
	</linearGradient>
	<polygon class="st10" points="24.018,25.621 18.417,25.621 18.417,25.623 24.018,34.956 29.617,25.623 29.617,25.621 	"/>
	<linearGradient id="SVGID_7_" gradientUnits="userSpaceOnUse" x1="17.0204" y1="34.5612" x2="26.362" y2="25.0513">
		<stop  offset="0" style="stop-color:#FFFFFF"/>
		<stop  offset="1" style="stop-color:#FFFFFF;stop-opacity:0.42"/>
	</linearGradient>
	<polygon class="st11" points="24.018,25.621 18.417,25.621 18.417,25.623 24.018,34.956 29.617,25.623 29.617,25.621 	"/>
	<polygon class="st12" points="30.46,14.737 24.018,14.737 17.577,14.737 12.443,17.782 12.443,21.703 18.417,25.623 24.018,25.621 
		29.617,25.623 35.593,21.703 35.593,17.782 	"/>
	<linearGradient id="SVGID_8_" gradientUnits="userSpaceOnUse" x1="39.5551" y1="1.1273" x2="22.4085" y2="21.6709">
		<stop  offset="0" style="stop-color:#FFFFFF"/>
		<stop  offset="1" style="stop-color:#FFFFFF;stop-opacity:0"/>
	</linearGradient>
	<polygon class="st13" points="30.46,14.737 24.018,14.737 17.577,14.737 12.443,17.782 12.443,21.703 18.417,25.623 24.018,25.621 
		29.617,25.623 35.593,21.703 35.593,17.782 	"/>
	<polygon class="st1" points="24.045,34.954 24.045,43.712 36.9,34.21 	"/>
	<linearGradient id="SVGID_9_" gradientUnits="userSpaceOnUse" x1="46.8311" y1="51.5682" x2="13.1866" y2="33.5272">
		<stop  offset="0" style="stop-color:#EF4C53"/>
		<stop  offset="0.1648" style="stop-color:#EB4A51"/>
		<stop  offset="0.336" style="stop-color:#DE454B"/>
		<stop  offset="0.5103" style="stop-color:#CA3D41"/>
		<stop  offset="0.6867" style="stop-color:#AC3133"/>
		<stop  offset="0.8629" style="stop-color:#872221"/>
		<stop  offset="1" style="stop-color:#651410"/>
	</linearGradient>
	<polygon class="st14" points="24.045,34.954 24.018,34.956 11.137,34.21 24.018,43.731 24.045,43.712 	"/>
	<linearGradient id="SVGID_10_" gradientUnits="userSpaceOnUse" x1="12.443" y1="21.703" x2="12.443" y2="21.703">
		<stop  offset="0" style="stop-color:#EF4C53"/>
		<stop  offset="0.1648" style="stop-color:#EB4A51"/>
		<stop  offset="0.336" style="stop-color:#DE454B"/>
		<stop  offset="0.5103" style="stop-color:#CA3D41"/>
		<stop  offset="0.6867" style="stop-color:#AC3133"/>
		<stop  offset="0.8629" style="stop-color:#872221"/>
		<stop  offset="1" style="stop-color:#651410"/>
	</linearGradient>
	<path class="st15" d="M12.443,21.703"/>
</g>
<g id="mongo-db">
	<polygon id="_x3E_bg_1_" class="st16" points="46.526,41.294 23.262,54.725 0,41.294 0,14.43 23.262,1 46.526,14.433 	"/>
	<path class="st17" d="M23.262,10.33v31.978c0,0,8.624-3.63,8.624-15.808S23.262,10.33,23.262,10.33z"/>
	<path class="st18" d="M23.262,10.33v31.978c0,0-8.624-3.63-8.624-15.808S23.262,10.33,23.262,10.33z"/>
	<line class="st19" x1="23.262" y1="42.307" x2="23.262" y2="46.551"/>
</g>
<g id="stats">
	<line class="st20" x1="0.75" y1="2.223" x2="0.75" y2="12.04"/>
	<line class="st20" x1="4.461" y1="4.115" x2="4.461" y2="12.04"/>
	<line class="st20" x1="8.172" y1="1" x2="8.172" y2="12.04"/>
	<line class="st20" x1="11.883" y1="3.662" x2="11.883" y2="12.04"/>
	<line class="st20" x1="15.594" y1="5.403" x2="15.594" y2="12.04"/>
</g>
<g id="scale">
	
		<ellipse transform="matrix(0.9876 -0.1567 0.1567 0.9876 -1.4299 1.005)" class="st20" cx="5.658" cy="9.571" rx="4.908" ry="4.908"/>
	<g>
		<g>
			<path class="st20" d="M10.112,3.168c0.259-0.208,0.535-0.396,0.826-0.563"/>
			<path class="st21" d="M12.747,1.906c0.13-0.029,0.263-0.054,0.397-0.075c3.533-0.559,6.853,1.85,7.414,5.385
				c0.56,3.534-1.85,6.853-5.384,7.414c-0.553,0.087-1.1,0.102-1.632,0.052"/>
			<path class="st20" d="M12.585,14.516c-0.325-0.082-0.642-0.188-0.948-0.318"/>
		</g>
	</g>
</g>
<g id="app-component">
	<polygon class="st20" points="15.196,14.376 7.973,18.547 0.75,14.376 0.75,6.036 7.973,1.866 15.196,6.037 	"/>
	<polygon class="st22" points="4.869,12.47 7.973,7.093 11.078,12.47 	"/>
</g>
<g id="platform-component">
	<circle class="st20" cx="1.591" cy="7.575" r="0.841"/>
	<circle class="st20" cx="6.502" cy="11.488" r="0.841"/>
	<circle class="st20" cx="6.502" cy="3.714" r="0.841"/>
	<polyline class="st20" points="7.181,11.488 15.812,11.488 17.945,9.354 	"/>
	<polyline class="st20" points="7.181,3.663 15.812,3.663 17.945,1.53 	"/>
	<line class="st20" x1="2.828" y1="7.575" x2="14.815" y2="7.575"/>
</g>
<g id="instance-health">
	<circle class="st22" cx="8.095" cy="2.029" r="1.029"/>
	<circle class="st22" cx="8.092" cy="5.307" r="0.911"/>
	<circle class="st22" cx="8.095" cy="9.252" r="1.029"/>
	
		<ellipse transform="matrix(0.704 -0.7102 0.7102 0.704 -1.3706 9.5698)" class="st22" cx="10.795" cy="6.429" rx="0.911" ry="0.911"/>
	<ellipse transform="matrix(1 -0.0091 0.0091 1 -0.0828 0.1089)" class="st22" cx="11.927" cy="9.153" rx="0.911" ry="0.91"/>
	
		<ellipse transform="matrix(0.6975 -0.7166 0.7166 0.6975 -5.2184 11.3355)" class="st22" cx="10.817" cy="11.849" rx="0.911" ry="0.91"/>
	
		<ellipse transform="matrix(0.9998 -0.0182 0.0182 0.9998 -0.2354 0.1498)" class="st22" cx="8.111" cy="13.008" rx="0.911" ry="0.91"/>
	
		<ellipse transform="matrix(0.691 -0.7229 0.7229 0.691 -6.9507 7.5905)" class="st22" cx="5.403" cy="11.925" rx="0.911" ry="0.911"/>
	
		<ellipse transform="matrix(0.9996 -0.0271 0.0271 0.9996 -0.2486 0.1177)" class="st22" cx="4.218" cy="9.232" rx="0.911" ry="0.91"/>
	
		<ellipse transform="matrix(0.6848 -0.7287 0.7287 0.6848 -3.0873 5.8979)" class="st22" cx="5.274" cy="6.518" rx="0.91" ry="0.911"/>
	
		<ellipse transform="matrix(0.4398 -0.8981 0.8981 0.4398 3.8084 11.6297)" class="st22" cx="11.226" cy="2.762" rx="1.029" ry="1.029"/>
	
		<ellipse transform="matrix(0.7901 -0.613 0.613 0.7901 -0.0753 9.4223)" class="st22" cx="13.72" cy="4.821" rx="1.029" ry="1.029"/>
	
		<ellipse transform="matrix(0.9792 -0.2031 0.2031 0.9792 -1.2578 3.2204)" class="st22" cx="15.063" cy="7.739" rx="1.03" ry="1.029"/>
	
		<ellipse transform="matrix(0.2483 -0.9687 0.9687 0.2483 0.6463 22.7432)" class="st22" cx="14.977" cy="10.955" rx="1.029" ry="1.029"/>
	
		<ellipse transform="matrix(0.6494 -0.7605 0.7605 0.6494 -5.768 15.0954)" class="st22" cx="13.486" cy="13.803" rx="1.029" ry="1.029"/>
	
		<ellipse transform="matrix(0.9177 -0.3973 0.3973 0.9177 -5.3415 5.6167)" class="st22" cx="10.885" cy="15.7" rx="1.029" ry="1.029"/>
	
		<ellipse transform="matrix(0.047 -0.9989 0.9989 0.047 -8.9019 23.2248)" class="st22" cx="7.721" cy="16.278" rx="1.029" ry="1.028"/>
	
		<ellipse transform="matrix(0.4818 -0.8763 0.8763 0.4818 -11.0858 12.0218)" class="st22" cx="4.621" cy="15.384" rx="1.03" ry="1.029"/>
	
		<ellipse transform="matrix(0.8181 -0.575 0.575 0.8181 -7.2065 3.6828)" class="st22" cx="2.219" cy="13.234" rx="1.03" ry="1.028"/>
	
		<ellipse transform="matrix(0.9877 -0.1562 0.1562 0.9877 -1.5865 0.2866)" class="st22" cx="1.03" cy="10.238" rx="1.03" ry="1.029"/>
	
		<ellipse transform="matrix(0.2942 -0.9557 0.9557 0.2942 -5.8432 6.1695)" class="st22" cx="1.256" cy="7.041" rx="1.029" ry="1.03"/>
	
		<ellipse transform="matrix(0.6846 -0.7289 0.7289 0.6846 -2.204 3.4548)" class="st22" cx="2.89" cy="4.274" rx="1.029" ry="1.03"/>
	
		<ellipse transform="matrix(0.9354 -0.3535 0.3535 0.9354 -0.5143 2.1278)" class="st22" cx="5.567" cy="2.472" rx="1.029" ry="1.03"/>
</g>
</svg>
