<?xml version="1.0" encoding="iso-8859-1"?>
<!-- Generator: Adobe Illustrator 19.2.1, SVG Export Plug-In . SVG Version: 6.00 Build 0)  -->
<svg version="1.1" id="Layer_1" xmlns="http://www.w3.org/2000/svg" xmlns:xlink="http://www.w3.org/1999/xlink" x="0px" y="0px"
	 viewBox="0 0 200 200" style="enable-background:new 0 0 200 200;" xml:space="preserve">
<style type="text/css">
	.st0{fill:#F06368;stroke:#F06368;stroke-width:2;stroke-miterlimit:10;}
	.st1{fill:#CA2128;}
	.st2{fill:url(#SVGID_1_);}
	.st3{fill:#BE2227;}
	.st4{fill:url(#SVGID_2_);}
	.st5{fill:#621310;}
	.st6{fill:url(#SVGID_3_);}
	.st7{fill:#D32034;}
	.st8{fill:url(#SVGID_4_);}
	.st9{fill:url(#SVGID_5_);}
	.st10{fill:url(#SVGID_6_);}
	.st11{fill:url(#SVGID_7_);}
	.st12{fill:#EF4C53;}
	.st13{opacity:0.61;fill:url(#SVGID_8_);enable-background:new    ;}
	.st14{fill:url(#SVGID_9_);}
	.st15{fill:url(#SVGID_10_);}
	.st16{fill:#65BC81;stroke:#65BC81;stroke-width:2;stroke-miterlimit:10;}
	.st17{fill:#1F8B35;}
	.st18{fill:#2BA240;}
	.st19{fill:none;stroke:#D6CBA6;stroke-miterlimit:10;}
	.st20{fill:none;stroke:#547F91;stroke-width:1.5;stroke-miterlimit:10;}
	.st21{fill:none;stroke:#547F91;stroke-width:1.5;stroke-miterlimit:10;stroke-dasharray:1.9446,1.9446;}
	.st22{fill:#547F91;}
	.st23{fill:#FFFFFF;}
	.st24{fill:none;stroke:#678C9C;stroke-width:1.5;stroke-miterlimit:10;}
	.st25{fill:#6FCFC9;stroke:#6FCFC9;stroke-width:2;stroke-miterlimit:10;}
	.st26{fill:none;stroke:#358285;stroke-width:1.7038;stroke-linecap:round;stroke-linejoin:round;stroke-miterlimit:10;}
	.st27{fill:none;}
</style>
<g id="hex-ruby_x60_49x57">
	<polygon id="_x3E_bg" class="st0" points="47.525,41.449 24.263,54.88 1,41.449 1,14.585 24.263,1.155 47.525,14.588 	"/>
	<path class="st1" d="M25.018,34.365"/>
	
		<linearGradient id="SVGID_1_" gradientUnits="userSpaceOnUse" x1="38.754" y1="411.8297" x2="29.9025" y2="454.8222" gradientTransform="matrix(1 0 0 -1 0 482)">
		<stop  offset="0" style="stop-color:#EF4C53"/>
		<stop  offset="0.1648" style="stop-color:#EB4A51"/>
		<stop  offset="0.336" style="stop-color:#DE454B"/>
		<stop  offset="0.5103" style="stop-color:#CA3D41"/>
		<stop  offset="0.6867" style="stop-color:#AC3133"/>
		<stop  offset="0.8629" style="stop-color:#872221"/>
		<stop  offset="1" style="stop-color:#651410"/>
	</linearGradient>
	<polygon class="st2" points="37.9,34.365 30.617,25.778 25.018,35.111 	"/>
	<polygon class="st3" points="30.617,25.778 36.593,21.858 37.9,34.365 	"/>
	
		<linearGradient id="SVGID_2_" gradientUnits="userSpaceOnUse" x1="55.975" y1="445.8065" x2="34.1656" y2="457.5014" gradientTransform="matrix(1 0 0 -1 0 482)">
		<stop  offset="0" style="stop-color:#EF4C53"/>
		<stop  offset="0.1648" style="stop-color:#EB4A51"/>
		<stop  offset="0.336" style="stop-color:#DE454B"/>
		<stop  offset="0.5103" style="stop-color:#CA3D41"/>
		<stop  offset="0.6867" style="stop-color:#AC3133"/>
		<stop  offset="0.8629" style="stop-color:#872221"/>
		<stop  offset="1" style="stop-color:#651410"/>
	</linearGradient>
	<polygon class="st4" points="37.9,34.365 44.059,25.778 36.593,17.937 36.593,21.858 	"/>
	<polygon class="st5" points="12.137,34.365 19.417,25.778 25.018,35.111 	"/>
	<polygon class="st3" points="19.417,25.778 13.443,21.858 12.137,34.365 	"/>
	<polygon class="st3" points="19.417,25.778 13.443,21.858 12.137,34.365 	"/>
	
		<linearGradient id="SVGID_3_" gradientUnits="userSpaceOnUse" x1="10.9052" y1="448.8011" x2="14.595" y2="455.0664" gradientTransform="matrix(1 0 0 -1 0 482)">
		<stop  offset="0" style="stop-color:#FFFFFF"/>
		<stop  offset="1" style="stop-color:#FFFFFF;stop-opacity:0"/>
	</linearGradient>
	<polygon class="st6" points="19.417,25.778 13.443,21.858 12.137,34.365 	"/>
	<polygon class="st7" points="12.137,33.617 5.976,25.778 13.443,17.937 13.443,21.858 	"/>
	
		<linearGradient id="SVGID_4_" gradientUnits="userSpaceOnUse" x1="20.1769" y1="460.5323" x2="9.362" y2="454.2236" gradientTransform="matrix(1 0 0 -1 0 482)">
		<stop  offset="0" style="stop-color:#FFFFFF"/>
		<stop  offset="1" style="stop-color:#FFFFFF;stop-opacity:0"/>
	</linearGradient>
	<polygon class="st8" points="12.137,33.617 5.976,25.778 13.443,17.937 13.443,21.858 	"/>
	
		<linearGradient id="SVGID_5_" gradientUnits="userSpaceOnUse" x1="5.9056" y1="452.3176" x2="23.3317" y2="462.2038" gradientTransform="matrix(1 0 0 -1 0 482)">
		<stop  offset="0" style="stop-color:#621310"/>
		<stop  offset="0.172" style="stop-color:#661312;stop-opacity:0.828"/>
		<stop  offset="0.3508" style="stop-color:#731418;stop-opacity:0.6492"/>
		<stop  offset="0.5327" style="stop-color:#871621;stop-opacity:0.4673"/>
		<stop  offset="0.7167" style="stop-color:#A5182E;stop-opacity:0.2833"/>
		<stop  offset="0.9007" style="stop-color:#CA1A3F;stop-opacity:0.0993"/>
		<stop  offset="1" style="stop-color:#E11C4A;stop-opacity:0"/>
	</linearGradient>
	<polygon class="st9" points="12.137,33.617 5.976,25.778 13.443,17.937 13.443,21.858 	"/>
	
		<linearGradient id="SVGID_6_" gradientUnits="userSpaceOnUse" x1="20.4641" y1="456.4051" x2="26.8861" y2="452.1709" gradientTransform="matrix(1 0 0 -1 0 482)">
		<stop  offset="0" style="stop-color:#EE3A3F"/>
		<stop  offset="1" style="stop-color:#AC2125"/>
	</linearGradient>
	<polygon class="st10" points="25.018,25.776 19.417,25.776 19.417,25.778 25.018,35.111 30.617,25.778 30.617,25.776 	"/>
	
		<linearGradient id="SVGID_7_" gradientUnits="userSpaceOnUse" x1="18.0204" y1="447.2841" x2="27.362" y2="456.794" gradientTransform="matrix(1 0 0 -1 0 482)">
		<stop  offset="0" style="stop-color:#FFFFFF"/>
		<stop  offset="1" style="stop-color:#FFFFFF;stop-opacity:0.42"/>
	</linearGradient>
	<polygon class="st11" points="25.018,25.776 19.417,25.776 19.417,25.778 25.018,35.111 30.617,25.778 30.617,25.776 	"/>
	<polygon class="st12" points="31.46,14.892 25.018,14.892 18.577,14.892 13.443,17.937 13.443,21.858 19.417,25.778 25.018,25.776 
		30.617,25.778 36.593,21.858 36.593,17.937 	"/>
	
		<linearGradient id="SVGID_8_" gradientUnits="userSpaceOnUse" x1="40.5551" y1="480.718" x2="23.4085" y2="460.1744" gradientTransform="matrix(1 0 0 -1 0 482)">
		<stop  offset="0" style="stop-color:#FFFFFF"/>
		<stop  offset="1" style="stop-color:#FFFFFF;stop-opacity:0"/>
	</linearGradient>
	<polygon class="st13" points="31.46,14.892 25.018,14.892 18.577,14.892 13.443,17.937 13.443,21.858 19.417,25.778 25.018,25.776 
		30.617,25.778 36.593,21.858 36.593,17.937 	"/>
	<polygon class="st1" points="25.045,35.109 25.045,43.867 37.9,34.365 	"/>
	
		<linearGradient id="SVGID_9_" gradientUnits="userSpaceOnUse" x1="47.8311" y1="430.2771" x2="14.1866" y2="448.3181" gradientTransform="matrix(1 0 0 -1 0 482)">
		<stop  offset="0" style="stop-color:#EF4C53"/>
		<stop  offset="0.1648" style="stop-color:#EB4A51"/>
		<stop  offset="0.336" style="stop-color:#DE454B"/>
		<stop  offset="0.5103" style="stop-color:#CA3D41"/>
		<stop  offset="0.6867" style="stop-color:#AC3133"/>
		<stop  offset="0.8629" style="stop-color:#872221"/>
		<stop  offset="1" style="stop-color:#651410"/>
	</linearGradient>
	<polygon class="st14" points="25.045,35.109 25.018,35.111 12.137,34.365 25.018,43.886 25.045,43.867 	"/>
	
		<linearGradient id="SVGID_10_" gradientUnits="userSpaceOnUse" x1="13.443" y1="460.1423" x2="13.443" y2="460.1423" gradientTransform="matrix(1 0 0 -1 0 482)">
		<stop  offset="0" style="stop-color:#EF4C53"/>
		<stop  offset="0.1648" style="stop-color:#EB4A51"/>
		<stop  offset="0.336" style="stop-color:#DE454B"/>
		<stop  offset="0.5103" style="stop-color:#CA3D41"/>
		<stop  offset="0.6867" style="stop-color:#AC3133"/>
		<stop  offset="0.8629" style="stop-color:#872221"/>
		<stop  offset="1" style="stop-color:#651410"/>
	</linearGradient>
	<path class="st15" d="M13.443,21.858"/>
</g>
<g id="hex-mongo-db_x60_49x57">
	<polygon id="_x3E_bg_1_" class="st16" points="47.526,41.449 24.262,54.88 1,41.449 1,14.585 24.262,1.155 47.526,14.588 	"/>
	<path class="st17" d="M24.262,10.485v31.978c0,0,8.624-3.63,8.624-15.808S24.262,10.485,24.262,10.485z"/>
	<path class="st18" d="M24.262,10.485v31.978c0,0-8.624-3.63-8.624-15.808S24.262,10.485,24.262,10.485z"/>
	<line class="st19" x1="24.262" y1="42.462" x2="24.262" y2="46.706"/>
</g>
<g id="nav-stats_x60_17x12">
	<line class="st20" x1="0.75" y1="1.223" x2="0.75" y2="11.04"/>
	<line class="st20" x1="4.461" y1="3.115" x2="4.461" y2="11.04"/>
	<line class="st20" x1="8.172" y1="0" x2="8.172" y2="11.04"/>
	<line class="st20" x1="11.883" y1="2.662" x2="11.883" y2="11.04"/>
	<line class="st20" x1="15.594" y1="4.403" x2="15.594" y2="11.04"/>
</g>
<g id="nav-scale_x60_22x15">
	
		<ellipse transform="matrix(0.9876 -0.1567 0.1567 0.9876 -1.2706 0.9924)" class="st20" cx="5.658" cy="8.554" rx="4.908" ry="4.908"/>
	<g>
		<g>
			<path class="st20" d="M10.131,2.168c0.259-0.208,0.535-0.396,0.826-0.563"/>
			<path class="st21" d="M12.766,0.906c0.13-0.029,0.263-0.054,0.397-0.075c3.533-0.559,6.853,1.85,7.414,5.385
				c0.56,3.534-1.85,6.853-5.384,7.414c-0.553,0.087-1.1,0.102-1.632,0.052"/>
			<path class="st20" d="M12.604,13.516c-0.325-0.082-0.642-0.188-0.948-0.318"/>
		</g>
	</g>
</g>
<g id="nav-app-component_x60_16x19">
	<polygon class="st20" points="15.196,13.376 7.973,17.547 0.75,13.376 0.75,5.036 7.973,0.866 15.196,5.037 	"/>
	<polygon class="st22" points="4.869,11.47 7.973,6.093 11.078,11.47 	"/>
</g>
<g id="nav-platform-component_x60_19x13">
	<circle class="st20" cx="1.591" cy="6.575" r="0.841"/>
	<circle class="st20" cx="6.502" cy="10.488" r="0.841"/>
	<circle class="st20" cx="6.502" cy="2.714" r="0.841"/>
	<polyline class="st20" points="7.181,10.488 15.812,10.488 17.945,8.354 	"/>
	<polyline class="st20" points="7.181,2.663 15.812,2.663 17.945,0.53 	"/>
	<line class="st20" x1="2.828" y1="6.575" x2="14.815" y2="6.575"/>
</g>
<g id="nav-instance-health_x60_17x17">
	<circle class="st22" cx="8.11" cy="1.029" r="1.029"/>
	<circle class="st22" cx="8.107" cy="4.307" r="0.911"/>
	<circle class="st22" cx="8.11" cy="8.252" r="1.029"/>
	
		<ellipse transform="matrix(0.704 -0.7102 0.7102 0.704 -0.6558 9.2843)" class="st22" cx="10.81" cy="5.429" rx="0.911" ry="0.911"/>
	<ellipse transform="matrix(1 -0.0091 0.0091 1 -0.0739 0.1092)" class="st22" cx="11.966" cy="8.171" rx="0.911" ry="0.91"/>
	
		<ellipse transform="matrix(0.6975 -0.7166 0.7166 0.6975 -4.4941 11.0494)" class="st22" cx="10.84" cy="10.848" rx="0.911" ry="0.91"/>
	
		<ellipse transform="matrix(0.9998 -0.0182 0.0182 0.9998 -0.2169 0.1495)" class="st22" cx="8.106" cy="11.993" rx="0.911" ry="0.91"/>
	
		<ellipse transform="matrix(0.691 -0.7229 0.7229 0.691 -6.2136 7.307)" class="st22" cx="5.44" cy="10.921" rx="0.911" ry="0.911"/>
	
		<ellipse transform="matrix(0.9996 -0.0271 0.0271 0.9996 -0.2212 0.1173)" class="st22" cx="4.215" cy="8.22" rx="0.911" ry="0.91"/>
	
		<ellipse transform="matrix(0.6848 -0.7287 0.7287 0.6848 -2.3608 5.5833)" class="st22" cx="5.274" cy="5.521" rx="0.91" ry="0.911"/>
	
		<ellipse transform="matrix(0.4398 -0.8981 0.8981 0.4398 4.7174 11.0849)" class="st22" cx="11.244" cy="1.761" rx="1.029" ry="1.029"/>
	
		<ellipse transform="matrix(0.7901 -0.613 0.613 0.7901 0.5429 9.2273)" class="st22" cx="13.744" cy="3.821" rx="1.029" ry="1.029"/>
	
		<ellipse transform="matrix(0.9792 -0.2031 0.2031 0.9792 -1.0563 3.2084)" class="st22" cx="15.105" cy="6.751" rx="1.03" ry="1.029"/>
	
		<ellipse transform="matrix(0.2483 -0.9687 0.9687 0.2483 1.6399 22.0091)" class="st22" cx="15.001" cy="9.948" rx="1.029" ry="1.029"/>
	
		<ellipse transform="matrix(0.6494 -0.7605 0.7605 0.6494 -4.9874 14.7755)" class="st22" cx="13.529" cy="12.796" rx="1.029" ry="1.029"/>
	
		<ellipse transform="matrix(0.9177 -0.3973 0.3973 0.9177 -4.9427 5.5435)" class="st22" cx="10.907" cy="14.701" rx="1.029" ry="1.029"/>
	
		<ellipse transform="matrix(0.047 -0.9989 0.9989 0.047 -7.8821 22.2878)" class="st22" cx="7.74" cy="15.275" rx="1.029" ry="1.028"/>
	
		<ellipse transform="matrix(0.4818 -0.8763 0.8763 0.4818 -10.1919 11.5242)" class="st22" cx="4.648" cy="14.379" rx="1.03" ry="1.029"/>
	
		<ellipse transform="matrix(0.8181 -0.575 0.575 0.8181 -6.6333 3.492)" class="st22" cx="2.204" cy="12.233" rx="1.03" ry="1.028"/>
	
		<ellipse transform="matrix(0.9877 -0.1562 0.1562 0.9877 -1.429 0.2742)" class="st22" cx="1.03" cy="9.229" rx="1.03" ry="1.029"/>
	
		<ellipse transform="matrix(0.2942 -0.9557 0.9557 0.2942 -4.9087 5.468)" class="st22" cx="1.248" cy="6.058" rx="1.029" ry="1.03"/>
	
		<ellipse transform="matrix(0.6846 -0.7289 0.7289 0.6846 -1.4744 3.1438)" class="st22" cx="2.896" cy="3.276" rx="1.029" ry="1.03"/>
	
		<ellipse transform="matrix(0.9354 -0.3535 0.3535 0.9354 -0.1592 2.0609)" class="st22" cx="5.562" cy="1.466" rx="1.029" ry="1.03"/>
</g>
<g id="corner-bg_x60_614x57">
	<polygon class="st23" points="23.377,57 613.44,57 613.44,0 0,0 0,42.547 	"/>
</g>
<g id="nav-split_x60_20x12">
	<path class="st24" d="M5.658,0.75c-2.711,0-4.908,2.197-4.908,4.908s2.197,4.908,4.908,4.908v0.001c2.481,0,4.443-3.017,5.428-3.12
		c1.895-0.197,1.983,1.603,4.171,1.603V9.021c1.857,0,3.362-1.505,3.362-3.362s-1.505-3.362-3.362-3.362V2.268
		c-2.449,0-2.276,1.8-4.171,1.602C10.102,3.767,8.14,0.751,5.658,0.751V0.75z"/>
</g>
<g id="nav-admin_x60_24x18">
	
		<ellipse transform="matrix(0.9413 -0.3375 0.3375 0.9413 -4.0971 4.1831)" class="st24" cx="9.982" cy="13.875" rx="3.086" ry="3.088"/>
	
		<ellipse transform="matrix(0.9412 -0.3377 0.3377 0.9412 -0.5065 4.7658)" class="st24" cx="13.444" cy="3.839" rx="3.087" ry="3.088"/>
	
		<ellipse transform="matrix(0.9413 -0.3376 0.3376 0.9413 -1.7157 7.4878)" class="st24" cx="20.671" cy="8.677" rx="1.901" ry="1.902"/>
	<line class="st24" x1="11.011" y1="10.993" x2="12.633" y2="6.782"/>
	<line class="st24" x1="19.223" y1="7.444" x2="16.352" y2="5.597"/>
	
		<ellipse transform="matrix(0.8869 -0.4619 0.4619 0.8869 -4.0135 2.2807)" class="st24" cx="2.652" cy="9.338" rx="1.901" ry="1.902"/>
	<line class="st24" x1="4.271" y1="10.353" x2="7.365" y2="11.794"/>
</g>
<g id="nav-console_x60_19x13">
	<rect x="0.75" y="0.75" class="st24" width="17.17" height="10.546"/>
	<line class="st24" x1="8.011" y1="7.438" x2="12.011" y2="7.438"/>
	<polyline class="st24" points="3.822,3.38 5.85,5.409 3.822,7.438 	"/>
</g>
<g id="hex-glob-storage_x60_50x57">
	<polygon class="st25" points="48.209,42.04 24.603,55.668 1,42.04 1,14.782 24.603,1.155 48.209,14.785 	"/>
	
		<rect x="15.902" y="19.774" transform="matrix(0.7071 -0.7071 0.7071 0.7071 -12.9023 25.6736)" class="st26" width="17.275" height="17.275"/>
	
		<rect x="19.351" y="23.239" transform="matrix(0.7071 -0.7071 0.7071 0.7071 -12.9114 25.6725)" class="st26" width="10.365" height="10.365"/>
	
		<rect x="25.267" y="21.294" transform="matrix(0.707 -0.7072 0.7072 0.707 -10.5939 31.2014)" class="st26" width="14.184" height="14.184"/>
	
		<rect x="9.884" y="21.347" transform="matrix(0.7072 -0.707 0.707 0.7072 -15.1362 20.3285)" class="st26" width="14.184" height="14.184"/>
	
		<rect x="37.554" y="24.588" transform="matrix(0.707 -0.7072 0.7072 0.707 -7.9677 37.5817)" class="st26" width="7.637" height="7.637"/>
	
		<rect x="3.806" y="24.603" transform="matrix(0.7071 -0.7071 0.7071 0.7071 -17.864 13.7162)" class="st26" width="7.637" height="7.637"/>
</g>
<g id="hex-router_x60_50x57">
	<polygon class="st25" points="48.209,42.04 24.603,55.668 1,42.04 1,14.782 24.603,1.155 48.209,14.785 	"/>
	<polygon class="st26" points="7.146,40.163 12.614,36.864 37.35,36.864 37.35,30.268 12.614,30.268 7.146,33.566 	"/>
	<polygon class="st26" points="42.254,42.94 38.045,40.163 12.093,40.163 12.093,33.566 38.045,33.566 42.254,36.344 	"/>
	<polygon class="st26" points="43.157,16.251 36.483,20.807 11.833,20.807 11.833,27.317 36.483,27.317 43.157,22.76 	"/>
	<polygon class="st26" points="6.174,14.254 11.052,17.509 37.003,17.509 37.003,24.019 11.052,24.019 6.174,20.764 	"/>
	<line class="st26" x1="17.127" y1="17.509" x2="17.127" y2="33.566"/>
	<line class="st26" x1="30.841" y1="20.807" x2="30.841" y2="40.163"/>
	<line class="st26" x1="19.818" y1="20.807" x2="19.818" y2="36.864"/>
	<line class="st26" x1="33.618" y1="24.019" x2="33.618" y2="40.163"/>
	<line class="st26" x1="25.46" y1="24.019" x2="25.46" y2="36.864"/>
	<line class="st26" x1="38.209" y1="22.587" x2="45.153" y2="18.247"/>
	<line class="st26" x1="4.976" y1="38.166" x2="9.204" y2="35.538"/>
	<line class="st26" x1="39.361" y1="38.065" x2="42.708" y2="40.163"/>
	<line class="st26" x1="5.046" y1="16.901" x2="9.486" y2="19.906"/>
</g>
<g id="hex-health-monitor_x60_50x57">
	<polygon class="st25" points="48.209,42.04 24.603,55.668 1,42.04 1,14.782 24.603,1.155 48.209,14.785 	"/>
	<polygon class="st26" points="7.273,19.361 15.338,14.045 32.66,25.593 24.595,30.909 	"/>
	<polygon class="st26" points="7.273,24.676 15.338,19.361 32.66,30.909 24.595,36.224 	"/>
	<polygon class="st26" points="7.273,30.084 15.338,24.676 32.66,36.224 24.595,41.54 	"/>
	<polygon class="st26" points="41.917,19.361 33.851,14.045 16.529,25.593 24.595,30.909 	"/>
	<line class="st26" x1="41.899" y1="35.199" x2="41.899" y2="19.343"/>
	<polygon class="st26" points="41.917,24.676 33.851,19.361 16.529,30.909 24.595,36.224 	"/>
	<polygon class="st26" points="41.917,30.084 33.851,24.676 16.529,36.224 24.595,41.54 	"/>
	<polygon class="st26" points="7.273,35.4 15.338,30.084 32.66,41.54 24.595,46.948 	"/>
	<polygon class="st26" points="41.917,35.4 33.851,30.084 16.529,41.54 24.595,46.948 	"/>
	<line class="st26" x1="33.943" y1="24.676" x2="33.943" y2="14.045"/>
	<line class="st26" x1="7.089" y1="35.4" x2="7.089" y2="19.544"/>
	<line class="st26" x1="15.43" y1="24.676" x2="15.43" y2="14.045"/>
</g>
<g id="hex-logger_x60_50x57">
	<polygon class="st25" points="48.209,42.04 24.603,55.668 1,42.04 1,14.782 24.603,1.155 48.209,14.785 	"/>
	<polygon class="st26" points="15.35,37.831 15.474,22.318 26.9,15.935 26.851,31.48 	"/>
	<polygon class="st26" points="11.543,36.233 11.667,20.72 23.093,14.337 23.045,29.882 	"/>
	<polygon class="st26" points="7.736,34.636 7.861,19.123 19.286,12.74 19.238,28.285 	"/>
	<polygon class="st26" points="4.006,33.07 4.054,17.525 15.556,11.174 15.431,26.687 	"/>
	<polygon class="st26" points="34.383,45.818 34.507,30.305 45.933,23.922 45.885,39.467 	"/>
	<polygon class="st26" points="30.652,44.253 30.701,28.708 42.203,22.357 42.078,37.87 	"/>
	<polygon class="st26" points="26.846,42.655 26.894,27.11 38.396,20.759 38.271,36.272 	"/>
	<polygon class="st26" points="23.039,41.058 23.087,25.513 34.589,19.162 34.465,34.675 	"/>
</g>
<g id="hex-load-balancer_x60_50x57">
	<polygon class="st25" points="48.209,42.04 24.603,55.668 1,42.04 1,14.782 24.603,1.155 48.209,14.785 	"/>
	<path class="st26" d="M42.337,28.256"/>
	<line class="st26" x1="45.564" y1="36.379" x2="24.746" y2="23.218"/>
	<line class="st26" x1="44.008" y1="40.92" x2="24.746" y2="28.744"/>
	<polyline class="st26" points="24.746,17.694 45.564,30.854 45.564,33.416 45.564,40.206 	"/>
	<line class="st26" x1="45.559" y1="30.851" x2="28.799" y2="20.256"/>
	<polyline class="st26" points="45.559,36.376 28.799,25.781 28.799,14.731 45.442,25.252 	"/>
	<polyline class="st26" points="24.622,40.728 45.44,27.567 45.44,16.517 24.622,29.678 	"/>
	<line class="st26" x1="24.871" y1="35.203" x2="34.309" y2="29.237"/>
	<line class="st26" x1="24.871" y1="29.678" x2="34.309" y2="23.712"/>
	<line class="st26" x1="34.309" y1="34.762" x2="24.871" y2="40.728"/>
	<line class="st26" x1="24.746" y1="23.218" x2="34.184" y2="29.185"/>
	<line class="st26" x1="24.746" y1="28.744" x2="34.184" y2="34.709"/>
	<line class="st26" x1="34.184" y1="23.659" x2="24.746" y2="17.694"/>
	<line class="st26" x1="45.44" y1="22.043" x2="24.622" y2="35.203"/>
	<polygon class="st27" points="48.209,42.04 24.603,55.668 1,42.04 1,14.782 24.603,1.155 48.209,14.785 48.209,21.242 
		48.209,27.278 48.209,33.327 	"/>
	<line class="st26" x1="34.184" y1="29.374" x2="45.44" y2="22.258"/>
	<polyline class="st26" points="45.564,33.229 34.184,40.423 34.184,34.898 45.44,27.783 	"/>
	<path class="st26" d="M45.564,33.416"/>
	<path class="st26" d="M6.869,28.256"/>
	<line class="st26" x1="3.642" y1="36.379" x2="24.46" y2="23.218"/>
	<line class="st26" x1="5.198" y1="40.92" x2="24.46" y2="28.744"/>
	<polyline class="st26" points="24.46,17.694 3.642,30.854 3.642,33.416 3.642,40.206 	"/>
	<line class="st26" x1="3.647" y1="30.851" x2="20.407" y2="20.256"/>
	<polyline class="st26" points="3.647,36.376 20.407,25.781 20.407,14.731 3.764,25.252 	"/>
	<polyline class="st26" points="24.584,40.728 3.766,27.567 3.766,16.517 24.584,29.678 	"/>
	<line class="st26" x1="24.335" y1="35.203" x2="14.897" y2="29.237"/>
	<line class="st26" x1="24.335" y1="29.678" x2="14.897" y2="23.712"/>
	<line class="st26" x1="14.897" y1="34.762" x2="24.335" y2="40.728"/>
	<line class="st26" x1="24.46" y1="23.218" x2="15.022" y2="29.185"/>
	<line class="st26" x1="24.46" y1="28.744" x2="15.022" y2="34.709"/>
	<line class="st26" x1="15.022" y1="23.659" x2="24.46" y2="17.694"/>
	<line class="st26" x1="3.766" y1="22.043" x2="24.584" y2="35.203"/>
	<line class="st26" x1="15.022" y1="29.374" x2="3.766" y2="22.258"/>
	<polyline class="st26" points="3.642,33.229 15.022,40.423 15.022,34.898 3.766,27.783 	"/>
	<path class="st26" d="M3.642,33.416"/>
	<path class="st26" d="M3.642,33.416"/>
</g>
</svg>
