<?xml version="1.0" encoding="utf-8"?>
<!-- Generator: Adobe Illustrator 20.1.0, SVG Export Plug-In . SVG Version: 6.00 Build 0)  -->
<svg version="1.1" id="svgs" xmlns="http://www.w3.org/2000/svg" xmlns:xlink="http://www.w3.org/1999/xlink" x="0px" y="0px"
	 viewBox="0 0 600 480" style="enable-background:new 0 0 600 480;" xml:space="preserve">
<style type="text/css">
	.st0{fill:none;stroke:#547F91;stroke-width:1.5;stroke-miterlimit:10;}
	.st1{fill:none;stroke:#547F91;stroke-width:1.5;stroke-miterlimit:10;stroke-dasharray:1.9446,1.9446;}
	.st2{fill:#547F91;}
	.st3{fill:#FFFFFF;}
	.st4{fill:none;stroke:#678C9C;stroke-width:1.5;stroke-miterlimit:10;}
	.st5{fill:#6FCFC9;stroke:#6FCFC9;stroke-width:2;stroke-miterlimit:10;}
	.st6{fill:none;stroke:#358285;stroke-width:1.7038;stroke-linecap:round;stroke-linejoin:round;stroke-miterlimit:10;}
	.st7{fill:none;}
	.st8{fill:none;stroke:#678C9C;stroke-width:2;stroke-miterlimit:10;}
	.st9{fill:#FFFFFF;stroke:#678C9C;stroke-width:2;stroke-miterlimit:10;}
	.st10{fill:none;stroke:#FFFFFF;stroke-width:2;stroke-linejoin:bevel;stroke-miterlimit:10;}
	.st11{fill:#1EB8FF;}
	.st12{fill:none;stroke:#1EB8FF;stroke-miterlimit:10;}
	.st13{opacity:3.000000e-02;fill:url(#SVGID_1_);enable-background:new    ;}
	.st14{opacity:3.000000e-02;fill:url(#SVGID_2_);enable-background:new    ;}
	.st15{opacity:3.000000e-02;fill:url(#SVGID_3_);enable-background:new    ;}
	.st16{opacity:3.000000e-02;fill:url(#SVGID_4_);enable-background:new    ;}
	.st17{opacity:0.39;fill:url(#SVGID_5_);enable-background:new    ;}
	.st18{opacity:0.39;fill:url(#SVGID_6_);enable-background:new    ;}
	.st19{opacity:0.72;fill:url(#SVGID_7_);enable-background:new    ;}
	.st20{opacity:0.72;fill:url(#SVGID_8_);enable-background:new    ;}
	.st21{opacity:0.13;fill:url(#SVGID_9_);enable-background:new    ;}
	.st22{fill:#DFDFDF;}
	.st23{fill:#E6E6E6;}
	.st24{fill:#31A6DC;}
	.st25{fill:#0790D1;}
	.st26{fill:#0572A6;}
	.st27{fill:#EAED9D;}
	.st28{fill:#D1D39F;}
	.st29{fill:#FDFFE2;}
	.st30{fill:#2F4757;}
	.st31{fill:#50728A;}
	.st32{fill:#47657A;}
	.st33{fill:#1E2B33;}
	.st34{fill:#19242B;}
	.st35{fill:#1CACEF;}
	.st36{fill:none;stroke:#AE59FF;stroke-width:2.1881;stroke-miterlimit:10;}
	.st37{fill:#1583B5;}
	.st38{fill:#75D6FF;}
	.st39{fill:#3AC4FF;}
	.st40{fill:#119CD4;}
	.st41{fill:#029ADB;}
	.st42{fill:none;stroke:#FFFFFF;stroke-width:2;stroke-linecap:round;stroke-miterlimit:10;}
</style>
<g id="nav-stats">
	<line class="st0" x1="115.9" y1="114.8" x2="115.9" y2="124.6"/>
	<line class="st0" x1="119.6" y1="116.7" x2="119.6" y2="124.6"/>
	<line class="st0" x1="123.4" y1="113.6" x2="123.4" y2="124.6"/>
	<line class="st0" x1="127.1" y1="116.2" x2="127.1" y2="124.6"/>
	<line class="st0" x1="130.8" y1="118" x2="130.8" y2="124.6"/>
</g>
<g id="nav-scale">
	<ellipse transform="matrix(0.9876 -0.1567 0.1567 0.9876 -17.9436 14.3743)" class="st0" cx="82.2" cy="121" rx="4.9" ry="4.9"/>
	<g>
		<g>
			<path class="st0" d="M86.7,114.6c0.3-0.2,0.5-0.4,0.8-0.6"/>
			<path class="st1" d="M89.3,113.3c0.1,0,0.3-0.1,0.4-0.1c3.5-0.6,6.9,1.9,7.4,5.4c0.6,3.5-1.8,6.9-5.4,7.4
				c-0.6,0.1-1.1,0.1-1.6,0.1"/>
			<path class="st0" d="M89.2,125.9c-0.3-0.1-0.6-0.2-0.9-0.3"/>
		</g>
	</g>
</g>
<g id="nav-app-component">
	<polygon class="st0" points="23.1,124.2 15.9,128.3 8.7,124.2 8.7,115.8 15.9,111.6 23.1,115.8 	"/>
	<polygon class="st2" points="12.8,122.3 15.9,116.9 19,122.3 	"/>
</g>
<g id="nav-platform-component">
	<circle class="st0" cx="42.4" cy="121.8" r="0.8"/>
	<circle class="st0" cx="47.3" cy="125.7" r="0.8"/>
	<circle class="st0" cx="47.3" cy="117.9" r="0.8"/>
	<polyline class="st0" points="48,125.7 56.6,125.7 58.8,123.6 	"/>
	<polyline class="st0" points="48,117.9 56.6,117.9 58.8,115.7 	"/>
	<line class="st0" x1="43.6" y1="121.8" x2="55.6" y2="121.8"/>
</g>
<g id="nav-instance-health">
	<circle class="st2" cx="158.3" cy="111.1" r="1"/>
	<circle class="st2" cx="158.3" cy="114.3" r="0.9"/>
	<circle class="st2" cx="158.3" cy="118.3" r="1"/>
	<ellipse transform="matrix(0.704 -0.7102 0.7102 0.704 -34.3713 148.5357)" class="st2" cx="161" cy="115.5" rx="0.9" ry="0.9"/>
	<ellipse transform="matrix(1 -9.099623e-03 9.099623e-03 1 -1.069 1.481)" class="st2" cx="162.2" cy="118.2" rx="0.9" ry="0.9"/>
	<ellipse transform="matrix(0.6975 -0.7166 0.7166 0.6975 -37.9342 151.9552)" class="st2" cx="161" cy="120.9" rx="0.9" ry="0.9"/>
	
		<ellipse transform="matrix(0.9998 -1.820062e-02 1.820062e-02 0.9998 -2.194 2.9011)" class="st2" cx="158.3" cy="122" rx="0.9" ry="0.9"/>
	<ellipse transform="matrix(0.691 -0.7229 0.7229 0.691 -39.312 149.8522)" class="st2" cx="155.6" cy="120.9" rx="0.9" ry="0.9"/>
	
		<ellipse transform="matrix(0.9996 -2.710089e-02 2.710089e-02 0.9996 -3.1463 4.2274)" class="st2" cx="154.4" cy="118.2" rx="0.9" ry="0.9"/>
	
		<ellipse transform="matrix(0.6848 -0.7287 0.7287 0.6848 -35.1909 149.6452)" class="st2" cx="155.4" cy="115.5" rx="0.9" ry="0.9"/>
	<ellipse transform="matrix(0.4398 -0.8981 0.8981 0.4398 -9.9774 207.634)" class="st2" cx="161.4" cy="111.8" rx="1" ry="1"/>
	<ellipse transform="matrix(0.7901 -0.613 0.613 0.7901 -35.3536 124.3616)" class="st2" cx="163.9" cy="113.8" rx="1" ry="1"/>
	<ellipse transform="matrix(0.9792 -0.2031 0.2031 0.9792 -20.2785 36.0098)" class="st2" cx="165.3" cy="116.8" rx="1" ry="1"/>
	<ellipse transform="matrix(0.2483 -0.9687 0.9687 0.2483 8.0586 250.2913)" class="st2" cx="165.3" cy="120" rx="1" ry="1"/>
	<ellipse transform="matrix(0.6494 -0.7605 0.7605 0.6494 -35.9839 167.5658)" class="st2" cx="163.7" cy="122.8" rx="1" ry="1"/>
	<ellipse transform="matrix(0.9177 -0.3973 0.3973 0.9177 -36.2833 74.2709)" class="st2" cx="161.1" cy="124.7" rx="1" ry="1"/>
	
		<ellipse transform="matrix(4.699976e-02 -0.9989 0.9989 4.699976e-02 25.1622 277.047)" class="st2" cx="157.8" cy="125.3" rx="1" ry="1"/>
	<ellipse transform="matrix(0.4818 -0.8763 0.8763 0.4818 -28.8012 200.153)" class="st2" cx="154.8" cy="124.4" rx="1" ry="1"/>
	<ellipse transform="matrix(0.8181 -0.575 0.575 0.8181 -42.6082 109.8601)" class="st2" cx="152.4" cy="122.3" rx="1" ry="1"/>
	<ellipse transform="matrix(0.9877 -0.1562 0.1562 0.9877 -16.7779 25.0806)" class="st2" cx="151.2" cy="119.3" rx="1" ry="1"/>
	<ellipse transform="matrix(0.2942 -0.9557 0.9557 0.2942 -4.2624 226.7336)" class="st2" cx="151.4" cy="116.3" rx="1" ry="1"/>
	<ellipse transform="matrix(0.6846 -0.7289 0.7289 0.6846 -34.2982 147.3213)" class="st2" cx="153.1" cy="113.3" rx="1" ry="1"/>
	<ellipse transform="matrix(0.9354 -0.3535 0.3535 0.9354 -29.3607 62.2346)" class="st2" cx="155.7" cy="111.5" rx="1" ry="1"/>
</g>
<g id="corner-bg">
	<polygon class="st3" points="9.9,-18 600,-18 600,-75 -13.5,-75 -13.5,-32.5 	"/>
</g>
<g id="nav-split">
	<path class="st4" d="M235,115.1c-2.7,0-4.9,2.2-4.9,4.9s2.2,4.9,4.9,4.9l0,0c2.5,0,4.4-3,5.4-3.1c1.9-0.2,2,1.6,4.2,1.6l0,0
		c1.9,0,3.4-1.5,3.4-3.4s-1.5-3.4-3.4-3.4l0,0c-2.4,0-2.3,1.8-4.2,1.6C239.4,118.2,237.5,115.1,235,115.1L235,115.1z"/>
</g>
<g id="nav-admin">
	
		<ellipse transform="matrix(0.9413 -0.3375 0.3375 0.9413 -25.3938 102.322)" class="st4" cx="281.6" cy="124.2" rx="3.1" ry="3.1"/>
	
		<ellipse transform="matrix(0.9412 -0.3377 0.3377 0.9412 -21.8154 102.9765)" class="st4" cx="285.1" cy="114.2" rx="3.1" ry="3.1"/>
	<ellipse transform="matrix(0.9413 -0.3376 0.3376 0.9413 -23.0135 105.6691)" class="st4" cx="292.3" cy="119" rx="1.9" ry="1.9"/>
	<line class="st4" x1="282.6" y1="121.4" x2="284.3" y2="117.1"/>
	<line class="st4" x1="290.9" y1="117.8" x2="288" y2="116"/>
	
		<ellipse transform="matrix(0.8869 -0.4619 0.4619 0.8869 -24.2744 140.2252)" class="st4" cx="274.3" cy="119.7" rx="1.9" ry="1.9"/>
	<line class="st4" x1="275.9" y1="120.7" x2="279" y2="122.2"/>
</g>
<g id="nav-tunnel">
	<line class="st0" x1="315.2" y1="119" x2="327.8" y2="119"/>
	<polyline class="st0" points="322.6,113.6 328.1,119 322.6,124.4 	"/>
</g>
<g id="nav-console">
	<rect x="186.5" y="114.3" class="st4" width="17.2" height="10.5"/>
	<line class="st4" x1="193.8" y1="121" x2="197.8" y2="121"/>
	<polyline class="st4" points="189.6,116.9 191.6,119 189.6,121 	"/>
</g>
<g id="hex-glob-storage">
	<polygon class="st5" points="340.8,74.8 317.2,88.4 293.6,74.8 293.6,47.5 317.2,33.9 340.8,47.5 	"/>
	
		<rect x="308.5" y="52.5" transform="matrix(0.7071 -0.7071 0.7071 0.7071 49.6447 242.1619)" class="st6" width="17.3" height="17.3"/>
	
		<rect x="311.9" y="56" transform="matrix(0.7071 -0.7071 0.7071 0.7071 49.5899 242.1456)" class="st6" width="10.4" height="10.4"/>
	<rect x="317.9" y="54" transform="matrix(0.707 -0.7072 0.7072 0.707 52.009 247.7337)" class="st6" width="14.2" height="14.2"/>
	
		<rect x="302.5" y="54.1" transform="matrix(0.7072 -0.707 0.707 0.7072 47.3755 236.8041)" class="st6" width="14.2" height="14.2"/>
	<rect x="330.2" y="57.3" transform="matrix(0.707 -0.7072 0.7072 0.707 54.6443 254.0947)" class="st6" width="7.6" height="7.6"/>
	
		<rect x="296.4" y="57.4" transform="matrix(0.7071 -0.7071 0.7071 0.7071 44.6553 230.1901)" class="st6" width="7.6" height="7.6"/>
</g>
<g id="hex-router">
	<polygon class="st5" points="268.9,74.8 245.3,88.4 221.7,74.8 221.7,47.5 245.3,33.9 268.9,47.5 	"/>
	<polygon class="st6" points="227.9,72.9 233.3,69.6 258.1,69.6 258.1,63 233.3,63 227.9,66.3 	"/>
	<polygon class="st6" points="263,75.7 258.8,72.9 232.8,72.9 232.8,66.3 258.8,66.3 263,69.1 	"/>
	<polygon class="st6" points="263.9,49 257.2,53.5 232.5,53.5 232.5,60.1 257.2,60.1 263.9,55.5 	"/>
	<polygon class="st6" points="226.9,47 231.8,50.2 257.7,50.2 257.7,56.8 231.8,56.8 226.9,53.5 	"/>
	<line class="st6" x1="237.8" y1="50.2" x2="237.8" y2="66.3"/>
	<line class="st6" x1="251.6" y1="53.5" x2="251.6" y2="72.9"/>
	<line class="st6" x1="240.5" y1="53.5" x2="240.5" y2="69.6"/>
	<line class="st6" x1="254.3" y1="56.8" x2="254.3" y2="72.9"/>
	<line class="st6" x1="246.2" y1="56.8" x2="246.2" y2="69.6"/>
	<line class="st6" x1="258.9" y1="55.3" x2="265.9" y2="51"/>
	<line class="st6" x1="225.7" y1="70.9" x2="229.9" y2="68.3"/>
	<line class="st6" x1="260.1" y1="70.8" x2="263.4" y2="72.9"/>
	<line class="st6" x1="225.8" y1="49.6" x2="230.2" y2="52.6"/>
</g>
<g id="hex-health-monitor">
	<polygon class="st5" points="197,74.8 173.4,88.4 149.8,74.8 149.8,47.5 173.4,33.9 197,47.5 	"/>
	<polygon class="st6" points="156.1,52.1 164.2,46.8 181.5,58.3 173.4,63.6 	"/>
	<polygon class="st6" points="156.1,57.4 164.2,52.1 181.5,63.6 173.4,69 	"/>
	<polygon class="st6" points="156.1,62.8 164.2,57.4 181.5,69 173.4,74.3 	"/>
	<polygon class="st6" points="190.7,52.1 182.7,46.8 165.4,58.3 173.4,63.6 	"/>
	<line class="st6" x1="190.7" y1="67.9" x2="190.7" y2="52.1"/>
	<polygon class="st6" points="190.7,57.4 182.7,52.1 165.4,63.6 173.4,69 	"/>
	<polygon class="st6" points="190.7,62.8 182.7,57.4 165.4,69 173.4,74.3 	"/>
	<polygon class="st6" points="156.1,68.1 164.2,62.8 181.5,74.3 173.4,79.7 	"/>
	<polygon class="st6" points="190.7,68.1 182.7,62.8 165.4,74.3 173.4,79.7 	"/>
	<line class="st6" x1="182.8" y1="57.4" x2="182.8" y2="46.8"/>
	<line class="st6" x1="155.9" y1="68.1" x2="155.9" y2="52.3"/>
	<line class="st6" x1="164.3" y1="57.4" x2="164.3" y2="46.8"/>
</g>
<g id="hex-logger">
	<polygon class="st5" points="125.2,74.8 101.6,88.4 78,74.8 78,47.5 101.6,33.9 125.2,47.5 	"/>
	<polygon class="st6" points="92.3,70.6 92.4,55.1 103.9,48.7 103.8,64.2 	"/>
	<polygon class="st6" points="88.5,69 88.6,53.5 100,47.1 100,62.6 	"/>
	<polygon class="st6" points="84.7,67.4 84.8,51.9 96.2,45.5 96.2,61 	"/>
	<polygon class="st6" points="81,65.8 81,50.3 92.5,43.9 92.4,59.4 	"/>
	<polygon class="st6" points="111.3,78.6 111.5,63 122.9,56.7 122.8,72.2 	"/>
	<polygon class="st6" points="107.6,77 107.7,61.4 119.2,55.1 119,70.6 	"/>
	<polygon class="st6" points="103.8,75.4 103.8,59.8 115.3,53.5 115.2,69 	"/>
	<polygon class="st6" points="100,73.8 100,58.2 111.5,51.9 111.4,67.4 	"/>
</g>
<g id="hex-load-balancer">
	<polygon class="st5" points="53.3,75.4 29.7,89 6.1,75.4 6.1,48.2 29.7,34.5 53.3,48.2 	"/>
	<path class="st6" d="M47.4,61.6"/>
	<line class="st6" x1="50.6" y1="69.7" x2="29.8" y2="56.6"/>
	<line class="st6" x1="49.1" y1="74.3" x2="29.8" y2="62.1"/>
	<polyline class="st6" points="29.8,51.1 50.6,64.2 50.6,66.8 50.6,73.6 	"/>
	<line class="st6" x1="50.6" y1="64.2" x2="33.9" y2="53.6"/>
	<polyline class="st6" points="50.6,69.7 33.9,59.1 33.9,48.1 50.5,58.6 	"/>
	<polyline class="st6" points="29.7,74.1 50.5,60.9 50.5,49.9 29.7,63 	"/>
	<line class="st6" x1="29.9" y1="68.6" x2="39.4" y2="62.6"/>
	<line class="st6" x1="29.9" y1="63" x2="39.4" y2="57.1"/>
	<line class="st6" x1="39.4" y1="68.1" x2="29.9" y2="74.1"/>
	<line class="st6" x1="29.8" y1="56.6" x2="39.3" y2="62.6"/>
	<line class="st6" x1="29.8" y1="62.1" x2="39.3" y2="68.1"/>
	<line class="st6" x1="39.3" y1="57" x2="29.8" y2="51.1"/>
	<line class="st6" x1="50.5" y1="55.4" x2="29.7" y2="68.6"/>
	<polygon class="st7" points="53.3,75.4 29.7,89 6.1,75.4 6.1,48.2 29.7,34.5 53.3,48.2 53.3,54.6 53.3,60.6 53.3,66.7 	"/>
	<line class="st6" x1="39.3" y1="62.7" x2="50.5" y2="55.6"/>
	<polyline class="st6" points="50.6,66.6 39.3,73.8 39.3,68.3 50.5,61.2 	"/>
	<path class="st6" d="M50.6,66.8"/>
	<path class="st6" d="M11.9,61.6"/>
	<line class="st6" x1="8.7" y1="69.7" x2="29.5" y2="56.6"/>
	<line class="st6" x1="10.3" y1="74.3" x2="29.5" y2="62.1"/>
	<polyline class="st6" points="29.5,51.1 8.7,64.2 8.7,66.8 8.7,73.6 	"/>
	<line class="st6" x1="8.7" y1="64.2" x2="25.5" y2="53.6"/>
	<polyline class="st6" points="8.7,69.7 25.5,59.1 25.5,48.1 8.8,58.6 	"/>
	<polyline class="st6" points="29.7,74.1 8.8,60.9 8.8,49.9 29.7,63 	"/>
	<line class="st6" x1="29.4" y1="68.6" x2="20" y2="62.6"/>
	<line class="st6" x1="29.4" y1="63" x2="20" y2="57.1"/>
	<line class="st6" x1="20" y1="68.1" x2="29.4" y2="74.1"/>
	<line class="st6" x1="29.5" y1="56.6" x2="20.1" y2="62.6"/>
	<line class="st6" x1="29.5" y1="62.1" x2="20.1" y2="68.1"/>
	<line class="st6" x1="20.1" y1="57" x2="29.5" y2="51.1"/>
	<line class="st6" x1="8.8" y1="55.4" x2="29.7" y2="68.6"/>
	<line class="st6" x1="20.1" y1="62.7" x2="8.8" y2="55.6"/>
	<polyline class="st6" points="8.7,66.6 20.1,73.8 20.1,68.3 8.8,61.2 	"/>
	<path class="st6" d="M8.7,66.8"/>
	<path class="st6" d="M8.7,66.8"/>
</g>
<g id="admin-octopus">
	<polygon class="st8" points="59.8,206.2 43.1,215.9 26.3,206.2 26.3,186.8 43.1,177.2 59.8,186.8 	"/>
	<polyline class="st8" points="59.8,206.2 69.9,212 82.6,212 	"/>
	<polyline class="st8" points="31.6,203.2 23.5,208 23.5,224.6 	"/>
	<polyline class="st8" points="49.7,211.4 49.7,222.6 60.9,229.1 	"/>
	<circle class="st8" cx="85.2" cy="212" r="2.6"/>
	<circle class="st8" cx="23.5" cy="227.2" r="2.6"/>
	<circle class="st9" cx="53.3" cy="196.5" r="2.6"/>
	<circle class="st9" cx="33.7" cy="201.7" r="2.6"/>
	<circle class="st9" cx="49.7" cy="212" r="2.6"/>
	<circle class="st8" cx="62.5" cy="230.5" r="2.6"/>
	<circle class="st8" cx="41" cy="188" r="2.6"/>
	<circle class="st8" cx="15.7" cy="172.6" r="2.6"/>
	<polyline class="st8" points="39,186.7 28.8,172.6 18,172.6 	"/>
	<polyline class="st8" points="80,181.8 69.8,196.5 55.9,196.5 	"/>
	<circle class="st9" cx="80" cy="181.8" r="2.6"/>
	<polyline class="st8" points="60.9,165.8 60.9,176.3 52.3,182.5 	"/>
	<ellipse transform="matrix(0.8233 -0.5676 0.5676 0.8233 -83.401 63.8807)" class="st9" cx="60.9" cy="165.9" rx="2.6" ry="2.6"/>
	<polyline class="st8" points="3.3,198.9 8.4,193.6 26.4,193.6 	"/>
	<circle class="st9" cx="3.3" cy="198.9" r="2.6"/>
</g>
<g id="component-silvering">
	<path class="st10" d="M146.1-185.1H52.4v-15h7.4l0.3,10.3l8.2-15.5H56.9l4-7.3H48.2v27.5H43V-218h12.2v-5.6H38.9v38.5h-5.2v-43
		h26.6v10.9h9.2l-0.4,0.7l-3.7,7h5.1l7.4-14H66.4v-4.7H87l-20.6,38h80v-6h-13.9l-1.2,2h-5.9l3.2-6.2h6.3v-6.4h-3.2l2.4-5.1h8.3v-3.3
		h-6.9l2.3-4.8h6.9l3.1,8.4h6.1l-6.1-12.2h-7.4l2.5-4.6h7.1l11.4,21.9h-21.5v6.1h23.3l3.8,7.6h-15v6.7h71.7l10.2-8.5v8.5l10.2-8.5
		v8.5l10.2-8.5v8.5h61.9v-5.5H260v-5.2h75.9v-5.6h-81.8v3.5h-31.2l-2.7-5h28.4v-6h-31.5l-3.1-6.3h34.7v-6.5h-38.2l-3-5.7h41.2v-5.3
		h-51l21.5,40.8h-6.4l-21.6-40.7h-6.4l21.5,40.8h-6.4l-21.5-40.8H172l21.5,40.8h-6.4l-21.5-40.8h-6.4l21.5,40.8h-6.4l-21.5-40.8H140
		l-20.8,39.4h-6.4l20.8-39.4h-5.4l-20.8,39.4H100l20.8-39.4h-5.4l-20.8,39.4h-7.4l20.8-39.4h-5.4l-20.8,39.4h-6.4l20.8-39.4h-6.4
		l-63.6-0.1v6.4L13-220l-4.6-2.7l1.4-0.8l12-6.9v-7.8l-5.7-3.3v8.4l-16.7,9.6v2l11.9,6.9l17.7-9.6v5.7L4.4-205.1v-7.3l-11.9-6.9
		v-6.7l18.2-10.4v-8.2l-5.3-3v8.3L-12.4-229v12.4l11.9,6.9v6.1l-16.6-9.6v-19.9l17.8-10.3v-6.9L-22.6-237v26.9l23.3,13.4l28.7-16.6
		v28.2h-5.5v-4.7L13-184.1H8.9l-3.2-2L24-196.3v-6.8L0.7-189.8l-29.2-16.9v-33.8L-1-256.4l30.4,17.7H254v30.2h35.8v-5.8h-30.2v-24.4
		h87.3v4.7h-82v14h30.4v11.1h18.9v-10.3h-6.1v5.6h-7.2v-10.1h-31v-4.8h36.8l4.6,4.6l4.6-4.6l4.6,4.6l4.6-4.6l4.6,4.6l4.6-4.6
		l4.6,4.6l4.6-4.6l4.6,4.6l4.6-4.6l4.6,4.6l4.6-4.6l4.6,4.6l4.6-4.6l4.6,4.6l4.6-4.6l4.6,4.6l4.6-4.6l4.6,4.6l4.6-4.6l3.8,3.4
		l8.9-8.9h-57.7v-4.7h179.8v16h-5.3v-11.7h-5v11.7h-4.4v-11.7h-5v11.7h-5.2v-11.7h-5v11.7h-5.2v-11.7h-5v11.7h-38.9v9.1h-6.1v-5.6
		h-6.1v5.6h-6.1v-5.6h-6.1v5.6H424v-5.6h-6.1v5.6h-6.1v-7.4l6-5.9l3.9,3.1l4.6-4.6l4.6,4.6l4.6-4.6l4.6,4.6l4.6-4.6l4.6,4.6l4.6-4.6
		H487v-5.5h-68.9l-12.4,12.7v7.7h-6.1v-5.6h-6.1v5.6h-6.1v-5.6h-6.1v5.6h-6.1v-5.6h-6.1v5.6H363v-5.6h-6.1v5.6h-6.1v-5.6h-6.1v5.6
		h-6.1v-5.6h-6.1v5.6h-6.1v-5.6h-6.1v10.3h36.6v6.5h-13.4v5.6h13.9v5.2h-34.5v5.5h61.3v-5.5H363v-5.2h14.8v-5.6h-14.9v-6.5h73.7v6.5
		h-53.1v5.6h14.9v5.2H390v5.5h52.9v-5.5h-37.7v-5.2H456v-5.6h-13.8v-6.5h20.1v11.8h7.7l2.2-5.2h5.8v10.7h-29.7v5.5H594v-5.5h-17.5
		v-5.2H572l-5.6,5.2h-65.7l-4.5-5.2h-5.5v5.2h-7.3v-10.7h15.9l4.5,5.2h56.4l5.6-5.2h6.7c5.8,0,10.5-4.7,10.5-10.5
		c0-1.8-0.4-3.4-1.2-4.9l-3.3,2.4c0.3,0.8,0.5,1.7,0.5,2.6c0,3.6-2.9,6.5-6.5,6.5s-6.5-2.9-6.5-6.5l4,0.1c0,1.4,1.1,2.5,2.5,2.5
		s2.5-1.1,2.5-2.5s-1.1-2.5-2.5-2.5c-0.3,0-0.6,0.1-0.9,0.2l-1.6-3.7c0.7-0.3,1.6-0.5,2.5-0.5c1.3,0,2.6,0.4,3.6,1.1l2.3-3.3
		c-1.7-1.1-3.7-1.8-5.9-1.8c-5.8,0-10.5,4.7-10.5,10.5c0,2.2,0.7,4.2,1.8,5.9h-3l-5.5,5.1h-46.6l-4.4-5.1h-36.1v-6.9h-6.7v-4.6h11.8
		v7.8h5.2v-7.8h5v7.8h5.2v-7.8h5v7.8h5.2v-7.8h5v7.8h5.2v-7.8h5v12.4h4.4v-12.4h5v12.4h5.2v-12.4h5v12.4h5.2v-12.4h5v12.4h5.2v-12.4
		h5v7.8h3.5v-12.3h-19.3v-16h42.3h4.2v10.1l4.6,4.5v-14.4h4.7v41.7H583v-5.1c2.7-2.7,4.4-6.4,4.4-10.6c0-8.2-6.6-14.8-14.8-14.8
		c-3.3,0-6.3,1.1-8.7,2.8l-4-4h-16.3v-5.5h34.1l2.3,2.3"/>
</g>
<g id="host-silvering">
	<path class="st10" d="M266.3-112.4H121.7l-17.9-13.7l-31.2,32h7.8l24-24.8l16.2,13.1h137v6.2H117.2l-13.1-11L89.7-94.1h219.5v-5.5
		h-43.4v-6.2h57.1v6.2h-7v5.5h12.9v-18.3h-55.1v-6.5H199v-6.2h74.7v-5.4H144.4l-5-4.7h-9.3l5.3,4.4h-8.5l-5.3-4.4h-8.9l12.1,10.1
		h66.8v6.2h-69.3L104-134.3L64.6-94.1h-8.1l46-46.9h-7.8l-46,46.9H41L87-141h-7.8l-46,46.9h-7.8l46-46.9h-7.8l-46,46.9H9.9l46-46.9
		h-9.2l-6.9,5.8h-33v6.6h27.9l-7.1,7.1H6.8v6.8h13.9l-7.6,7.6H6.8v5.2L1-94.2v-52.1h5.8v5.3H38l6-5.3h64.1v5.3h38.8v-5.3h5.7v10.8
		H280v16.6h5.6v-11.3H318V-141H157.5v-5.3h165.8v20.8h-32.2v6.8h37.8v-27.6h116l-3.2,5.7h19.4l4.5,5.8h-12.5l-10.5,20.5h-7H428
		l2.1-5.1h7.9l7.9-15.5h-7.6l-5.4,9.8h-6.4l-12.9,24.3h-6.4l21.5-39.8h-6.4l-21.5,39.8h-6.4l21.5-39.8h-6.4L388-100.8h-6.4
		l21.5-39.8h-6.4l-21.6,39.7h-6.4l21.5-39.8h-56v5.3h46.2l-3,5.7h-43.2v6.5h39.7l-3.1,6.3h-36.5v6h33.4l-2.7,5h-30.7l0.1,6.3h26.8
		l-3.1,5.5h77.7v-6.7h-15l4.6-8.9h7.7l-2.4,4.3h11v11.3h59l-5.4-7h-46.9c0-2,0.1-4.1,0.1-6.1h42.1l-4.7-6.1h-36.4l3.1-6.1h28.6
		l-4.7-6.1h-20.7l2.2-4.4h17l-3.9-5h8.1l31.6,40.8h9.1l-36-46.5h-15.7l-4.1-5.7h24.5l41.1,52.2h8.2l-41.1-52.2h8.2l41.1,52.2h8.2
		l-41.1-52.2h8.2l41.1,52.2h8.2l-41.1-52.2h8.2L579-94.1h8.2l-41.1-52.2h8.2l41.1,52.2h2.2v-7.4l-35.1-44.8h8.2l26.9,33.6v-11.2
		L579-146.3h8.2l10.4,11.1v-11.1h-4.2"/>
</g>
<g id="ready-for-deploy">
	<path class="st11" d="M382.7,124.4c-0.3,0-0.5-0.1-0.7-0.2s-0.4-0.2-0.6-0.4l-3.7-3.8c-0.2-0.2-0.3-0.4-0.4-0.6s-0.1-0.5-0.1-0.7
		s0-0.5,0.1-0.7s0.2-0.4,0.4-0.6c0.2-0.2,0.4-0.3,0.6-0.4s0.5-0.1,0.7-0.1s0.5,0.1,0.7,0.1c0.2,0.1,0.4,0.2,0.6,0.4l2.4,2.4l6-6
		c0.2-0.2,0.4-0.3,0.6-0.4s0.5-0.1,0.7-0.1s0.5,0,0.7,0.1s0.4,0.2,0.6,0.4c0.2,0.2,0.3,0.4,0.4,0.6s0.1,0.5,0.1,0.7
		c0,0.3,0,0.5-0.1,0.7s-0.2,0.4-0.4,0.6l-7.4,7.4c-0.2,0.2-0.4,0.3-0.6,0.4C383.2,124.4,382.9,124.4,382.7,124.4z"/>
	<circle class="st12" cx="383.9" cy="118.3" r="14.3"/>
</g>
<g id="deploy-inst">
	
		<linearGradient id="SVGID_1_" gradientUnits="userSpaceOnUse" x1="434.6636" y1="403.0794" x2="575.13" y2="514.5294" gradientTransform="matrix(0.4515 0.8923 -0.8923 0.4515 690.8254 -432.0341)">
		<stop  offset="0" style="stop-color:#8EA5B3"/>
		<stop  offset="0.7169" style="stop-color:#90A8B6;stop-opacity:0.2831"/>
		<stop  offset="1" style="stop-color:#94ACBA;stop-opacity:0"/>
	</linearGradient>
	<polygon class="st13" points="538.3,341.3 418.6,302 478.7,118.8 598.4,158 	"/>
	
		<linearGradient id="SVGID_2_" gradientUnits="userSpaceOnUse" x1="989.0366" y1="-692.5155" x2="1129.5029" y2="-581.0656" gradientTransform="matrix(-0.4515 0.8923 0.8923 0.4515 1613.1746 -432.0341)">
		<stop  offset="0" style="stop-color:#8EA5B3"/>
		<stop  offset="0.7169" style="stop-color:#90A8B6;stop-opacity:0.2831"/>
		<stop  offset="1" style="stop-color:#94ACBA;stop-opacity:0"/>
	</linearGradient>
	<polygon class="st14" points="537.8,341.3 657.5,302 597.4,118.8 477.7,158 	"/>
	
		<linearGradient id="SVGID_3_" gradientUnits="userSpaceOnUse" x1="829.9836" y1="-641.7781" x2="970.45" y2="-530.3282" gradientTransform="matrix(-0.2522 0.9677 0.9677 0.2522 1378.1921 -505.2508)">
		<stop  offset="0" style="stop-color:#8EA5B3"/>
		<stop  offset="0.7169" style="stop-color:#90A8B6;stop-opacity:0.2831"/>
		<stop  offset="1" style="stop-color:#94ACBA;stop-opacity:0"/>
	</linearGradient>
	<polygon class="st15" points="580.3,337.2 689,273.5 591.4,107.1 482.7,170.9 	"/>
	
		<linearGradient id="SVGID_4_" gradientUnits="userSpaceOnUse" x1="1638.8358" y1="-534.7396" x2="1779.3024" y2="-423.2897" gradientTransform="matrix(-0.9757 0.2192 0.2192 0.9757 2264.0161 308.0437)">
		<stop  offset="0" style="stop-color:#8EA5B3"/>
		<stop  offset="0.7169" style="stop-color:#90A8B6;stop-opacity:0.2831"/>
		<stop  offset="1" style="stop-color:#94ACBA;stop-opacity:0"/>
	</linearGradient>
	<polygon class="st16" points="383.9,266.6 490.3,334 593.5,171 487,103.6 	"/>
	<circle class="st11" cx="540" cy="120.4" r="63"/>
	
		<linearGradient id="SVGID_5_" gradientUnits="userSpaceOnUse" x1="567.5" y1="-438.0092" x2="567.5" y2="-491.8983" gradientTransform="matrix(1 0 0 1 0 560)">
		<stop  offset="0" style="stop-color:#FFFFFF"/>
		<stop  offset="1" style="stop-color:#FFFFFF;stop-opacity:0"/>
	</linearGradient>
	<polygon class="st17" points="571.5,37 563.5,41.6 563.5,132.6 571.5,128 	"/>
	
		<linearGradient id="SVGID_6_" gradientUnits="userSpaceOnUse" x1="572.6" y1="-434.5807" x2="572.6" y2="-488.4698" gradientTransform="matrix(1 0 0 1 0 560)">
		<stop  offset="0" style="stop-color:#FFFFFF"/>
		<stop  offset="1" style="stop-color:#FFFFFF;stop-opacity:0"/>
	</linearGradient>
	<polygon class="st18" points="576.6,40.4 568.6,45 568.6,136 576.6,131.4 	"/>
	
		<linearGradient id="SVGID_7_" gradientUnits="userSpaceOnUse" x1="514.4" y1="-443.4218" x2="514.4" y2="-488.9211" gradientTransform="matrix(1 0 0 1 0 560)">
		<stop  offset="0" style="stop-color:#FFFFFF"/>
		<stop  offset="1" style="stop-color:#FFFFFF;stop-opacity:0"/>
	</linearGradient>
	<polygon class="st19" points="518.4,67.1 510.4,71.7 510.4,122.7 518.4,118.1 	"/>
	
		<linearGradient id="SVGID_8_" gradientUnits="userSpaceOnUse" x1="507.3" y1="-446.2794" x2="507.3" y2="-491.7787" gradientTransform="matrix(1 0 0 1 0 560)">
		<stop  offset="0" style="stop-color:#FFFFFF"/>
		<stop  offset="1" style="stop-color:#FFFFFF;stop-opacity:0"/>
	</linearGradient>
	<polygon class="st20" points="511.3,64.2 503.3,68.8 503.3,119.9 511.3,115.3 	"/>
	
		<linearGradient id="SVGID_9_" gradientUnits="userSpaceOnUse" x1="993.9252" y1="-436.1529" x2="993.9252" y2="-488.8599" gradientTransform="matrix(-1 0 0 1 1550.4752 560)">
		<stop  offset="0" style="stop-color:#FFFFFF"/>
		<stop  offset="1" style="stop-color:#FFFFFF;stop-opacity:0"/>
	</linearGradient>
	<polygon class="st21" points="549.6,40.7 563.5,46.4 563.5,134.2 549.6,128.5 	"/>
	<polygon class="st3" points="576.3,144.7 539.9,164 503.5,144.7 503.5,119.9 539.9,98.8 576.3,119.9 	"/>
	<polygon class="st3" points="503.5,119.9 539.9,139.2 576.3,119.9 539.9,98.8 	"/>
	<polygon class="st3" points="539.9,139.2 539.9,164 503.5,144.7 503.5,119.9 	"/>
	<polygon class="st22" points="511.1,119.9 539.9,136.5 539.9,103.2 	"/>
	<polygon class="st23" points="539.9,103.2 539.9,136.5 568.7,119.9 	"/>
	<polygon class="st3" points="570.9,120.9 540.3,136.6 509.7,120.9 540.3,105.1 	"/>
	<polygon class="st24" points="540.3,129.9 570.9,114.1 570.9,118.7 540.3,134.5 	"/>
	<polygon class="st25" points="540.3,129.9 509.7,114.1 509.7,118.7 540.3,134.5 	"/>
	<polygon class="st26" points="570.9,114.1 540.3,129.9 509.7,114.1 540.3,98.3 	"/>
	<polygon class="st27" points="540.3,123.8 570.9,108.1 570.9,112.7 540.3,128.4 	"/>
	<polygon class="st28" points="540.3,123.8 509.7,108.1 509.7,112.7 540.3,128.4 	"/>
	<polygon class="st29" points="570.9,108.1 540.3,123.8 509.7,108.1 540.3,92.3 	"/>
	<polygon class="st30" points="570.6,101.9 540.2,117.6 509.7,101.9 540.2,86.2 	"/>
	<polygon class="st31" points="523.1,99.3 517,102.5 516,101.9 522,98.8 	"/>
	<polygon class="st32" points="529.6,98 521.1,102.4 520,101.8 528.5,97.4 	"/>
	<polygon class="st32" points="531.5,99 523,103.4 521.9,102.8 530.4,98.4 	"/>
	<polygon class="st32" points="533.4,100 524.9,104.4 523.8,103.8 532.3,99.4 	"/>
	<polygon class="st31" points="531.9,103.9 525.8,107 524.8,106.4 530.8,103.3 	"/>
	<polygon class="st32" points="538.4,102.5 529.8,106.9 528.8,106.3 537.3,102 	"/>
	<polygon class="st32" points="540.3,103.5 531.8,107.9 530.7,107.3 539.2,102.9 	"/>
	<polygon class="st32" points="542.2,104.5 533.7,108.9 532.6,108.3 541.1,103.9 	"/>
	<polygon class="st31" points="540.4,108.3 534.3,111.4 533.2,110.8 539.3,107.7 	"/>
	<polygon class="st32" points="546.8,106.9 538.3,111.3 537.2,110.7 545.8,106.3 	"/>
	<polygon class="st32" points="548.8,107.9 540.2,112.3 539.2,111.7 547.7,107.3 	"/>
	<polygon class="st32" points="550.7,108.9 542.2,113.3 541.1,112.7 549.6,108.3 	"/>
	<polygon class="st31" points="536.7,92.4 530.6,95.5 529.6,95 535.6,91.8 	"/>
	<polygon class="st32" points="543.2,91 534.7,95.4 533.6,94.9 542.1,90.5 	"/>
	<polygon class="st32" points="545.1,92 536.6,96.4 535.5,95.9 544,91.5 	"/>
	<polygon class="st32" points="547,93 538.5,97.4 537.4,96.9 545.9,92.5 	"/>
	<polygon class="st31" points="545.5,96.9 539.4,100.1 538.4,99.5 544.4,96.4 	"/>
	<polygon class="st32" points="552,95.6 543.4,100 542.4,99.4 550.9,95 	"/>
	<polygon class="st32" points="553.9,96.6 545.4,101 544.3,100.4 552.8,96 	"/>
	<polygon class="st32" points="555.8,97.6 547.3,102 546.2,101.4 554.7,97 	"/>
	<polygon class="st31" points="554,101.3 547.9,104.4 546.8,103.9 552.9,100.7 	"/>
	<polygon class="st32" points="560.4,99.9 551.9,104.3 550.8,103.8 559.4,99.4 	"/>
	<polygon class="st32" points="562.4,100.9 553.9,105.3 552.8,104.8 561.3,100.4 	"/>
	<polygon class="st32" points="564.3,101.9 555.8,106.3 554.7,105.8 563.2,101.4 	"/>
	<polygon class="st33" points="540.2,117.6 570.6,101.9 570.6,106.5 540.2,122.1 	"/>
	<polygon class="st34" points="540.2,117.6 509.7,101.9 509.7,106.5 540.2,122.1 	"/>
</g>
<g id="deploy-laptop">
	<g>
		<path class="st35" d="M194.1,222v-35.7c0-1.4-1.2-2.6-2.6-2.6h-54.3c-1.4,0-2.6,1.2-2.6,2.6V222"/>
	</g>
	<path class="st36" d="M169.9,218.4"/>
	<path class="st36" d="M154,218.4"/>
	<g>
		<path class="st35" d="M206.4,228.8c0,1.3-1.2,2.4-2.6,2.4h-78.5c-1.4,0-2.6-1.1-2.6-2.4s1.2-2.4,2.6-2.4h78.5
			C205.2,226.4,206.4,227.5,206.4,228.8z"/>
	</g>
	<path class="st35" d="M184.7,191.6"/>
	<polyline class="st37" points="181.2,199.8 178.7,197.3 173,191.6 167.3,197.9 161,191.6 144.5,215.4 151.2,221.9 194.3,221.9 
		194.3,200.9 185,191.6 181.2,199.8 	"/>
	<rect x="144.5" y="191.6" class="st3" width="16.5" height="23.8"/>
	<rect x="165.4" y="191.6" class="st3" width="7.6" height="8.3"/>
	<rect x="165.4" y="204" class="st3" width="19.3" height="11.4"/>
	<rect x="177.1" y="191.6" class="st3" width="7.6" height="8.3"/>
</g>
<g id="deploy-code">
	<rect x="140.3" y="264.2" class="st35" width="49.1" height="68.1"/>
	<polygon class="st37" points="189.2,289.8 176,276.6 168,278.6 170.6,281.2 170.1,281.2 165.4,276.6 161.2,276.6 158.6,274 
		146.5,274 150.1,277.6 150.1,288.4 156.2,294.5 146.5,294.5 146.5,296.6 150.1,300.3 150.1,306 155.8,311.7 146.5,311.7 
		146.5,313.7 150.1,317.4 150.1,323.1 159.3,332.3 189.4,332.2 189.4,289.9 	"/>
	<rect x="146.5" y="271.9" class="st38" width="12.2" height="2.1"/>
	<rect x="150.1" y="276.6" class="st39" width="15.3" height="2.1"/>
	<rect x="150.1" y="281.2" class="st39" width="15.3" height="2.1"/>
	<rect x="168" y="276.6" class="st3" width="8" height="2.1"/>
	<rect x="168" y="281.2" class="st3" width="3.6" height="2.1"/>
	<rect x="150.1" y="299.2" class="st39" width="15.3" height="2.1"/>
	<rect x="150.1" y="303.9" class="st39" width="15.3" height="2.1"/>
	<rect x="168" y="299.2" class="st3" width="8" height="2.1"/>
	<rect x="150.1" y="286.3" class="st39" width="15.3" height="2.1"/>
	<rect x="168" y="286.3" class="st3" width="8" height="2.1"/>
	<rect x="168" y="303.9" class="st3" width="3.6" height="2.1"/>
	<rect x="146.5" y="294.6" class="st38" width="12.2" height="2.1"/>
	<rect x="150.1" y="316.3" class="st39" width="15.3" height="2.1"/>
	<rect x="150.1" y="321" class="st39" width="15.3" height="2.1"/>
	<rect x="168" y="316.3" class="st3" width="8" height="2.1"/>
	<rect x="168" y="321" class="st3" width="3.6" height="2.1"/>
	<rect x="146.5" y="311.7" class="st38" width="12.2" height="2.1"/>
</g>
<g id="deploy-app-drip">
	<polygon class="st35" points="283.7,217.6 260,231.3 236.2,217.6 236.2,190.2 260,176.5 283.7,190.2 	"/>
	<polyline class="st37" points="243.4,213.4 267.1,227.1 283.7,217.6 283.7,190.2 276.5,185.9 	"/>
	<polygon class="st39" points="276.5,213.4 260,223 243.4,213.4 243.4,194.3 260,184.8 276.5,194.3 	"/>
	<g>
		<path class="st39" d="M276.5,162.3c0-1.6-1.3-3-3-3s-3,1.4-3,3v31.5c0,1.6,1.3,3,3,3s3-1.4,3-3V162.3z"/>
	</g>
	<polyline class="st40" points="269.3,194 276.5,197.8 276.5,213.4 266.5,219.2 250.1,209.6 	"/>
	<g>
		<path class="st39" d="M258.5,170.3c0-1.6-1.3-3-3-3c-1.6,0-3,1.4-3,3v18.2c0,1.6,1.3,3,3,3c1.6,0,3-1.4,3-3V170.3z"/>
	</g>
	<g>
		<path class="st39" d="M249.3,176.6c0-1.6-1.3-3-3-3s-3,1.4-3,3v18.2c0,1.6,1.3,3,3,3s3-1.4,3-3V176.6z"/>
	</g>
	<polyline class="st40" points="253.2,189 260.4,192.8 260.4,202.4 250.4,208.2 	"/>
	<g>
		<path class="st39" d="M267.6,176.6c0-1.6-1.3-3-3-3s-3,1.4-3,3v12.9c0,1.6,1.3,3,3,3s3-1.4,3-3V176.6z"/>
	</g>
	<polygon class="st3" points="269.9,209.6 260,215.3 250.1,209.6 250.1,198.1 260,192.4 269.9,198.1 	"/>
	<g>
		<ellipse class="st39" cx="255.5" cy="161.8" rx="3" ry="2.9"/>
	</g>
	<g>
		<path class="st3" d="M254.3,190.9c0-1.2-1-2.2-2.1-2.2s-2.1,1-2.1,2.2v9.9c0,1.2,1,2.2,2.1,2.2s2.1-1,2.1-2.2V190.9z"/>
	</g>
	<g>
		<path class="st39" d="M276.5,147.5c0-1.6-1.3-3-3-3s-3,1.4-3,3v5.4c0,1.6,1.3,3,3,3s3-1.4,3-3V147.5z"/>
	</g>
	<g>
		<path class="st3" d="M269.9,195.5c0-1.2-1-2.2-2.1-2.2s-2.1,1-2.1,2.2v5.3c0,1.2,1,2.2,2.1,2.2s2.1-1,2.1-2.2V195.5z"/>
	</g>
	<g>
		<path class="st3" d="M262.6,186.9c0-1.2-1-2.2-2.1-2.2s-2.1,1-2.1,2.2v9.3c0,1.2,1,2.2,2.1,2.2s2.1-1,2.1-2.2V186.9z"/>
	</g>
</g>
<g id="admin-refresh">
	<circle class="st41" cx="67.2" cy="412" r="25.7"/>
	<path class="st42" d="M74.6,397.2c5.4,2.7,9.1,8.3,9.1,14.7c0,9.1-7.4,16.5-16.5,16.5s-16.5-7.4-16.5-16.5s7.4-16.5,16.5-16.5"/>
	<polyline class="st42" points="74.6,404.7 74.6,397.2 82,397.2 	"/>
</g>
<g id="admin-rebuild">
	<circle class="st41" cx="207.5" cy="412" r="25.7"/>
	<line class="st42" x1="198" y1="421.9" x2="198" y2="425.9"/>
	<line class="st42" x1="198" y1="398.4" x2="198" y2="415.6"/>
	<line class="st42" x1="202.8" y1="415.6" x2="202.8" y2="428.1"/>
	<line class="st42" x1="202.8" y1="396.1" x2="202.8" y2="409.9"/>
	<line class="st42" x1="207.5" y1="425.9" x2="207.5" y2="428.8"/>
	<line class="st42" x1="207.5" y1="407.4" x2="207.5" y2="420.8"/>
	<line class="st42" x1="207.5" y1="395.1" x2="207.5" y2="401.6"/>
	<line class="st42" x1="212.3" y1="415.6" x2="212.3" y2="428.1"/>
	<line class="st42" x1="212.3" y1="397.2" x2="212.3" y2="409.9"/>
	<line class="st42" x1="217.1" y1="421.9" x2="217.1" y2="425.9"/>
	<line class="st42" x1="217.1" y1="399.9" x2="217.1" y2="415.6"/>
</g>
<g id="admin-reboot">
	<circle class="st41" cx="137.3" cy="412" r="25.7"/>
	<line class="st42" x1="137.3" y1="404.7" x2="137.3" y2="390.4"/>
	<path class="st42" d="M130.9,396.8c-5.9,2.5-10,8.4-10,15.2c0,9.1,7.4,16.5,16.5,16.5s16.5-7.4,16.5-16.5c0-6.8-4.1-12.7-10-15.2"
		/>
</g>
<g id="admin-delete">
	<circle class="st41" cx="421.8" cy="412" r="25.7"/>
	<line class="st42" x1="410.2" y1="400.3" x2="433.6" y2="423.7"/>
	<line class="st42" x1="433.6" y1="400.3" x2="410.2" y2="423.7"/>
</g>
<g id="admin-manage">
	<circle class="st41" cx="282.1" cy="412" r="25.7"/>
	<polygon class="st42" points="270,405 282.1,397.9 294.3,405 294.3,419 282.1,426 270,419 	"/>
	<polyline class="st42" points="270,419 282.1,412 282.1,397.9 	"/>
	<line class="st42" x1="282.1" y1="403.6" x2="294.3" y2="410.6"/>
	<line class="st42" x1="288.2" y1="407.3" x2="288.2" y2="421.3"/>
	<line class="st42" x1="275.9" y1="422.5" x2="288" y2="415.5"/>
	<line class="st42" x1="270" y1="410.6" x2="282.1" y2="403.6"/>
</g>
<g id="admin-update">
	<circle class="st41" cx="352" cy="412.6" r="25.7"/>
	<line class="st42" x1="341.6" y1="412.6" x2="361.6" y2="412.6"/>
	<polyline class="st42" points="355.2,406.3 361.6,412.6 355.2,419 	"/>
</g>
</svg>
