<?xml version="1.0" encoding="utf-8"?>
<!-- Generator: Adobe Illustrator 19.2.1, SVG Export Plug-In . SVG Version: 6.00 Build 0)  -->
<svg version="1.1" id="svgs" xmlns="http://www.w3.org/2000/svg" xmlns:xlink="http://www.w3.org/1999/xlink" x="0px" y="0px"
	 viewBox="0 0 600 480" style="enable-background:new 0 0 600 480;" xml:space="preserve">
<style type="text/css">
	.st0{fill:none;stroke:#547F91;stroke-width:1.5;stroke-miterlimit:10;}
	.st1{fill:none;stroke:#547F91;stroke-width:1.5;stroke-miterlimit:10;stroke-dasharray:1.9446,1.9446;}
	.st2{fill:#547F91;}
	.st3{fill:#FFFFFF;}
	.st4{fill:none;stroke:#678C9C;stroke-width:1.5;stroke-miterlimit:10;}
	.st5{fill:#6FCFC9;stroke:#6FCFC9;stroke-width:2;stroke-miterlimit:10;}
	.st6{fill:none;stroke:#358285;stroke-width:1.7038;stroke-linecap:round;stroke-linejoin:round;stroke-miterlimit:10;}
	.st7{fill:none;}
	.st8{fill:none;stroke:#678C9C;stroke-width:2;stroke-miterlimit:10;}
	.st9{fill:#FFFFFF;stroke:#678C9C;stroke-width:2;stroke-miterlimit:10;}
	.st10{fill:none;stroke:#FFFFFF;stroke-width:2;stroke-linejoin:bevel;stroke-miterlimit:10;}
</style>
<g id="nav-stats">
	<line class="st0" x1="115.9" y1="114.8" x2="115.9" y2="124.6"/>
	<line class="st0" x1="119.6" y1="116.7" x2="119.6" y2="124.6"/>
	<line class="st0" x1="123.4" y1="113.6" x2="123.4" y2="124.6"/>
	<line class="st0" x1="127.1" y1="116.2" x2="127.1" y2="124.6"/>
	<line class="st0" x1="130.8" y1="118" x2="130.8" y2="124.6"/>
</g>
<g id="nav-scale">
	<ellipse transform="matrix(0.9876 -0.1567 0.1567 0.9876 -17.9452 14.3755)" class="st0" cx="82.2" cy="121" rx="4.9" ry="4.9"/>
	<g>
		<g>
			<path class="st0" d="M86.7,114.6c0.3-0.2,0.5-0.4,0.8-0.6"/>
			<path class="st1" d="M89.3,113.3c0.1,0,0.3-0.1,0.4-0.1c3.5-0.6,6.9,1.9,7.4,5.4c0.6,3.5-1.8,6.9-5.4,7.4
				c-0.6,0.1-1.1,0.1-1.6,0.1"/>
			<path class="st0" d="M89.2,125.9c-0.3-0.1-0.6-0.2-0.9-0.3"/>
		</g>
	</g>
</g>
<g id="nav-app-component">
	<polygon class="st0" points="23.1,124.2 15.9,128.3 8.7,124.2 8.7,115.8 15.9,111.6 23.1,115.8 	"/>
	<polygon class="st2" points="12.8,122.3 15.9,116.9 19,122.3 	"/>
</g>
<g id="nav-platform-component">
	<circle class="st0" cx="42.4" cy="121.8" r="0.8"/>
	<circle class="st0" cx="47.3" cy="125.7" r="0.8"/>
	<circle class="st0" cx="47.3" cy="117.9" r="0.8"/>
	<polyline class="st0" points="48,125.7 56.6,125.7 58.8,123.6 	"/>
	<polyline class="st0" points="48,117.9 56.6,117.9 58.8,115.7 	"/>
	<line class="st0" x1="43.6" y1="121.8" x2="55.6" y2="121.8"/>
</g>
<g id="nav-instance-health">
	<circle class="st2" cx="158.3" cy="111.1" r="1"/>
	<circle class="st2" cx="158.3" cy="114.3" r="0.9"/>
	<circle class="st2" cx="158.3" cy="118.3" r="1"/>
	<ellipse transform="matrix(0.704 -0.7102 0.7102 0.704 -34.378 148.5192)" class="st2" cx="161" cy="115.5" rx="0.9" ry="0.9"/>
	
		<ellipse transform="matrix(1 -9.098871e-03 9.098871e-03 1 -1.0688 1.4808)" class="st2" cx="162.2" cy="118.2" rx="0.9" ry="0.9"/>
	<ellipse transform="matrix(0.6975 -0.7166 0.7166 0.6975 -37.9313 151.9358)" class="st2" cx="161" cy="120.9" rx="0.9" ry="0.9"/>
	
		<ellipse transform="matrix(0.9998 -1.820186e-02 1.820186e-02 0.9998 -2.1943 2.9015)" class="st2" cx="158.3" cy="122" rx="0.9" ry="0.9"/>
	<ellipse transform="matrix(0.691 -0.7229 0.7229 0.691 -39.3056 149.8539)" class="st2" cx="155.6" cy="120.9" rx="0.9" ry="0.9"/>
	
		<ellipse transform="matrix(0.9996 -2.710266e-02 2.710266e-02 0.9996 -3.1467 4.2279)" class="st2" cx="154.4" cy="118.2" rx="0.9" ry="0.9"/>
	<ellipse transform="matrix(0.6848 -0.7287 0.7287 0.6848 -35.19 149.6222)" class="st2" cx="155.4" cy="115.5" rx="0.9" ry="0.9"/>
	<ellipse transform="matrix(0.4398 -0.8981 0.8981 0.4398 -9.9962 207.5424)" class="st2" cx="161.4" cy="111.8" rx="1" ry="1"/>
	<ellipse transform="matrix(0.7901 -0.613 0.613 0.7901 -35.3517 124.3634)" class="st2" cx="163.9" cy="113.8" rx="1" ry="1"/>
	<ellipse transform="matrix(0.9792 -0.2031 0.2031 0.9792 -20.277 36.0068)" class="st2" cx="165.3" cy="116.8" rx="1" ry="1"/>
	<ellipse transform="matrix(0.2483 -0.9687 0.9687 0.2483 8.0598 250.2122)" class="st2" cx="165.2" cy="119.9" rx="1" ry="1"/>
	<ellipse transform="matrix(0.6494 -0.7605 0.7605 0.6494 -35.9885 167.5568)" class="st2" cx="163.7" cy="122.8" rx="1" ry="1"/>
	<ellipse transform="matrix(0.9177 -0.3973 0.3973 0.9177 -36.2834 74.2692)" class="st2" cx="161.1" cy="124.7" rx="1" ry="1"/>
	
		<ellipse transform="matrix(4.699928e-02 -0.9989 0.9989 4.699928e-02 25.2423 277.0518)" class="st2" cx="157.8" cy="125.3" rx="1" ry="1"/>
	<ellipse transform="matrix(0.4818 -0.8763 0.8763 0.4818 -28.7778 200.0911)" class="st2" cx="154.8" cy="124.4" rx="1" ry="1"/>
	<ellipse transform="matrix(0.8181 -0.575 0.575 0.8181 -42.6063 109.869)" class="st2" cx="152.4" cy="122.3" rx="1" ry="1"/>
	<ellipse transform="matrix(0.9877 -0.1562 0.1562 0.9877 -16.7787 25.0818)" class="st2" cx="151.2" cy="119.3" rx="1" ry="1"/>
	<ellipse transform="matrix(0.2942 -0.9557 0.9557 0.2942 -4.1691 226.7538)" class="st2" cx="151.4" cy="116.2" rx="1" ry="1"/>
	<ellipse transform="matrix(0.6846 -0.7289 0.7289 0.6846 -34.3018 147.3313)" class="st2" cx="153.1" cy="113.3" rx="1" ry="1"/>
	<ellipse transform="matrix(0.9354 -0.3535 0.3535 0.9354 -29.3617 62.2395)" class="st2" cx="155.7" cy="111.5" rx="1" ry="1"/>
</g>
<g id="corner-bg">
	<polygon class="st3" points="9.9,-18 600,-18 600,-75 -13.5,-75 -13.5,-32.5 	"/>
</g>
<g id="nav-split">
	<path class="st4" d="M235,115.1c-2.7,0-4.9,2.2-4.9,4.9s2.2,4.9,4.9,4.9l0,0c2.5,0,4.4-3,5.4-3.1c1.9-0.2,2,1.6,4.2,1.6l0,0
		c1.9,0,3.4-1.5,3.4-3.4s-1.5-3.4-3.4-3.4l0,0c-2.4,0-2.3,1.8-4.2,1.6C239.4,118.2,237.5,115.1,235,115.1L235,115.1z"/>
</g>
<g id="nav-admin">
	
		<ellipse transform="matrix(0.9413 -0.3375 0.3375 0.9413 -25.3943 102.3279)" class="st4" cx="281.6" cy="124.2" rx="3.1" ry="3.1"/>
	
		<ellipse transform="matrix(0.9412 -0.3377 0.3377 0.9412 -21.8157 102.9877)" class="st4" cx="285.1" cy="114.2" rx="3.1" ry="3.1"/>
	<ellipse transform="matrix(0.9413 -0.3376 0.3376 0.9413 -23.0137 105.667)" class="st4" cx="292.3" cy="119" rx="1.9" ry="1.9"/>
	<line class="st4" x1="282.6" y1="121.4" x2="284.3" y2="117.1"/>
	<line class="st4" x1="290.9" y1="117.8" x2="288" y2="116"/>
	
		<ellipse transform="matrix(0.8869 -0.4619 0.4619 0.8869 -24.2734 140.2343)" class="st4" cx="274.3" cy="119.7" rx="1.9" ry="1.9"/>
	<line class="st4" x1="275.9" y1="120.7" x2="279" y2="122.2"/>
</g>
<g id="nav-console">
	<rect x="186.5" y="114.3" class="st4" width="17.2" height="10.5"/>
	<line class="st4" x1="193.8" y1="121" x2="197.8" y2="121"/>
	<polyline class="st4" points="189.6,116.9 191.6,119 189.6,121 	"/>
</g>
<g id="hex-glob-storage">
	<polygon class="st5" points="340.8,74.8 317.2,88.4 293.6,74.8 293.6,47.5 317.2,33.9 340.8,47.5 	"/>
	
		<rect x="308.5" y="52.5" transform="matrix(0.7071 -0.7071 0.7071 0.7071 49.6567 242.1674)" class="st6" width="17.3" height="17.3"/>
	
		<rect x="311.9" y="56" transform="matrix(0.7071 -0.7071 0.7071 0.7071 49.6136 242.1329)" class="st6" width="10.4" height="10.4"/>
	<rect x="317.9" y="54" transform="matrix(0.707 -0.7072 0.7072 0.707 52.0129 247.7511)" class="st6" width="14.2" height="14.2"/>
	
		<rect x="302.5" y="54.1" transform="matrix(0.7072 -0.707 0.707 0.7072 47.3796 236.8024)" class="st6" width="14.2" height="14.2"/>
	<rect x="330.2" y="57.3" transform="matrix(0.707 -0.7072 0.7072 0.707 54.6551 254.1195)" class="st6" width="7.6" height="7.6"/>
	
		<rect x="296.4" y="57.4" transform="matrix(0.7071 -0.7071 0.7071 0.7071 44.6372 230.2078)" class="st6" width="7.6" height="7.6"/>
</g>
<g id="hex-router">
	<polygon class="st5" points="268.9,74.8 245.3,88.4 221.7,74.8 221.7,47.5 245.3,33.9 268.9,47.5 	"/>
	<polygon class="st6" points="227.9,72.9 233.3,69.6 258.1,69.6 258.1,63 233.3,63 227.9,66.3 	"/>
	<polygon class="st6" points="263,75.7 258.8,72.9 232.8,72.9 232.8,66.3 258.8,66.3 263,69.1 	"/>
	<polygon class="st6" points="263.9,49 257.2,53.5 232.5,53.5 232.5,60.1 257.2,60.1 263.9,55.5 	"/>
	<polygon class="st6" points="226.9,47 231.8,50.2 257.7,50.2 257.7,56.8 231.8,56.8 226.9,53.5 	"/>
	<line class="st6" x1="237.8" y1="50.2" x2="237.8" y2="66.3"/>
	<line class="st6" x1="251.6" y1="53.5" x2="251.6" y2="72.9"/>
	<line class="st6" x1="240.5" y1="53.5" x2="240.5" y2="69.6"/>
	<line class="st6" x1="254.3" y1="56.8" x2="254.3" y2="72.9"/>
	<line class="st6" x1="246.2" y1="56.8" x2="246.2" y2="69.6"/>
	<line class="st6" x1="258.9" y1="55.3" x2="265.9" y2="51"/>
	<line class="st6" x1="225.7" y1="70.9" x2="229.9" y2="68.3"/>
	<line class="st6" x1="260.1" y1="70.8" x2="263.4" y2="72.9"/>
	<line class="st6" x1="225.8" y1="49.6" x2="230.2" y2="52.6"/>
</g>
<g id="hex-health-monitor">
	<polygon class="st5" points="197,74.8 173.4,88.4 149.8,74.8 149.8,47.5 173.4,33.9 197,47.5 	"/>
	<polygon class="st6" points="156.1,52.1 164.2,46.8 181.5,58.3 173.4,63.6 	"/>
	<polygon class="st6" points="156.1,57.4 164.2,52.1 181.5,63.6 173.4,69 	"/>
	<polygon class="st6" points="156.1,62.8 164.2,57.4 181.5,69 173.4,74.3 	"/>
	<polygon class="st6" points="190.7,52.1 182.7,46.8 165.4,58.3 173.4,63.6 	"/>
	<line class="st6" x1="190.7" y1="67.9" x2="190.7" y2="52.1"/>
	<polygon class="st6" points="190.7,57.4 182.7,52.1 165.4,63.6 173.4,69 	"/>
	<polygon class="st6" points="190.7,62.8 182.7,57.4 165.4,69 173.4,74.3 	"/>
	<polygon class="st6" points="156.1,68.1 164.2,62.8 181.5,74.3 173.4,79.7 	"/>
	<polygon class="st6" points="190.7,68.1 182.7,62.8 165.4,74.3 173.4,79.7 	"/>
	<line class="st6" x1="182.8" y1="57.4" x2="182.8" y2="46.8"/>
	<line class="st6" x1="155.9" y1="68.1" x2="155.9" y2="52.3"/>
	<line class="st6" x1="164.3" y1="57.4" x2="164.3" y2="46.8"/>
</g>
<g id="hex-logger">
	<polygon class="st5" points="125.2,74.8 101.6,88.4 78,74.8 78,47.5 101.6,33.9 125.2,47.5 	"/>
	<polygon class="st6" points="92.3,70.6 92.4,55.1 103.9,48.7 103.8,64.2 	"/>
	<polygon class="st6" points="88.5,69 88.6,53.5 100,47.1 100,62.6 	"/>
	<polygon class="st6" points="84.7,67.4 84.8,51.9 96.2,45.5 96.2,61 	"/>
	<polygon class="st6" points="81,65.8 81,50.3 92.5,43.9 92.4,59.4 	"/>
	<polygon class="st6" points="111.3,78.6 111.5,63 122.9,56.7 122.8,72.2 	"/>
	<polygon class="st6" points="107.6,77 107.7,61.4 119.2,55.1 119,70.6 	"/>
	<polygon class="st6" points="103.8,75.4 103.8,59.8 115.3,53.5 115.2,69 	"/>
	<polygon class="st6" points="100,73.8 100,58.2 111.5,51.9 111.4,67.4 	"/>
</g>
<g id="hex-load-balancer">
	<polygon class="st5" points="53.3,75.4 29.7,89 6.1,75.4 6.1,48.2 29.7,34.5 53.3,48.2 	"/>
	<path class="st6" d="M47.4,61.6"/>
	<line class="st6" x1="50.6" y1="69.7" x2="29.8" y2="56.6"/>
	<line class="st6" x1="49.1" y1="74.3" x2="29.8" y2="62.1"/>
	<polyline class="st6" points="29.8,51.1 50.6,64.2 50.6,66.8 50.6,73.6 	"/>
	<line class="st6" x1="50.6" y1="64.2" x2="33.9" y2="53.6"/>
	<polyline class="st6" points="50.6,69.7 33.9,59.1 33.9,48.1 50.5,58.6 	"/>
	<polyline class="st6" points="29.7,74.1 50.5,60.9 50.5,49.9 29.7,63 	"/>
	<line class="st6" x1="29.9" y1="68.6" x2="39.4" y2="62.6"/>
	<line class="st6" x1="29.9" y1="63" x2="39.4" y2="57.1"/>
	<line class="st6" x1="39.4" y1="68.1" x2="29.9" y2="74.1"/>
	<line class="st6" x1="29.8" y1="56.6" x2="39.3" y2="62.6"/>
	<line class="st6" x1="29.8" y1="62.1" x2="39.3" y2="68.1"/>
	<line class="st6" x1="39.3" y1="57" x2="29.8" y2="51.1"/>
	<line class="st6" x1="50.5" y1="55.4" x2="29.7" y2="68.6"/>
	<polygon class="st7" points="53.3,75.4 29.7,89 6.1,75.4 6.1,48.2 29.7,34.5 53.3,48.2 53.3,54.6 53.3,60.6 53.3,66.7 	"/>
	<line class="st6" x1="39.3" y1="62.7" x2="50.5" y2="55.6"/>
	<polyline class="st6" points="50.6,66.6 39.3,73.8 39.3,68.3 50.5,61.2 	"/>
	<path class="st6" d="M50.6,66.8"/>
	<path class="st6" d="M11.9,61.6"/>
	<line class="st6" x1="8.7" y1="69.7" x2="29.5" y2="56.6"/>
	<line class="st6" x1="10.3" y1="74.3" x2="29.5" y2="62.1"/>
	<polyline class="st6" points="29.5,51.1 8.7,64.2 8.7,66.8 8.7,73.6 	"/>
	<line class="st6" x1="8.7" y1="64.2" x2="25.5" y2="53.6"/>
	<polyline class="st6" points="8.7,69.7 25.5,59.1 25.5,48.1 8.8,58.6 	"/>
	<polyline class="st6" points="29.7,74.1 8.8,60.9 8.8,49.9 29.7,63 	"/>
	<line class="st6" x1="29.4" y1="68.6" x2="20" y2="62.6"/>
	<line class="st6" x1="29.4" y1="63" x2="20" y2="57.1"/>
	<line class="st6" x1="20" y1="68.1" x2="29.4" y2="74.1"/>
	<line class="st6" x1="29.5" y1="56.6" x2="20.1" y2="62.6"/>
	<line class="st6" x1="29.5" y1="62.1" x2="20.1" y2="68.1"/>
	<line class="st6" x1="20.1" y1="57" x2="29.5" y2="51.1"/>
	<line class="st6" x1="8.8" y1="55.4" x2="29.7" y2="68.6"/>
	<line class="st6" x1="20.1" y1="62.7" x2="8.8" y2="55.6"/>
	<polyline class="st6" points="8.7,66.6 20.1,73.8 20.1,68.3 8.8,61.2 	"/>
	<path class="st6" d="M8.7,66.8"/>
	<path class="st6" d="M8.7,66.8"/>
</g>
<g id="admin-octopus">
	<polygon class="st8" points="59.8,206.2 43.1,215.9 26.3,206.2 26.3,186.8 43.1,177.2 59.8,186.8 	"/>
	<polyline class="st8" points="59.8,206.2 69.9,212 82.6,212 	"/>
	<polyline class="st8" points="31.6,203.2 23.5,208 23.5,224.6 	"/>
	<polyline class="st8" points="49.7,211.4 49.7,222.6 60.9,229.1 	"/>
	<circle class="st8" cx="85.2" cy="212" r="2.6"/>
	<circle class="st8" cx="23.5" cy="227.2" r="2.6"/>
	<circle class="st9" cx="53.3" cy="196.5" r="2.6"/>
	<circle class="st9" cx="33.7" cy="201.7" r="2.6"/>
	<circle class="st9" cx="49.7" cy="212" r="2.6"/>
	<circle class="st8" cx="62.5" cy="230.5" r="2.6"/>
	<circle class="st8" cx="41" cy="188" r="2.6"/>
	<circle class="st8" cx="15.7" cy="172.6" r="2.6"/>
	<polyline class="st8" points="39,186.7 28.8,172.6 18,172.6 	"/>
	<polyline class="st8" points="80,181.8 69.8,196.5 55.9,196.5 	"/>
	<circle class="st9" cx="80" cy="181.8" r="2.6"/>
	<polyline class="st8" points="60.9,165.8 60.9,176.3 52.3,182.5 	"/>
	<ellipse transform="matrix(0.8233 -0.5676 0.5676 0.8233 -83.4141 63.8859)" class="st9" cx="60.9" cy="165.9" rx="2.6" ry="2.6"/>
	<polyline class="st8" points="3.3,198.9 8.4,193.6 26.4,193.6 	"/>
	<circle class="st9" cx="3.3" cy="198.9" r="2.6"/>
</g>
<g id="component-silvering">
	<path class="st10" d="M146.1-185.1H52.4v-15h7.4l0.3,10.3l8.2-15.5H56.9l4-7.3H48.2v27.5H43V-218h12.2v-5.6H38.9v38.5h-5.2v-43
		h26.6v10.9h9.2l-0.4,0.7l-3.7,7h5.1l7.4-14H66.4v-4.7H87l-20.6,38h80v-6h-13.9l-1.2,2h-5.9l3.2-6.2h6.3v-6.4h-3.2l2.4-5.1h8.3v-3.3
		h-6.9l2.3-4.8h6.9l3.1,8.4h6.1l-6.1-12.2h-7.4l2.5-4.6h7.1l11.4,21.9h-21.5v6.1h23.3l3.8,7.6h-15v6.7h71.7l10.2-8.5v8.5l10.2-8.5
		v8.5l10.2-8.5v8.5h61.9v-5.5H260v-5.2h75.9v-5.6h-81.8v3.5h-31.2l-2.7-5h28.4v-6h-31.5l-3.1-6.3h34.7v-6.5h-38.2l-3-5.7h41.2v-5.3
		h-51l21.5,40.8h-6.4l-21.6-40.7h-6.4l21.5,40.8h-6.4l-21.5-40.8H172l21.5,40.8h-6.4l-21.5-40.8h-6.4l21.5,40.8h-6.4l-21.5-40.8H140
		l-20.8,39.4h-6.4l20.8-39.4h-5.4l-20.8,39.4H100l20.8-39.4h-5.4l-20.8,39.4h-7.4l20.8-39.4h-5.4l-20.8,39.4h-6.4l20.8-39.4h-6.4
		l-63.6-0.1v6.4L13-220l-4.6-2.7l1.4-0.8l12-6.9v-7.8l-5.7-3.3v8.4l-16.7,9.6v2l11.9,6.9l17.7-9.6v5.7L4.4-205.1v-7.3l-11.9-6.9
		v-6.7l18.2-10.4v-8.2l-5.3-3v8.3L-12.4-229v12.4l11.9,6.9v6.1l-16.6-9.6v-19.9l17.8-10.3v-6.9L-22.6-237v26.9l23.3,13.4l28.7-16.6
		v28.2h-5.5v-4.7L13-184.1H8.9l-3.2-2L24-196.3v-6.8L0.7-189.8l-29.2-16.9v-33.8L-1-256.4l30.4,17.7H254v30.2h35.8v-5.8h-30.2v-24.4
		h87.3v4.7h-82v14h30.4v11.1h18.9v-10.3h-6.1v5.6h-7.2v-10.1h-31v-4.8h36.8l4.6,4.6l4.6-4.6l4.6,4.6l4.6-4.6l4.6,4.6l4.6-4.6
		l4.6,4.6l4.6-4.6l4.6,4.6l4.6-4.6l4.6,4.6l4.6-4.6l4.6,4.6l4.6-4.6l4.6,4.6l4.6-4.6l4.6,4.6l4.6-4.6l4.6,4.6l4.6-4.6l3.8,3.4
		l8.9-8.9h-57.7v-4.7h179.8v16h-5.3v-11.7h-5v11.7h-4.4v-11.7h-5v11.7h-5.2v-11.7h-5v11.7h-5.2v-11.7h-5v11.7h-38.9v9.1h-6.1v-5.6
		h-6.1v5.6h-6.1v-5.6h-6.1v5.6H424v-5.6h-6.1v5.6h-6.1v-7.4l6-5.9l3.9,3.1l4.6-4.6l4.6,4.6l4.6-4.6l4.6,4.6l4.6-4.6l4.6,4.6l4.6-4.6
		H487v-5.5h-68.9l-12.4,12.7v7.7h-6.1v-5.6h-6.1v5.6h-6.1v-5.6h-6.1v5.6h-6.1v-5.6h-6.1v5.6H363v-5.6h-6.1v5.6h-6.1v-5.6h-6.1v5.6
		h-6.1v-5.6h-6.1v5.6h-6.1v-5.6h-6.1v10.3h36.6v6.5h-13.4v5.6h13.9v5.2h-34.5v5.5h61.3v-5.5H363v-5.2h14.8v-5.6h-14.9v-6.5h73.7v6.5
		h-53.1v5.6h14.9v5.2H390v5.5h52.9v-5.5h-37.7v-5.2H456v-5.6h-13.8v-6.5h20.1v11.8h7.7l2.2-5.2h5.8v10.7h-29.7l0,5.5H594v-5.5h-17.5
		v-5.2H572l-5.6,5.2h-65.7l-4.5-5.2h-5.5v5.2h-7.3v-10.7h15.9l4.5,5.2h56.4l5.6-5.2h6.7c5.8,0,10.5-4.7,10.5-10.5
		c0-1.8-0.4-3.4-1.2-4.9l-3.3,2.4c0.3,0.8,0.5,1.7,0.5,2.6c0,3.6-2.9,6.5-6.5,6.5s-6.5-2.9-6.5-6.5l4,0.1c0,1.4,1.1,2.5,2.5,2.5
		s2.5-1.1,2.5-2.5s-1.1-2.5-2.5-2.5c-0.3,0-0.6,0.1-0.9,0.2l-1.6-3.7c0.7-0.3,1.6-0.5,2.5-0.5c1.3,0,2.6,0.4,3.6,1.1l2.3-3.3
		c-1.7-1.1-3.7-1.8-5.9-1.8c-5.8,0-10.5,4.7-10.5,10.5c0,2.2,0.7,4.2,1.8,5.9h-3l-5.5,5.1h-46.6l-4.4-5.1h-36.1v-6.9h-6.7v-4.6h11.8
		v7.8h5.2v-7.8h5v7.8h5.2v-7.8h5v7.8h5.2v-7.8h5v7.8h5.2v-7.8h5v12.4h4.4v-12.4h5v12.4h5.2v-12.4h5v12.4h5.2v-12.4h5v12.4h5.2v-12.4
		h5v7.8h3.5v-12.3h-19.3v-16h42.3h4.2v10.1l4.6,4.5v-14.4h4.7v41.7h-11.1v-5.1c2.7-2.7,4.4-6.4,4.4-10.6c0-8.2-6.6-14.8-14.8-14.8
		c-3.3,0-6.3,1.1-8.7,2.8l-4-4h-16.3v-5.5h34.1l2.3,2.3"/>
</g>
<g id="host-silvering">
	<path class="st10" d="M266.3-112.4H121.7l-17.9-13.7l-31.2,32h7.8l24-24.8l16.2,13.1h137v6.2H117.2l-13.1-11L89.7-94.1h219.5l0-5.5
		h-43.4v-6.2h57.1v6.2h-7v5.5h12.9v-18.3h-55.1v-6.5H199v-6.2h74.7v-5.4H144.4l-5-4.7h-9.3l5.3,4.4h-8.5l-5.3-4.4h-8.9l12.1,10.1
		h66.8v6.2h-69.3L104-134.3L64.6-94.1h-8.1l46-46.9h-7.8l-46,46.9H41L87-141h-7.8l-46,46.9h-7.8l46-46.9h-7.8l-46,46.9H9.9l46-46.9
		l-9.2,0l-6.9,5.8l-33,0v6.6h27.9l-7.1,7.1H6.8v6.8h13.9l-7.6,7.6H6.8v5.2l-5.8,7.7L1-146.3h5.8v5.3H38l6-5.3h64.1v5.3h38.8v-5.3
		h5.7v10.8H280v16.6h5.6v-11.3H318V-141H157.5v-5.3h165.8v20.8h-32.2v6.8h37.8v-27.6h116l-3.2,5.7l19.4,0l4.5,5.8h-12.5l-10.5,20.5
		h-7h-7.6l2.1-5.1l7.9,0l7.9-15.5l-7.6,0l-5.4,9.8h-6.4l-12.9,24.3h-6.4l21.5-39.8h-6.4l-21.5,39.8h-6.4l21.5-39.8h-6.4L388-100.8
		h-6.4l21.5-39.8h-6.4l-21.6,39.7h-6.4l21.5-39.8h-56v5.3h46.2l-3,5.7h-43.2v6.5h39.7l-3.1,6.3h-36.5v6h33.4l-2.7,5h-30.7l0.1,6.3
		h26.8l-3.1,5.5h77.7v-6.7h-15l4.6-8.9h7.7l-2.4,4.3h11v11.3h59l-5.4-7h-46.9c0-2,0.1-4.1,0.1-6.1h42.1l-4.7-6.1h-36.4l3.1-6.1h28.6
		l-4.7-6.1h-20.7l2.2-4.4H475l-3.9-5h8.1l31.6,40.8h9.1l-36-46.5h-15.7l-4.1-5.7h24.5l41.1,52.2h8.2l-41.1-52.2h8.2l41.1,52.2h8.2
		l-41.1-52.2h8.2l41.1,52.2h8.2l-41.1-52.2h8.2L579-94.1h8.2l-41.1-52.2h8.2l41.1,52.2h2.2v-7.4l-35.1-44.8h8.2l26.9,33.6v-11.2
		L579-146.3h8.2l10.4,11.1v-11.1h-4.2"/>
</g>
</svg>
