<?xml version="1.0" encoding="iso-8859-1"?>
<!-- Generator: Adobe Illustrator 19.2.1, SVG Export Plug-In . SVG Version: 6.00 Build 0)  -->
<svg version="1.1" id="svgs" xmlns="http://www.w3.org/2000/svg" xmlns:xlink="http://www.w3.org/1999/xlink" x="0px" y="0px"
	 width="640px" height="480px" viewBox="0 0 640 480" style="enable-background:new 0 0 640 480;" xml:space="preserve">
<style type="text/css">
	.st0{fill:#F06368;}
	.st1{fill:#CA2128;}
	.st2{fill:url(#SVGID_1_);}
	.st3{fill:#BE2227;}
	.st4{fill:url(#SVGID_2_);}
	.st5{fill:#621310;}
	.st6{fill:url(#SVGID_3_);}
	.st7{fill:#D32034;}
	.st8{fill:url(#SVGID_4_);}
	.st9{fill:url(#SVGID_5_);}
	.st10{fill:url(#SVGID_6_);}
	.st11{fill:url(#SVGID_7_);}
	.st12{fill:#EF4C53;}
	.st13{opacity:0.61;fill:url(#SVGID_8_);enable-background:new    ;}
	.st14{fill:url(#SVGID_9_);}
	.st15{fill:url(#SVGID_10_);}
	.st16{fill:#65BC81;}
	.st17{fill:#1F8B35;}
	.st18{fill:#2BA240;}
	.st19{fill:none;stroke:#D6CBA6;stroke-miterlimit:10;}
	.st20{fill:none;stroke:#547F91;stroke-width:1.5;stroke-miterlimit:10;}
	.st21{fill:none;stroke:#547F91;stroke-width:1.5;stroke-miterlimit:10;stroke-dasharray:1.9446,1.9446;}
	.st22{fill:#547F91;}
</style>
<g id="ruby">
	<polygon id="_x3E_bg" class="st0" points="142.48,65.582 119.218,79.013 95.955,65.582 95.955,38.718 119.218,25.288 
		142.48,38.721 	"/>
	<path class="st1" d="M119.973,58.498"/>
	<linearGradient id="SVGID_1_" gradientUnits="userSpaceOnUse" x1="133.709" y1="94.3036" x2="124.8575" y2="51.3111">
		<stop  offset="0" style="stop-color:#EF4C53"/>
		<stop  offset="0.1648" style="stop-color:#EB4A51"/>
		<stop  offset="0.336" style="stop-color:#DE454B"/>
		<stop  offset="0.5103" style="stop-color:#CA3D41"/>
		<stop  offset="0.6867" style="stop-color:#AC3133"/>
		<stop  offset="0.8629" style="stop-color:#872221"/>
		<stop  offset="1" style="stop-color:#651410"/>
	</linearGradient>
	<polygon class="st2" points="132.855,58.498 125.572,49.911 119.973,59.244 	"/>
	<polygon class="st3" points="125.572,49.911 131.548,45.991 132.855,58.498 	"/>
	<linearGradient id="SVGID_2_" gradientUnits="userSpaceOnUse" x1="150.93" y1="60.3268" x2="129.1206" y2="48.6319">
		<stop  offset="0" style="stop-color:#EF4C53"/>
		<stop  offset="0.1648" style="stop-color:#EB4A51"/>
		<stop  offset="0.336" style="stop-color:#DE454B"/>
		<stop  offset="0.5103" style="stop-color:#CA3D41"/>
		<stop  offset="0.6867" style="stop-color:#AC3133"/>
		<stop  offset="0.8629" style="stop-color:#872221"/>
		<stop  offset="1" style="stop-color:#651410"/>
	</linearGradient>
	<polygon class="st4" points="132.855,58.498 139.014,49.911 131.548,42.07 131.548,45.991 	"/>
	<polygon class="st5" points="107.092,58.498 114.372,49.911 119.973,59.244 	"/>
	<polygon class="st3" points="114.372,49.911 108.398,45.991 107.092,58.498 	"/>
	<polygon class="st3" points="114.372,49.911 108.398,45.991 107.092,58.498 	"/>
	<linearGradient id="SVGID_3_" gradientUnits="userSpaceOnUse" x1="105.8602" y1="57.3322" x2="109.55" y2="51.0669">
		<stop  offset="0" style="stop-color:#FFFFFF"/>
		<stop  offset="1" style="stop-color:#FFFFFF;stop-opacity:0"/>
	</linearGradient>
	<polygon class="st6" points="114.372,49.911 108.398,45.991 107.092,58.498 	"/>
	<polygon class="st7" points="107.092,57.75 100.931,49.911 108.398,42.07 108.398,45.991 	"/>
	<linearGradient id="SVGID_4_" gradientUnits="userSpaceOnUse" x1="115.1319" y1="45.601" x2="104.317" y2="51.9097">
		<stop  offset="0" style="stop-color:#FFFFFF"/>
		<stop  offset="1" style="stop-color:#FFFFFF;stop-opacity:0"/>
	</linearGradient>
	<polygon class="st8" points="107.092,57.75 100.931,49.911 108.398,42.07 108.398,45.991 	"/>
	<linearGradient id="SVGID_5_" gradientUnits="userSpaceOnUse" x1="100.8606" y1="53.8157" x2="118.2867" y2="43.9295">
		<stop  offset="0" style="stop-color:#621310"/>
		<stop  offset="0.172" style="stop-color:#661312;stop-opacity:0.828"/>
		<stop  offset="0.3508" style="stop-color:#731418;stop-opacity:0.6492"/>
		<stop  offset="0.5327" style="stop-color:#871621;stop-opacity:0.4673"/>
		<stop  offset="0.7167" style="stop-color:#A5182E;stop-opacity:0.2833"/>
		<stop  offset="0.9007" style="stop-color:#CA1A3F;stop-opacity:0.0993"/>
		<stop  offset="1" style="stop-color:#E11C4A;stop-opacity:0"/>
	</linearGradient>
	<polygon class="st9" points="107.092,57.75 100.931,49.911 108.398,42.07 108.398,45.991 	"/>
	<linearGradient id="SVGID_6_" gradientUnits="userSpaceOnUse" x1="115.4191" y1="49.7282" x2="121.8411" y2="53.9624">
		<stop  offset="0" style="stop-color:#EE3A3F"/>
		<stop  offset="1" style="stop-color:#AC2125"/>
	</linearGradient>
	<polygon class="st10" points="119.973,49.909 114.372,49.909 114.372,49.911 119.973,59.244 125.572,49.911 125.572,49.909 	"/>
	<linearGradient id="SVGID_7_" gradientUnits="userSpaceOnUse" x1="112.9754" y1="58.8492" x2="122.317" y2="49.3393">
		<stop  offset="0" style="stop-color:#FFFFFF"/>
		<stop  offset="1" style="stop-color:#FFFFFF;stop-opacity:0.42"/>
	</linearGradient>
	<polygon class="st11" points="119.973,49.909 114.372,49.909 114.372,49.911 119.973,59.244 125.572,49.911 125.572,49.909 	"/>
	<polygon class="st12" points="126.415,39.025 119.973,39.025 113.532,39.025 108.398,42.07 108.398,45.991 114.372,49.911 
		119.973,49.909 125.572,49.911 131.548,45.991 131.548,42.07 	"/>
	<linearGradient id="SVGID_8_" gradientUnits="userSpaceOnUse" x1="135.5101" y1="25.4153" x2="118.3635" y2="45.9589">
		<stop  offset="0" style="stop-color:#FFFFFF"/>
		<stop  offset="1" style="stop-color:#FFFFFF;stop-opacity:0"/>
	</linearGradient>
	<polygon class="st13" points="126.415,39.025 119.973,39.025 113.532,39.025 108.398,42.07 108.398,45.991 114.372,49.911 
		119.973,49.909 125.572,49.911 131.548,45.991 131.548,42.07 	"/>
	<polygon class="st1" points="120,59.242 120,68 132.855,58.498 	"/>
	<linearGradient id="SVGID_9_" gradientUnits="userSpaceOnUse" x1="142.7861" y1="75.8562" x2="109.1416" y2="57.8152">
		<stop  offset="0" style="stop-color:#EF4C53"/>
		<stop  offset="0.1648" style="stop-color:#EB4A51"/>
		<stop  offset="0.336" style="stop-color:#DE454B"/>
		<stop  offset="0.5103" style="stop-color:#CA3D41"/>
		<stop  offset="0.6867" style="stop-color:#AC3133"/>
		<stop  offset="0.8629" style="stop-color:#872221"/>
		<stop  offset="1" style="stop-color:#651410"/>
	</linearGradient>
	<polygon class="st14" points="120,59.242 119.973,59.244 107.092,58.498 119.973,68.019 120,68 	"/>
	<linearGradient id="SVGID_10_" gradientUnits="userSpaceOnUse" x1="108.398" y1="45.991" x2="108.398" y2="45.991">
		<stop  offset="0" style="stop-color:#EF4C53"/>
		<stop  offset="0.1648" style="stop-color:#EB4A51"/>
		<stop  offset="0.336" style="stop-color:#DE454B"/>
		<stop  offset="0.5103" style="stop-color:#CA3D41"/>
		<stop  offset="0.6867" style="stop-color:#AC3133"/>
		<stop  offset="0.8629" style="stop-color:#872221"/>
		<stop  offset="1" style="stop-color:#651410"/>
	</linearGradient>
	<path class="st15" d="M108.398,45.991"/>
</g>
<g id="mongo-db">
	<polygon id="_x3E_bg_1_" class="st16" points="71.781,65.582 48.517,79.013 25.255,65.582 25.255,38.718 48.517,25.288 
		71.781,38.721 	"/>
	<path class="st17" d="M48.517,34.618v31.978c0,0,8.624-3.63,8.624-15.808S48.517,34.618,48.517,34.618z"/>
	<path class="st18" d="M48.517,34.618v31.978c0,0-8.624-3.63-8.624-15.808S48.517,34.618,48.517,34.618z"/>
	<line class="st19" x1="48.517" y1="66.595" x2="48.517" y2="70.839"/>
</g>
<g id="stats">
	<line class="st20" x1="145.939" y1="133.793" x2="145.939" y2="143.61"/>
	<line class="st20" x1="149.65" y1="135.685" x2="149.65" y2="143.61"/>
	<line class="st20" x1="153.361" y1="132.57" x2="153.361" y2="143.61"/>
	<line class="st20" x1="157.072" y1="135.232" x2="157.072" y2="143.61"/>
	<line class="st20" x1="160.783" y1="136.973" x2="160.783" y2="143.61"/>
</g>
<g id="scale">
	
		<ellipse transform="matrix(0.9876 -0.1567 0.1567 0.9876 -20.5514 19.3163)" class="st20" cx="112.226" cy="139.993" rx="4.908" ry="4.908"/>
	<g>
		<g>
			<path class="st20" d="M116.68,133.59c0.259-0.208,0.535-0.396,0.826-0.563"/>
			<path class="st21" d="M119.315,132.328c0.13-0.029,0.263-0.054,0.397-0.075c3.533-0.559,6.853,1.85,7.414,5.385
				c0.56,3.534-1.85,6.853-5.384,7.414c-0.553,0.087-1.1,0.102-1.632,0.052"/>
			<path class="st20" d="M119.153,144.938c-0.325-0.082-0.642-0.188-0.948-0.318"/>
		</g>
	</g>
</g>
<g id="app-component">
	<polygon class="st20" points="53.147,143.159 45.924,147.33 38.701,143.159 38.701,134.819 45.924,130.649 53.147,134.82 	"/>
	<polygon class="st22" points="42.82,141.253 45.924,135.876 49.029,141.253 	"/>
</g>
<g id="platform-component">
	<circle class="st20" cx="72.41" cy="140.792" r="0.841"/>
	<circle class="st20" cx="77.321" cy="144.705" r="0.841"/>
	<circle class="st20" cx="77.321" cy="136.931" r="0.841"/>
	<polyline class="st20" points="78,144.705 86.631,144.705 88.764,142.571 	"/>
	<polyline class="st20" points="78,136.88 86.631,136.88 88.764,134.747 	"/>
	<line class="st20" x1="73.647" y1="140.792" x2="85.634" y2="140.792"/>
</g>
<g id="instance-health">
	<circle class="st22" cx="188.295" cy="130.054" r="1.029"/>
	<circle class="st22" cx="188.292" cy="133.332" r="0.911"/>
	<circle class="st22" cx="188.295" cy="137.277" r="1.029"/>
	
		<ellipse transform="matrix(0.704 -0.7102 0.7102 0.704 -38.9548 175.4432)" class="st22" cx="190.995" cy="134.454" rx="0.911" ry="0.911"/>
	<ellipse transform="matrix(1 -0.0091 0.0091 1 -1.2403 1.754)" class="st22" cx="192.127" cy="137.178" rx="0.911" ry="0.91"/>
	
		<ellipse transform="matrix(0.6975 -0.7166 0.7166 0.6975 -42.4482 179.194)" class="st22" cx="191.017" cy="139.874" rx="0.911" ry="0.91"/>
	
		<ellipse transform="matrix(0.9998 -0.0182 0.0182 0.9998 -2.5357 3.4507)" class="st22" cx="188.311" cy="141.033" rx="0.911" ry="0.91"/>
	
		<ellipse transform="matrix(0.691 -0.7229 0.7229 0.691 -43.8111 177.4154)" class="st22" cx="185.603" cy="139.95" rx="0.911" ry="0.911"/>
	
		<ellipse transform="matrix(0.9996 -0.0271 0.0271 0.9996 -3.652 5.0483)" class="st22" cx="184.418" cy="137.257" rx="0.911" ry="0.91"/>
	
		<ellipse transform="matrix(0.6848 -0.7287 0.7287 0.6848 -39.585 177.5641)" class="st22" cx="185.474" cy="134.543" rx="0.91" ry="0.911"/>
	
		<ellipse transform="matrix(0.4398 -0.8981 0.8981 0.4398 -10.222 245.1866)" class="st22" cx="191.426" cy="130.787" rx="1.029" ry="1.029"/>
	
		<ellipse transform="matrix(0.7901 -0.613 0.613 0.7901 -40.7276 146.7572)" class="st22" cx="193.92" cy="132.846" rx="1.029" ry="1.029"/>
	
		<ellipse transform="matrix(0.9792 -0.2031 0.2031 0.9792 -23.5032 42.4856)" class="st22" cx="195.263" cy="135.764" rx="1.03" ry="1.029"/>
	
		<ellipse transform="matrix(0.2483 -0.9687 0.9687 0.2483 12.0876 293.537)" class="st22" cx="195.177" cy="138.98" rx="1.029" ry="1.029"/>
	
		<ellipse transform="matrix(0.6494 -0.7605 0.7605 0.6494 -39.9443 197.0209)" class="st22" cx="193.686" cy="141.828" rx="1.029" ry="1.029"/>
	
		<ellipse transform="matrix(0.9177 -0.3973 0.3973 0.9177 -41.3731 87.7471)" class="st22" cx="191.085" cy="143.725" rx="1.029" ry="1.029"/>
	
		<ellipse transform="matrix(0.047 -0.9989 0.9989 0.047 34.9453 325.2336)" class="st22" cx="187.921" cy="144.303" rx="1.029" ry="1.028"/>
	
		<ellipse transform="matrix(0.4818 -0.8763 0.8763 0.4818 -29.8911 236.272)" class="st22" cx="184.822" cy="143.409" rx="1.03" ry="1.029"/>
	
		<ellipse transform="matrix(0.8181 -0.575 0.575 0.8181 -48.0522 130.5855)" class="st22" cx="182.419" cy="141.259" rx="1.03" ry="1.028"/>
	
		<ellipse transform="matrix(0.9877 -0.1562 0.1562 0.9877 -19.3726 30.0061)" class="st22" cx="181.23" cy="138.263" rx="1.03" ry="1.029"/>
	
		<ellipse transform="matrix(0.2942 -0.9557 0.9557 0.2942 -1.0189 268.7523)" class="st22" cx="181.456" cy="135.066" rx="1.029" ry="1.03"/>
	
		<ellipse transform="matrix(0.6846 -0.7289 0.7289 0.6846 -38.6893 175.1823)" class="st22" cx="183.09" cy="132.299" rx="1.029" ry="1.03"/>
	
		<ellipse transform="matrix(0.9354 -0.3535 0.3535 0.9354 -34.1371 74.0971)" class="st22" cx="185.768" cy="130.497" rx="1.029" ry="1.03"/>
</g>
</svg>
