<?xml version="1.0" encoding="iso-8859-1"?>
<!-- Generator: Adobe Illustrator 19.2.1, SVG Export Plug-In . SVG Version: 6.00 Build 0)  -->
<svg version="1.1" id="svgs" xmlns="http://www.w3.org/2000/svg" xmlns:xlink="http://www.w3.org/1999/xlink" x="0px" y="0px"
	 viewBox="0 0 640 480" style="enable-background:new 0 0 640 480;" xml:space="preserve">
<style type="text/css">
	.st0{fill:#F06368;stroke:#F06368;stroke-width:2;stroke-miterlimit:10;}
	.st1{fill:#CA2128;}
	.st2{fill:url(#SVGID_1_);}
	.st3{fill:#BE2227;}
	.st4{fill:url(#SVGID_2_);}
	.st5{fill:#621310;}
	.st6{fill:url(#SVGID_3_);}
	.st7{fill:#D32034;}
	.st8{fill:url(#SVGID_4_);}
	.st9{fill:url(#SVGID_5_);}
	.st10{fill:url(#SVGID_6_);}
	.st11{fill:url(#SVGID_7_);}
	.st12{fill:#EF4C53;}
	.st13{opacity:0.61;fill:url(#SVGID_8_);enable-background:new    ;}
	.st14{fill:url(#SVGID_9_);}
	.st15{fill:url(#SVGID_10_);}
	.st16{fill:#65BC81;stroke:#65BC81;stroke-width:2;stroke-miterlimit:10;}
	.st17{fill:#1F8B35;}
	.st18{fill:#2BA240;}
	.st19{fill:none;stroke:#D6CBA6;stroke-miterlimit:10;}
	.st20{fill:none;stroke:#547F91;stroke-width:1.5;stroke-miterlimit:10;}
	.st21{fill:none;stroke:#547F91;stroke-width:1.5;stroke-miterlimit:10;stroke-dasharray:1.9446,1.9446;}
	.st22{fill:#547F91;}
	.st23{fill:#FFFFFF;}
	.st24{fill:#6FCFC9;stroke:#6FCFC9;stroke-width:2;stroke-miterlimit:10;}
	.st25{fill:none;stroke:#358285;stroke-width:1.7038;stroke-linecap:round;stroke-linejoin:round;stroke-miterlimit:10;}
	.st26{fill:none;}
	.st27{fill:none;stroke:#678C9C;stroke-width:1.5;stroke-miterlimit:10;}
</style>
<g id="hex-ruby">
	<polygon id="_x3E_bg" class="st0" points="142.48,65.582 119.218,79.013 95.955,65.582 95.955,38.718 119.218,25.288 
		142.48,38.721 	"/>
	<path class="st1" d="M119.973,58.498"/>
	
		<linearGradient id="SVGID_1_" gradientUnits="userSpaceOnUse" x1="133.709" y1="-185.6964" x2="124.8575" y2="-228.6889" gradientTransform="matrix(1 0 0 1 0 280)">
		<stop  offset="0" style="stop-color:#EF4C53"/>
		<stop  offset="0.1648" style="stop-color:#EB4A51"/>
		<stop  offset="0.336" style="stop-color:#DE454B"/>
		<stop  offset="0.5103" style="stop-color:#CA3D41"/>
		<stop  offset="0.6867" style="stop-color:#AC3133"/>
		<stop  offset="0.8629" style="stop-color:#872221"/>
		<stop  offset="1" style="stop-color:#651410"/>
	</linearGradient>
	<polygon class="st2" points="132.855,58.498 125.572,49.911 119.973,59.244 	"/>
	<polygon class="st3" points="125.572,49.911 131.548,45.991 132.855,58.498 	"/>
	
		<linearGradient id="SVGID_2_" gradientUnits="userSpaceOnUse" x1="150.93" y1="-219.6732" x2="129.1206" y2="-231.3681" gradientTransform="matrix(1 0 0 1 0 280)">
		<stop  offset="0" style="stop-color:#EF4C53"/>
		<stop  offset="0.1648" style="stop-color:#EB4A51"/>
		<stop  offset="0.336" style="stop-color:#DE454B"/>
		<stop  offset="0.5103" style="stop-color:#CA3D41"/>
		<stop  offset="0.6867" style="stop-color:#AC3133"/>
		<stop  offset="0.8629" style="stop-color:#872221"/>
		<stop  offset="1" style="stop-color:#651410"/>
	</linearGradient>
	<polygon class="st4" points="132.855,58.498 139.014,49.911 131.548,42.07 131.548,45.991 	"/>
	<polygon class="st5" points="107.092,58.498 114.372,49.911 119.973,59.244 	"/>
	<polygon class="st3" points="114.372,49.911 108.398,45.991 107.092,58.498 	"/>
	<polygon class="st3" points="114.372,49.911 108.398,45.991 107.092,58.498 	"/>
	
		<linearGradient id="SVGID_3_" gradientUnits="userSpaceOnUse" x1="105.8602" y1="-222.6678" x2="109.55" y2="-228.9331" gradientTransform="matrix(1 0 0 1 0 280)">
		<stop  offset="0" style="stop-color:#FFFFFF"/>
		<stop  offset="1" style="stop-color:#FFFFFF;stop-opacity:0"/>
	</linearGradient>
	<polygon class="st6" points="114.372,49.911 108.398,45.991 107.092,58.498 	"/>
	<polygon class="st7" points="107.092,57.75 100.931,49.911 108.398,42.07 108.398,45.991 	"/>
	
		<linearGradient id="SVGID_4_" gradientUnits="userSpaceOnUse" x1="115.1319" y1="-234.399" x2="104.317" y2="-228.0903" gradientTransform="matrix(1 0 0 1 0 280)">
		<stop  offset="0" style="stop-color:#FFFFFF"/>
		<stop  offset="1" style="stop-color:#FFFFFF;stop-opacity:0"/>
	</linearGradient>
	<polygon class="st8" points="107.092,57.75 100.931,49.911 108.398,42.07 108.398,45.991 	"/>
	
		<linearGradient id="SVGID_5_" gradientUnits="userSpaceOnUse" x1="100.8606" y1="-226.1843" x2="118.2867" y2="-236.0705" gradientTransform="matrix(1 0 0 1 0 280)">
		<stop  offset="0" style="stop-color:#621310"/>
		<stop  offset="0.172" style="stop-color:#661312;stop-opacity:0.828"/>
		<stop  offset="0.3508" style="stop-color:#731418;stop-opacity:0.6492"/>
		<stop  offset="0.5327" style="stop-color:#871621;stop-opacity:0.4673"/>
		<stop  offset="0.7167" style="stop-color:#A5182E;stop-opacity:0.2833"/>
		<stop  offset="0.9007" style="stop-color:#CA1A3F;stop-opacity:0.0993"/>
		<stop  offset="1" style="stop-color:#E11C4A;stop-opacity:0"/>
	</linearGradient>
	<polygon class="st9" points="107.092,57.75 100.931,49.911 108.398,42.07 108.398,45.991 	"/>
	
		<linearGradient id="SVGID_6_" gradientUnits="userSpaceOnUse" x1="115.4191" y1="-230.2718" x2="121.8411" y2="-226.0376" gradientTransform="matrix(1 0 0 1 0 280)">
		<stop  offset="0" style="stop-color:#EE3A3F"/>
		<stop  offset="1" style="stop-color:#AC2125"/>
	</linearGradient>
	<polygon class="st10" points="119.973,49.909 114.372,49.909 114.372,49.911 119.973,59.244 125.572,49.911 125.572,49.909 	"/>
	
		<linearGradient id="SVGID_7_" gradientUnits="userSpaceOnUse" x1="112.9754" y1="-221.1508" x2="122.317" y2="-230.6607" gradientTransform="matrix(1 0 0 1 0 280)">
		<stop  offset="0" style="stop-color:#FFFFFF"/>
		<stop  offset="1" style="stop-color:#FFFFFF;stop-opacity:0.42"/>
	</linearGradient>
	<polygon class="st11" points="119.973,49.909 114.372,49.909 114.372,49.911 119.973,59.244 125.572,49.911 125.572,49.909 	"/>
	<polygon class="st12" points="126.415,39.025 119.973,39.025 113.532,39.025 108.398,42.07 108.398,45.991 114.372,49.911 
		119.973,49.909 125.572,49.911 131.548,45.991 131.548,42.07 	"/>
	
		<linearGradient id="SVGID_8_" gradientUnits="userSpaceOnUse" x1="135.5101" y1="-254.5847" x2="118.3635" y2="-234.0411" gradientTransform="matrix(1 0 0 1 0 280)">
		<stop  offset="0" style="stop-color:#FFFFFF"/>
		<stop  offset="1" style="stop-color:#FFFFFF;stop-opacity:0"/>
	</linearGradient>
	<polygon class="st13" points="126.415,39.025 119.973,39.025 113.532,39.025 108.398,42.07 108.398,45.991 114.372,49.911 
		119.973,49.909 125.572,49.911 131.548,45.991 131.548,42.07 	"/>
	<polygon class="st1" points="120,59.242 120,68 132.855,58.498 	"/>
	
		<linearGradient id="SVGID_9_" gradientUnits="userSpaceOnUse" x1="142.7861" y1="-204.1438" x2="109.1416" y2="-222.1848" gradientTransform="matrix(1 0 0 1 0 280)">
		<stop  offset="0" style="stop-color:#EF4C53"/>
		<stop  offset="0.1648" style="stop-color:#EB4A51"/>
		<stop  offset="0.336" style="stop-color:#DE454B"/>
		<stop  offset="0.5103" style="stop-color:#CA3D41"/>
		<stop  offset="0.6867" style="stop-color:#AC3133"/>
		<stop  offset="0.8629" style="stop-color:#872221"/>
		<stop  offset="1" style="stop-color:#651410"/>
	</linearGradient>
	<polygon class="st14" points="120,59.242 119.973,59.244 107.092,58.498 119.973,68.019 120,68 	"/>
	
		<linearGradient id="SVGID_10_" gradientUnits="userSpaceOnUse" x1="108.398" y1="-234.009" x2="108.398" y2="-234.009" gradientTransform="matrix(1 0 0 1 0 280)">
		<stop  offset="0" style="stop-color:#EF4C53"/>
		<stop  offset="0.1648" style="stop-color:#EB4A51"/>
		<stop  offset="0.336" style="stop-color:#DE454B"/>
		<stop  offset="0.5103" style="stop-color:#CA3D41"/>
		<stop  offset="0.6867" style="stop-color:#AC3133"/>
		<stop  offset="0.8629" style="stop-color:#872221"/>
		<stop  offset="1" style="stop-color:#651410"/>
	</linearGradient>
	<path class="st15" d="M108.398,45.991"/>
</g>
<g id="hex-mongo-db">
	<polygon id="_x3E_bg_1_" class="st16" points="71.781,65.582 48.517,79.013 25.255,65.582 25.255,38.718 48.517,25.288 
		71.781,38.721 	"/>
	<path class="st17" d="M48.517,34.618v31.978c0,0,8.624-3.63,8.624-15.808S48.517,34.618,48.517,34.618z"/>
	<path class="st18" d="M48.517,34.618v31.978c0,0-8.624-3.63-8.624-15.808S48.517,34.618,48.517,34.618z"/>
	<line class="st19" x1="48.517" y1="66.595" x2="48.517" y2="70.839"/>
</g>
<g id="nav-stats">
	<line class="st20" x1="145.939" y1="133.793" x2="145.939" y2="143.61"/>
	<line class="st20" x1="149.65" y1="135.685" x2="149.65" y2="143.61"/>
	<line class="st20" x1="153.361" y1="132.57" x2="153.361" y2="143.61"/>
	<line class="st20" x1="157.072" y1="135.232" x2="157.072" y2="143.61"/>
	<line class="st20" x1="160.783" y1="136.973" x2="160.783" y2="143.61"/>
</g>
<g id="nav-scale">
	
		<ellipse transform="matrix(0.9876 -0.1567 0.1567 0.9876 -20.5499 19.3142)" class="st20" cx="112.214" cy="139.982" rx="4.908" ry="4.908"/>
	<g>
		<g>
			<path class="st20" d="M116.68,133.59c0.259-0.208,0.535-0.396,0.826-0.563"/>
			<path class="st21" d="M119.315,132.328c0.13-0.029,0.263-0.054,0.397-0.075c3.533-0.559,6.853,1.85,7.414,5.385
				c0.56,3.534-1.85,6.853-5.384,7.414c-0.553,0.087-1.1,0.102-1.632,0.052"/>
			<path class="st20" d="M119.153,144.938c-0.325-0.082-0.642-0.188-0.948-0.318"/>
		</g>
	</g>
</g>
<g id="nav-app-component">
	<polygon class="st20" points="53.147,143.159 45.924,147.33 38.701,143.159 38.701,134.819 45.924,130.649 53.147,134.82 	"/>
	<polygon class="st22" points="42.82,141.253 45.924,135.876 49.029,141.253 	"/>
</g>
<g id="nav-platform-component">
	<circle class="st20" cx="72.41" cy="140.792" r="0.841"/>
	<circle class="st20" cx="77.321" cy="144.705" r="0.841"/>
	<circle class="st20" cx="77.321" cy="136.931" r="0.841"/>
	<polyline class="st20" points="78,144.705 86.631,144.705 88.764,142.571 	"/>
	<polyline class="st20" points="78,136.88 86.631,136.88 88.764,134.747 	"/>
	<line class="st20" x1="73.647" y1="140.792" x2="85.634" y2="140.792"/>
</g>
<g id="nav-instance-health">
	<circle class="st22" cx="188.295" cy="130.054" r="1.029"/>
	<circle class="st22" cx="188.292" cy="133.332" r="0.911"/>
	<circle class="st22" cx="188.295" cy="137.277" r="1.029"/>
	
		<ellipse transform="matrix(0.704 -0.7102 0.7102 0.704 -38.9547 175.4429)" class="st22" cx="190.995" cy="134.454" rx="0.911" ry="0.911"/>
	<ellipse transform="matrix(1 -0.0091 0.0091 1 -1.2404 1.7541)" class="st22" cx="192.143" cy="137.19" rx="0.911" ry="0.91"/>
	
		<ellipse transform="matrix(0.6975 -0.7166 0.7166 0.6975 -42.4459 179.1976)" class="st22" cx="191.022" cy="139.873" rx="0.911" ry="0.91"/>
	
		<ellipse transform="matrix(0.9998 -0.0182 0.0182 0.9998 -2.5355 3.4505)" class="st22" cx="188.297" cy="141.023" rx="0.911" ry="0.91"/>
	
		<ellipse transform="matrix(0.691 -0.7229 0.7229 0.691 -43.8046 177.4252)" class="st22" cx="185.617" cy="139.947" rx="0.911" ry="0.911"/>
	
		<ellipse transform="matrix(0.9996 -0.0271 0.0271 0.9996 -3.6518 5.048)" class="st22" cx="184.406" cy="137.249" rx="0.911" ry="0.91"/>
	
		<ellipse transform="matrix(0.6848 -0.7287 0.7287 0.6848 -39.5899 177.557)" class="st22" cx="185.464" cy="134.545" rx="0.91" ry="0.911"/>
	
		<ellipse transform="matrix(0.4398 -0.8981 0.8981 0.4398 -10.2208 245.1874)" class="st22" cx="191.428" cy="130.787" rx="1.029" ry="1.029"/>
	
		<ellipse transform="matrix(0.7901 -0.613 0.613 0.7901 -40.7263 146.761)" class="st22" cx="193.926" cy="132.846" rx="1.029" ry="1.029"/>
	
		<ellipse transform="matrix(0.9792 -0.2031 0.2031 0.9792 -23.5044 42.4895)" class="st22" cx="195.281" cy="135.772" rx="1.03" ry="1.029"/>
	
		<ellipse transform="matrix(0.2483 -0.9687 0.9687 0.2483 12.0968 293.5392)" class="st22" cx="195.183" cy="138.975" rx="1.029" ry="1.029"/>
	
		<ellipse transform="matrix(0.6494 -0.7605 0.7605 0.6494 -39.9341 197.0341)" class="st22" cx="193.705" cy="141.823" rx="1.029" ry="1.029"/>
	
		<ellipse transform="matrix(0.9177 -0.3973 0.3973 0.9177 -41.373 87.7493)" class="st22" cx="191.09" cy="143.725" rx="1.029" ry="1.029"/>
	
		<ellipse transform="matrix(0.047 -0.9989 0.9989 0.047 34.9497 325.2339)" class="st22" cx="187.923" cy="144.301" rx="1.029" ry="1.028"/>
	
		<ellipse transform="matrix(0.4818 -0.8763 0.8763 0.4818 -29.8847 236.2769)" class="st22" cx="184.829" cy="143.406" rx="1.03" ry="1.029"/>
	
		<ellipse transform="matrix(0.8181 -0.575 0.575 0.8181 -48.0552 130.5739)" class="st22" cx="182.399" cy="141.258" rx="1.03" ry="1.028"/>
	
		<ellipse transform="matrix(0.9877 -0.1562 0.1562 0.9877 -19.3718 30.0044)" class="st22" cx="181.22" cy="138.257" rx="1.03" ry="1.029"/>
	
		<ellipse transform="matrix(0.2942 -0.9557 0.9557 0.2942 -1.04 268.7451)" class="st22" cx="181.44" cy="135.077" rx="1.029" ry="1.03"/>
	
		<ellipse transform="matrix(0.6846 -0.7289 0.7289 0.6846 -38.6922 175.178)" class="st22" cx="183.084" cy="132.3" rx="1.029" ry="1.03"/>
	
		<ellipse transform="matrix(0.9354 -0.3535 0.3535 0.9354 -34.1367 74.092)" class="st22" cx="185.754" cy="130.493" rx="1.029" ry="1.03"/>
</g>
<g id="corner-bg">
	<polygon class="st23" points="36.106,-18.004 626.169,-18.004 626.169,-75.004 12.729,-75.004 12.729,-32.457 	"/>
</g>
<g id="hex-load-balancer">
	<polygon class="st24" points="228.078,65.708 204.472,79.336 180.869,65.708 180.869,38.45 204.472,24.823 228.078,38.453 	"/>
	<path class="st25" d="M223.888,51.965"/>
	<line class="st25" x1="227.421" y1="60.858" x2="204.629" y2="46.449"/>
	<line class="st25" x1="225.717" y1="65.83" x2="204.629" y2="52.499"/>
	<polyline class="st25" points="204.629,40.401 227.421,54.809 227.421,57.614 227.421,65.049 	"/>
	<line class="st25" x1="227.416" y1="54.806" x2="209.066" y2="43.206"/>
	<polyline class="st25" points="227.416,60.855 209.066,49.255 209.066,37.157 227.287,48.676 	"/>
	<polyline class="st25" points="204.493,65.62 227.285,51.211 227.285,39.113 204.493,53.522 	"/>
	<line class="st25" x1="204.765" y1="59.571" x2="215.098" y2="53.039"/>
	<line class="st25" x1="204.765" y1="53.522" x2="215.098" y2="46.99"/>
	<line class="st25" x1="215.098" y1="59.088" x2="204.765" y2="65.62"/>
	<line class="st25" x1="204.629" y1="46.449" x2="214.962" y2="52.982"/>
	<line class="st25" x1="204.629" y1="52.499" x2="214.962" y2="59.03"/>
	<line class="st25" x1="214.962" y1="46.932" x2="204.629" y2="40.401"/>
	<line class="st25" x1="227.285" y1="45.163" x2="204.493" y2="59.571"/>
	<polygon class="st26" points="228.078,65.708 204.472,79.336 180.869,65.708 180.869,38.45 204.472,24.823 228.078,38.453 
		228.078,44.91 228.078,50.946 228.078,56.995 	"/>
	<line class="st25" x1="214.962" y1="53.189" x2="227.285" y2="45.398"/>
	<polyline class="st25" points="227.421,57.41 214.962,65.286 214.962,59.237 227.285,51.447 	"/>
	<path class="st25" d="M227.421,57.614"/>
	<path class="st25" d="M185.056,51.965"/>
	<line class="st25" x1="181.523" y1="60.858" x2="204.315" y2="46.449"/>
	<line class="st25" x1="183.227" y1="65.83" x2="204.315" y2="52.499"/>
	<polyline class="st25" points="204.315,40.401 181.523,54.809 181.523,57.614 181.523,65.049 	"/>
	<line class="st25" x1="181.528" y1="54.806" x2="199.878" y2="43.206"/>
	<polyline class="st25" points="181.528,60.855 199.878,49.255 199.878,37.157 181.657,48.676 	"/>
	<polyline class="st25" points="204.451,65.62 181.659,51.211 181.659,39.113 204.451,53.522 	"/>
	<line class="st25" x1="204.179" y1="59.571" x2="193.846" y2="53.039"/>
	<line class="st25" x1="204.179" y1="53.522" x2="193.846" y2="46.99"/>
	<line class="st25" x1="193.846" y1="59.088" x2="204.179" y2="65.62"/>
	<line class="st25" x1="204.315" y1="46.449" x2="193.982" y2="52.982"/>
	<line class="st25" x1="204.315" y1="52.499" x2="193.982" y2="59.03"/>
	<line class="st25" x1="193.982" y1="46.932" x2="204.315" y2="40.401"/>
	<line class="st25" x1="181.659" y1="45.163" x2="204.451" y2="59.571"/>
	<line class="st25" x1="193.982" y1="53.189" x2="181.659" y2="45.398"/>
	<polyline class="st25" points="181.523,57.41 193.982,65.286 193.982,59.237 181.659,51.447 	"/>
	<path class="st25" d="M181.523,57.614"/>
	<path class="st25" d="M181.523,57.614"/>
</g>
<g id="nav-split">
	<path class="st27" d="M264.974,134.136c-2.711,0-4.908,2.197-4.908,4.908s2.197,4.908,4.908,4.908v0.001
		c2.481,0,4.443-3.017,5.428-3.12c1.895-0.197,1.983,1.603,4.171,1.603v-0.029c1.857,0,3.362-1.505,3.362-3.362
		s-1.505-3.362-3.362-3.362v-0.029c-2.449,0-2.276,1.8-4.171,1.602c-0.984-0.103-2.946-3.119-5.428-3.119V134.136z"/>
</g>
<g id="nav-admin">
	
		<ellipse transform="matrix(0.9413 -0.3375 0.3375 0.9413 -30.0588 113.5807)" class="st27" cx="311.625" cy="143.238" rx="3.086" ry="3.088"/>
	
		<ellipse transform="matrix(0.9412 -0.3377 0.3377 0.9412 -26.472 114.2392)" class="st27" cx="315.096" cy="133.202" rx="3.087" ry="3.088"/>
	
		<ellipse transform="matrix(0.9413 -0.3376 0.3376 0.9413 -27.6795 116.9124)" class="st27" cx="322.302" cy="138.039" rx="1.901" ry="1.902"/>
	<line class="st27" x1="312.646" y1="140.355" x2="314.268" y2="136.144"/>
	<line class="st27" x1="320.858" y1="136.806" x2="317.987" y2="134.959"/>
	
		<ellipse transform="matrix(0.8869 -0.4619 0.4619 0.8869 -29.6594 156.2417)" class="st27" cx="304.296" cy="138.7" rx="1.901" ry="1.902"/>
	<line class="st27" x1="305.906" y1="139.715" x2="309" y2="141.156"/>
</g>
<g id="nav-console">
	<rect x="216.492" y="133.305" class="st27" width="17.17" height="10.546"/>
	<line class="st27" x1="223.753" y1="139.993" x2="227.753" y2="139.993"/>
	<polyline class="st27" points="219.564,135.935 221.592,137.964 219.564,139.993 	"/>
</g>
</svg>
